<svg xmlns="http://www.w3.org/2000/svg" xmlns:xlink="http://www.w3.org/1999/xlink" contentStyleType="text/css" data-diagram-type="CLASS" height="1588px" preserveAspectRatio="none" style="width:1992px;height:1588px;background:#FFFFFF;" version="1.1" viewBox="0 0 1992 1588" width="1992px" zoomAndPan="magnify"><defs/><g><!--cluster restaurante--><g class="cluster" data-entity="restaurante" data-source-line="4" data-uid="ent0004" id="cluster_restaurante"><path d="M8.5,6 L102.8447,6 A3.75,3.75 0 0 1 105.3447,8.5 L112.3447,28.2969 L1737.5,28.2969 A2.5,2.5 0 0 1 1740,30.7969 L1740,1579.31 A2.5,2.5 0 0 1 1737.5,1581.81 L8.5,1581.81 A2.5,2.5 0 0 1 6,1579.31 L6,8.5 A2.5,2.5 0 0 1 8.5,6" fill="none" style="stroke:#000000;stroke-width:1.5;"/><line style="stroke:#000000;stroke-width:1.5;" x1="6" x2="112.3447" y1="28.2969" y2="28.2969"/><text fill="#000000" font-family="sans-serif" font-size="14" font-weight="bold" lengthAdjust="spacing" textLength="93.3447" x="10" y="20.9951">restaurante</text></g><!--cluster core--><g class="cluster" data-entity="core" data-source-line="3" data-uid="ent0002" id="cluster_core"><path d="M32.5,49 L67.8164,49 A3.75,3.75 0 0 1 70.3164,51.5 L77.3164,71.2969 L1713.5,71.2969 A2.5,2.5 0 0 1 1716,73.7969 L1716,1555.31 A2.5,2.5 0 0 1 1713.5,1557.81 L32.5,1557.81 A2.5,2.5 0 0 1 30,1555.31 L30,51.5 A2.5,2.5 0 0 1 32.5,49" fill="none" style="stroke:#000000;stroke-width:1.5;"/><line style="stroke:#000000;stroke-width:1.5;" x1="30" x2="77.3164" y1="71.2969" y2="71.2969"/><text fill="#000000" font-family="sans-serif" font-size="14" font-weight="bold" lengthAdjust="spacing" textLength="34.3164" x="34" y="63.9951">core</text></g><!--class Restaurante--><g class="entity" data-entity="Restaurante" data-source-line="4" data-uid="ent0003" id="entity_Restaurante"><rect fill="#F1F1F1" height="325.0469" rx="2.5" ry="2.5" style="stroke:#181818;stroke-width:0.5;" width="530.1504" x="638.92" y="420.15"/><ellipse cx="856.8018" cy="436.15" fill="#ADD1B2" rx="11" ry="11" style="stroke:#181818;stroke-width:1;"/><path d="M859.7706,441.7906 Q859.1925,442.0875 858.5518,442.2281 Q857.9112,442.3844 857.2081,442.3844 Q854.7081,442.3844 853.38,440.7437 Q852.0675,439.0875 852.0675,435.9625 Q852.0675,432.8375 853.38,431.1812 Q854.7081,429.525 857.2081,429.525 Q857.9112,429.525 858.5518,429.6812 Q859.2081,429.8375 859.7706,430.1344 L859.7706,432.8531 Q859.1456,432.275 858.5518,432.0094 Q857.9581,431.7281 857.3331,431.7281 Q855.9893,431.7281 855.3018,432.8062 Q854.6143,433.8687 854.6143,435.9625 Q854.6143,438.0562 855.3018,439.1344 Q855.9893,440.1969 857.3331,440.1969 Q857.9581,440.1969 858.5518,439.9312 Q859.1456,439.65 859.7706,439.0719 L859.7706,441.7906 Z " fill="#000000"/><text fill="#000000" font-family="sans-serif" font-size="14" lengthAdjust="spacing" textLength="85.8867" x="877.3018" y="440.9967">Restaurante</text><line style="stroke:#181818;stroke-width:0.5;" x1="639.92" x2="1168.0704" y1="452.15" y2="452.15"/><rect fill="none" height="6" style="stroke:#C82930;stroke-width:1;" width="6" x="646.92" y="462.7984"/><text fill="#000000" font-family="sans-serif" font-size="14" lengthAdjust="spacing" textLength="132.9248" x="658.92" y="469.1451">cardapio: Cardapio</text><rect fill="none" height="6" style="stroke:#C82930;stroke-width:1;" width="6" x="646.92" y="479.0953"/><text fill="#000000" font-family="sans-serif" font-size="14" lengthAdjust="spacing" textLength="122.0693" x="658.92" y="485.442">estoque: Estoque</text><rect fill="none" height="6" style="stroke:#C82930;stroke-width:1;" width="6" x="646.92" y="495.3922"/><text fill="#000000" font-family="sans-serif" font-size="14" lengthAdjust="spacing" textLength="154.6426" x="658.92" y="501.7389">dinheiroNoCofre: float</text><rect fill="none" height="6" style="stroke:#C82930;stroke-width:1;" width="6" x="646.92" y="511.6891"/><text fill="#000000" font-family="sans-serif" font-size="14" lengthAdjust="spacing" textLength="262.4521" x="658.92" y="518.0357">funcionarios: ArrayList&lt;Funcionario&gt;</text><line style="stroke:#181818;stroke-width:0.5;" x1="639.92" x2="1168.0704" y1="525.3375" y2="525.3375"/><ellipse cx="649.92" cy="538.9859" fill="#84BE84" rx="3" ry="3" style="stroke:#038048;stroke-width:1;"/><text fill="#000000" font-family="sans-serif" font-size="14" lengthAdjust="spacing" textLength="96.8105" x="658.92" y="542.3326">Restaurante()</text><ellipse cx="649.92" cy="555.2828" fill="#84BE84" rx="3" ry="3" style="stroke:#038048;stroke-width:1;"/><text fill="#000000" font-family="sans-serif" font-size="14" lengthAdjust="spacing" textLength="367.2197" x="658.92" y="558.6295">cadastrarFuncionario(funcionario: Funcionario): void</text><ellipse cx="649.92" cy="571.5797" fill="#84BE84" rx="3" ry="3" style="stroke:#038048;stroke-width:1;"/><text fill="#000000" font-family="sans-serif" font-size="14" lengthAdjust="spacing" textLength="350.7656" x="658.92" y="574.9264">demitirFuncionario(funcionario: Funcionario): void</text><ellipse cx="649.92" cy="587.8766" fill="#84BE84" rx="3" ry="3" style="stroke:#038048;stroke-width:1;"/><text fill="#000000" font-family="sans-serif" font-size="14" lengthAdjust="spacing" textLength="504.1504" x="658.92" y="591.2232">promoverFuncionario(funcionario: Funcionario, novoCargo: Cargo): void</text><ellipse cx="649.92" cy="604.1734" fill="#84BE84" rx="3" ry="3" style="stroke:#038048;stroke-width:1;"/><text fill="#000000" font-family="sans-serif" font-size="14" lengthAdjust="spacing" textLength="494.4297" x="658.92" y="607.5201">rebaixarFuncionario(funcionario: Funcionario, novoCargo: Cargo): void</text><ellipse cx="649.92" cy="620.4703" fill="#84BE84" rx="3" ry="3" style="stroke:#038048;stroke-width:1;"/><text fill="#000000" font-family="sans-serif" font-size="14" lengthAdjust="spacing" textLength="204.7705" x="658.92" y="623.817">obterDinheiroNoCofre(): float</text><ellipse cx="649.92" cy="636.7672" fill="#84BE84" rx="3" ry="3" style="stroke:#038048;stroke-width:1;"/><text fill="#000000" font-family="sans-serif" font-size="14" lengthAdjust="spacing" textLength="306.0449" x="658.92" y="640.1139">adicionarDinheiroNoCofre(valor: float): void</text><ellipse cx="649.92" cy="653.0641" fill="#84BE84" rx="3" ry="3" style="stroke:#038048;stroke-width:1;"/><text fill="#000000" font-family="sans-serif" font-size="14" lengthAdjust="spacing" textLength="326.9014" x="658.92" y="656.4107">removerDinheiroNoCofre(valor: float): boolean</text><ellipse cx="649.92" cy="669.3609" fill="#84BE84" rx="3" ry="3" style="stroke:#038048;stroke-width:1;"/><text fill="#000000" font-family="sans-serif" font-size="14" lengthAdjust="spacing" textLength="307.9932" x="658.92" y="672.7076">processarPagamento(valorPago: float): void</text><ellipse cx="649.92" cy="685.6578" fill="#84BE84" rx="3" ry="3" style="stroke:#038048;stroke-width:1;"/><text fill="#000000" font-family="sans-serif" font-size="14" lengthAdjust="spacing" textLength="313.8105" x="658.92" y="689.0045">obterFuncionarios(): ArrayList&lt;Funcionario&gt;</text><ellipse cx="649.92" cy="701.9547" fill="#84BE84" rx="3" ry="3" style="stroke:#038048;stroke-width:1;"/><text fill="#000000" font-family="sans-serif" font-size="14" lengthAdjust="spacing" textLength="177.4814" x="658.92" y="705.3014">obteCardapio(): Cardapio</text><ellipse cx="649.92" cy="718.2516" fill="#84BE84" rx="3" ry="3" style="stroke:#038048;stroke-width:1;"/><text fill="#000000" font-family="sans-serif" font-size="14" lengthAdjust="spacing" textLength="170.5361" x="658.92" y="721.5982">obterEstoque(): Estoque</text><ellipse cx="649.92" cy="734.5484" fill="#84BE84" rx="3" ry="3" style="stroke:#038048;stroke-width:1;"/><text fill="#000000" font-family="sans-serif" font-size="14" lengthAdjust="spacing" textLength="375.3203" x="658.92" y="737.8951">obterFuncionarioPorNome(nome: String): Funcionario</text></g><!--class Cardapio--><g class="entity" data-entity="Cardapio" data-source-line="24" data-uid="ent0005" id="entity_Cardapio"><rect fill="#F1F1F1" height="162.0781" rx="2.5" ry="2.5" style="stroke:#181818;stroke-width:0.5;" width="532.5635" x="45.72" y="854.09"/><ellipse cx="276.2928" cy="870.09" fill="#ADD1B2" rx="11" ry="11" style="stroke:#181818;stroke-width:1;"/><path d="M279.2615,875.7306 Q278.6834,876.0275 278.0428,876.1681 Q277.4021,876.3244 276.699,876.3244 Q274.199,876.3244 272.8709,874.6837 Q271.5584,873.0275 271.5584,869.9025 Q271.5584,866.7775 272.8709,865.1212 Q274.199,863.465 276.699,863.465 Q277.4021,863.465 278.0428,863.6212 Q278.699,863.7775 279.2615,864.0744 L279.2615,866.7931 Q278.6365,866.215 278.0428,865.9494 Q277.449,865.6681 276.824,865.6681 Q275.4803,865.6681 274.7928,866.7462 Q274.1053,867.8087 274.1053,869.9025 Q274.1053,871.9962 274.7928,873.0744 Q275.4803,874.1369 276.824,874.1369 Q277.449,874.1369 278.0428,873.8712 Q278.6365,873.59 279.2615,873.0119 L279.2615,875.7306 Z " fill="#000000"/><text fill="#000000" font-family="sans-serif" font-size="14" lengthAdjust="spacing" textLength="62.918" x="296.7928" y="874.9367">Cardapio</text><line style="stroke:#181818;stroke-width:0.5;" x1="46.72" x2="577.2835" y1="886.09" y2="886.09"/><rect fill="none" height="6" style="stroke:#C82930;stroke-width:1;" width="6" x="53.72" y="896.7384"/><text fill="#000000" font-family="sans-serif" font-size="14" lengthAdjust="spacing" textLength="228.7646" x="65.72" y="903.0851">items: ArrayList&lt;ItemCardapio&gt;</text><line style="stroke:#181818;stroke-width:0.5;" x1="46.72" x2="577.2835" y1="910.3869" y2="910.3869"/><ellipse cx="56.72" cy="924.0353" fill="#84BE84" rx="3" ry="3" style="stroke:#038048;stroke-width:1;"/><text fill="#000000" font-family="sans-serif" font-size="14" lengthAdjust="spacing" textLength="73.8418" x="65.72" y="927.382">Cardapio()</text><ellipse cx="56.72" cy="940.3322" fill="#84BE84" rx="3" ry="3" style="stroke:#038048;stroke-width:1;"/><text fill="#000000" font-family="sans-serif" font-size="14" lengthAdjust="spacing" textLength="506.5635" x="65.72" y="943.6789">adicionarDesconto(item: ItemCardapio, percentualDesconto: float): void</text><ellipse cx="56.72" cy="956.6291" fill="#84BE84" rx="3" ry="3" style="stroke:#038048;stroke-width:1;"/><text fill="#000000" font-family="sans-serif" font-size="14" lengthAdjust="spacing" textLength="450.5361" x="65.72" y="959.9757">adicionarItemNoCardapio(alimento: Alimento, preco: float): void</text><ellipse cx="56.72" cy="972.9259" fill="#84BE84" rx="3" ry="3" style="stroke:#038048;stroke-width:1;"/><text fill="#000000" font-family="sans-serif" font-size="14" lengthAdjust="spacing" textLength="363.8428" x="65.72" y="976.2726">adicionarItemNoCardapio(item: ItemCardapio): void</text><ellipse cx="56.72" cy="989.2228" fill="#84BE84" rx="3" ry="3" style="stroke:#038048;stroke-width:1;"/><text fill="#000000" font-family="sans-serif" font-size="14" lengthAdjust="spacing" textLength="359.1943" x="65.72" y="992.5695">obterItemsNoCardapio(): ArrayList&lt;ItemCardapio&gt;</text><ellipse cx="56.72" cy="1005.5197" fill="#84BE84" rx="3" ry="3" style="stroke:#038048;stroke-width:1;"/><text fill="#000000" font-family="sans-serif" font-size="14" lengthAdjust="spacing" textLength="471.7139" x="65.72" y="1008.8664">obterItemsEsgotados(estoque: Estoque): ArrayList&lt;ItemCardapio&gt;</text></g><!--class ItemCardapio--><g class="entity" data-entity="ItemCardapio" data-source-line="34" data-uid="ent0006" id="entity_ItemCardapio"><rect fill="#F1F1F1" height="210.9688" rx="2.5" ry="2.5" style="stroke:#181818;stroke-width:0.5;" width="353.9883" x="1288.01" y="1125.06"/><ellipse cx="1413.3606" cy="1141.06" fill="#ADD1B2" rx="11" ry="11" style="stroke:#181818;stroke-width:1;"/><path d="M1416.3293,1146.7006 Q1415.7512,1146.9975 1415.1106,1147.1381 Q1414.47,1147.2944 1413.7668,1147.2944 Q1411.2668,1147.2944 1409.9387,1145.6538 Q1408.6262,1143.9975 1408.6262,1140.8725 Q1408.6262,1137.7475 1409.9387,1136.0913 Q1411.2668,1134.435 1413.7668,1134.435 Q1414.47,1134.435 1415.1106,1134.5913 Q1415.7668,1134.7475 1416.3293,1135.0444 L1416.3293,1137.7631 Q1415.7043,1137.185 1415.1106,1136.9194 Q1414.5168,1136.6381 1413.8918,1136.6381 Q1412.5481,1136.6381 1411.8606,1137.7163 Q1411.1731,1138.7788 1411.1731,1140.8725 Q1411.1731,1142.9663 1411.8606,1144.0444 Q1412.5481,1145.1069 1413.8918,1145.1069 Q1414.5168,1145.1069 1415.1106,1144.8413 Q1415.7043,1144.56 1416.3293,1143.9819 L1416.3293,1146.7006 Z " fill="#000000"/><text fill="#000000" font-family="sans-serif" font-size="14" lengthAdjust="spacing" textLength="94.7871" x="1433.8606" y="1145.9067">ItemCardapio</text><line style="stroke:#181818;stroke-width:0.5;" x1="1289.01" x2="1640.9983" y1="1157.06" y2="1157.06"/><rect fill="none" height="6" style="stroke:#C82930;stroke-width:1;" width="6" x="1296.01" y="1167.7084"/><text fill="#000000" font-family="sans-serif" font-size="14" lengthAdjust="spacing" textLength="133.2393" x="1308.01" y="1174.0551">alimento: Alimento</text><rect fill="none" height="6" style="stroke:#C82930;stroke-width:1;" width="6" x="1296.01" y="1184.0053"/><text fill="#000000" font-family="sans-serif" font-size="14" lengthAdjust="spacing" textLength="80.1377" x="1308.01" y="1190.352">preco: float</text><line style="stroke:#181818;stroke-width:0.5;" x1="1289.01" x2="1640.9983" y1="1197.6538" y2="1197.6538"/><ellipse cx="1299.01" cy="1211.3022" fill="#84BE84" rx="3" ry="3" style="stroke:#038048;stroke-width:1;"/><text fill="#000000" font-family="sans-serif" font-size="14" lengthAdjust="spacing" textLength="327.9883" x="1308.01" y="1214.6489">ItemCardapio(alimento: Alimento, preco: float)</text><ellipse cx="1299.01" cy="1227.5991" fill="#84BE84" rx="3" ry="3" style="stroke:#038048;stroke-width:1;"/><text fill="#000000" font-family="sans-serif" font-size="14" lengthAdjust="spacing" textLength="182.4717" x="1308.01" y="1230.9457">obterAlimento(): Alimento</text><ellipse cx="1299.01" cy="1243.8959" fill="#84BE84" rx="3" ry="3" style="stroke:#038048;stroke-width:1;"/><text fill="#000000" font-family="sans-serif" font-size="14" lengthAdjust="spacing" textLength="127.9277" x="1308.01" y="1247.2426">obterPreco(): float</text><ellipse cx="1299.01" cy="1260.1928" fill="#84BE84" rx="3" ry="3" style="stroke:#038048;stroke-width:1;"/><text fill="#000000" font-family="sans-serif" font-size="14" lengthAdjust="spacing" textLength="213.7666" x="1308.01" y="1263.5395">definirPreco(preco: float): void</text><ellipse cx="1299.01" cy="1276.4897" fill="#84BE84" rx="3" ry="3" style="stroke:#038048;stroke-width:1;"/><text fill="#000000" font-family="sans-serif" font-size="14" lengthAdjust="spacing" textLength="140.4717" x="1308.01" y="1279.8364">obterNome(): String</text><ellipse cx="1299.01" cy="1292.7866" fill="#84BE84" rx="3" ry="3" style="stroke:#038048;stroke-width:1;"/><text fill="#000000" font-family="sans-serif" font-size="14" lengthAdjust="spacing" textLength="213.6094" x="1308.01" y="1296.1332">obterCustoDeProducao(): float</text><ellipse cx="1299.01" cy="1309.0834" fill="#84BE84" rx="3" ry="3" style="stroke:#038048;stroke-width:1;"/><text fill="#000000" font-family="sans-serif" font-size="14" lengthAdjust="spacing" textLength="127.5449" x="1308.01" y="1312.4301">obterLucro(): float</text><ellipse cx="1299.01" cy="1325.3803" fill="#84BE84" rx="3" ry="3" style="stroke:#038048;stroke-width:1;"/><text fill="#000000" font-family="sans-serif" font-size="14" lengthAdjust="spacing" textLength="271.127" x="1308.01" y="1328.727">produzivel(estoque: Estoque): boolean</text></g><!--class Estoque--><g class="entity" data-entity="Estoque" data-source-line="47" data-uid="ent0007" id="entity_Estoque"><rect fill="#F1F1F1" height="145.7813" rx="2.5" ry="2.5" style="stroke:#181818;stroke-width:0.5;" width="582.2061" x="612.9" y="862.24"/><ellipse cx="871.4693" cy="878.24" fill="#ADD1B2" rx="11" ry="11" style="stroke:#181818;stroke-width:1;"/><path d="M874.4381,883.8806 Q873.86,884.1775 873.2193,884.3181 Q872.5787,884.4744 871.8756,884.4744 Q869.3756,884.4744 868.0475,882.8337 Q866.735,881.1775 866.735,878.0525 Q866.735,874.9275 868.0475,873.2712 Q869.3756,871.615 871.8756,871.615 Q872.5787,871.615 873.2193,871.7712 Q873.8756,871.9275 874.4381,872.2244 L874.4381,874.9431 Q873.8131,874.365 873.2193,874.0994 Q872.6256,873.8181 872.0006,873.8181 Q870.6568,873.8181 869.9693,874.8962 Q869.2818,875.9587 869.2818,878.0525 Q869.2818,880.1462 869.9693,881.2244 Q870.6568,882.2869 872.0006,882.2869 Q872.6256,882.2869 873.2193,882.0212 Q873.8131,881.74 874.4381,881.1619 L874.4381,883.8806 Z " fill="#000000"/><text fill="#000000" font-family="sans-serif" font-size="14" lengthAdjust="spacing" textLength="56.5674" x="891.9693" y="883.0867">Estoque</text><line style="stroke:#181818;stroke-width:0.5;" x1="613.9" x2="1194.1061" y1="894.24" y2="894.24"/><rect fill="none" height="6" style="stroke:#C82930;stroke-width:1;" width="6" x="620.9" y="904.8884"/><text fill="#000000" font-family="sans-serif" font-size="14" lengthAdjust="spacing" textLength="263.3545" x="632.9" y="911.2351">ingredientes: ArrayList&lt;Ingrediente&gt;</text><line style="stroke:#181818;stroke-width:0.5;" x1="613.9" x2="1194.1061" y1="918.5369" y2="918.5369"/><ellipse cx="623.9" cy="932.1853" fill="#84BE84" rx="3" ry="3" style="stroke:#038048;stroke-width:1;"/><text fill="#000000" font-family="sans-serif" font-size="14" lengthAdjust="spacing" textLength="67.4912" x="632.9" y="935.532">Estoque()</text><ellipse cx="623.9" cy="948.4822" fill="#84BE84" rx="3" ry="3" style="stroke:#038048;stroke-width:1;"/><text fill="#000000" font-family="sans-serif" font-size="14" lengthAdjust="spacing" textLength="556.2061" x="632.9" y="951.8289">possuiIngredientes(ingredientesNecessarios: ArrayList&lt;Ingrediente&gt;): boolean</text><ellipse cx="623.9" cy="964.7791" fill="#84BE84" rx="3" ry="3" style="stroke:#038048;stroke-width:1;"/><text fill="#000000" font-family="sans-serif" font-size="14" lengthAdjust="spacing" textLength="311.8281" x="632.9" y="968.1257">obterIngredientes(): ArrayList&lt;Ingrediente&gt;</text><ellipse cx="623.9" cy="981.0759" fill="#84BE84" rx="3" ry="3" style="stroke:#038048;stroke-width:1;"/><text fill="#000000" font-family="sans-serif" font-size="14" lengthAdjust="spacing" textLength="523.4141" x="632.9" y="984.4226">removerIngredientes(ingredientesRemover: ArrayList&lt;Ingrediente&gt;): void</text><ellipse cx="623.9" cy="997.3728" fill="#84BE84" rx="3" ry="3" style="stroke:#038048;stroke-width:1;"/><text fill="#000000" font-family="sans-serif" font-size="14" lengthAdjust="spacing" textLength="365.2305" x="632.9" y="1000.7195">adicionarIngrediente(ingrediente: Ingrediente): void</text></g><!--class Pedido--><g class="entity" data-entity="Pedido" data-source-line="56" data-uid="ent0008" id="entity_Pedido"><rect fill="#F1F1F1" height="259.8594" rx="2.5" ry="2.5" style="stroke:#181818;stroke-width:0.5;" width="470.7803" x="1229.61" y="805.2"/><ellipse cx="1437.108" cy="821.2" fill="#ADD1B2" rx="11" ry="11" style="stroke:#181818;stroke-width:1;"/><path d="M1440.0768,826.8406 Q1439.4987,827.1375 1438.858,827.2781 Q1438.2174,827.4344 1437.5143,827.4344 Q1435.0143,827.4344 1433.6862,825.7937 Q1432.3737,824.1375 1432.3737,821.0125 Q1432.3737,817.8875 1433.6862,816.2312 Q1435.0143,814.575 1437.5143,814.575 Q1438.2174,814.575 1438.858,814.7312 Q1439.5143,814.8875 1440.0768,815.1844 L1440.0768,817.9031 Q1439.4518,817.325 1438.858,817.0594 Q1438.2643,816.7781 1437.6393,816.7781 Q1436.2955,816.7781 1435.608,817.8562 Q1434.9205,818.9187 1434.9205,821.0125 Q1434.9205,823.1062 1435.608,824.1844 Q1436.2955,825.2469 1437.6393,825.2469 Q1438.2643,825.2469 1438.858,824.9812 Q1439.4518,824.7 1440.0768,824.1219 L1440.0768,826.8406 Z " fill="#000000"/><text fill="#000000" font-family="sans-serif" font-size="14" lengthAdjust="spacing" textLength="47.2842" x="1457.608" y="826.0467">Pedido</text><line style="stroke:#181818;stroke-width:0.5;" x1="1230.61" x2="1699.3903" y1="837.2" y2="837.2"/><rect fill="none" height="6" style="stroke:#C82930;stroke-width:1;" width="6" x="1237.61" y="847.8484"/><text fill="#000000" font-family="sans-serif" font-size="14" lengthAdjust="spacing" textLength="105.376" x="1249.61" y="854.1951">cliente: Cliente</text><rect fill="none" height="6" style="stroke:#C82930;stroke-width:1;" width="6" x="1237.61" y="864.1453"/><text fill="#000000" font-family="sans-serif" font-size="14" lengthAdjust="spacing" textLength="135.584" x="1249.61" y="870.492">item: ItemCardapio</text><rect fill="none" height="6" style="stroke:#C82930;stroke-width:1;" width="6" x="1237.61" y="880.4422"/><text fill="#000000" font-family="sans-serif" font-size="14" lengthAdjust="spacing" textLength="127.8115" x="1249.61" y="886.7889">caixa: Funcionario</text><rect fill="none" height="6" style="stroke:#C82930;stroke-width:1;" width="6" x="1237.61" y="896.7391"/><text fill="#000000" font-family="sans-serif" font-size="14" lengthAdjust="spacing" textLength="162.8525" x="1249.61" y="903.0857">cozinheiro: Funcionario</text><rect fill="none" height="6" style="stroke:#C82930;stroke-width:1;" width="6" x="1237.61" y="913.0359"/><text fill="#000000" font-family="sans-serif" font-size="14" lengthAdjust="spacing" textLength="183.1689" x="1249.61" y="919.3826">foiRecomendado: boolean</text><line style="stroke:#181818;stroke-width:0.5;" x1="1230.61" x2="1699.3903" y1="926.6844" y2="926.6844"/><ellipse cx="1240.61" cy="940.3328" fill="#84BE84" rx="3" ry="3" style="stroke:#038048;stroke-width:1;"/><text fill="#000000" font-family="sans-serif" font-size="14" lengthAdjust="spacing" textLength="444.7803" x="1249.61" y="943.6795">Pedido(cliente: Cliente, item: ItemCardapio, caixa: Funcionario)</text><ellipse cx="1240.61" cy="956.6297" fill="#84BE84" rx="3" ry="3" style="stroke:#038048;stroke-width:1;"/><text fill="#000000" font-family="sans-serif" font-size="14" lengthAdjust="spacing" textLength="155.6885" x="1249.61" y="959.9764">obterCliente(): Cliente</text><ellipse cx="1240.61" cy="972.9266" fill="#84BE84" rx="3" ry="3" style="stroke:#038048;stroke-width:1;"/><text fill="#000000" font-family="sans-serif" font-size="14" lengthAdjust="spacing" textLength="184.0576" x="1249.61" y="976.2732">obterItem(): ItemCardapio</text><ellipse cx="1240.61" cy="989.2234" fill="#84BE84" rx="3" ry="3" style="stroke:#038048;stroke-width:1;"/><text fill="#000000" font-family="sans-serif" font-size="14" lengthAdjust="spacing" textLength="178.124" x="1249.61" y="992.5701">obterCaixa(): Funcionario</text><ellipse cx="1240.61" cy="1005.5203" fill="#84BE84" rx="3" ry="3" style="stroke:#038048;stroke-width:1;"/><text fill="#000000" font-family="sans-serif" font-size="14" lengthAdjust="spacing" textLength="213.165" x="1249.61" y="1008.867">obterCozinheiro(): Funcionario</text><ellipse cx="1240.61" cy="1021.8172" fill="#84BE84" rx="3" ry="3" style="stroke:#038048;stroke-width:1;"/><text fill="#000000" font-family="sans-serif" font-size="14" lengthAdjust="spacing" textLength="194.0928" x="1249.61" y="1025.1639">foiRecomendado(): boolean</text><ellipse cx="1240.61" cy="1038.1141" fill="#84BE84" rx="3" ry="3" style="stroke:#038048;stroke-width:1;"/><text fill="#000000" font-family="sans-serif" font-size="14" lengthAdjust="spacing" textLength="331.5566" x="1249.61" y="1041.4607">definirCozinheiro(cozinheiro: Funcionario): void</text><ellipse cx="1240.61" cy="1054.4109" fill="#84BE84" rx="3" ry="3" style="stroke:#038048;stroke-width:1;"/><text fill="#000000" font-family="sans-serif" font-size="14" lengthAdjust="spacing" textLength="240.9121" x="1249.61" y="1057.7576">marcarComoRecomendado(): void</text></g><!--class Sistema--><g class="entity" data-entity="Sistema" data-source-line="72" data-uid="ent0009" id="entity_Sistema"><rect fill="#F1F1F1" height="276.1563" rx="2.5" ry="2.5" style="stroke:#181818;stroke-width:0.5;" width="503.4629" x="652.27" y="84"/><ellipse cx="871.5566" cy="100" fill="#ADD1B2" rx="11" ry="11" style="stroke:#181818;stroke-width:1;"/><path d="M874.5254,105.6406 Q873.9472,105.9375 873.3066,106.0781 Q872.666,106.2344 871.9629,106.2344 Q869.4629,106.2344 868.1347,104.5938 Q866.8222,102.9375 866.8222,99.8125 Q866.8222,96.6875 868.1347,95.0313 Q869.4629,93.375 871.9629,93.375 Q872.666,93.375 873.3066,93.5313 Q873.9629,93.6875 874.5254,93.9844 L874.5254,96.7031 Q873.9004,96.125 873.3066,95.8594 Q872.7129,95.5781 872.0879,95.5781 Q870.7441,95.5781 870.0566,96.6563 Q869.3691,97.7188 869.3691,99.8125 Q869.3691,101.9063 870.0566,102.9844 Q870.7441,104.0469 872.0879,104.0469 Q872.7129,104.0469 873.3066,103.7813 Q873.9004,103.5 874.5254,102.9219 L874.5254,105.6406 Z " fill="#000000"/><text fill="#000000" font-family="sans-serif" font-size="14" lengthAdjust="spacing" textLength="56.3896" x="892.0566" y="104.8467">Sistema</text><line style="stroke:#181818;stroke-width:0.5;" x1="653.27" x2="1154.7329" y1="116" y2="116"/><rect fill="none" height="6" style="stroke:#C82930;stroke-width:1;" width="6" x="660.27" y="126.6484"/><text fill="#000000" font-family="sans-serif" font-size="14" lengthAdjust="spacing" textLength="176.9688" x="672.27" y="132.9951">restaurante: Restaurante</text><rect fill="none" height="6" style="stroke:#C82930;stroke-width:1;" width="6" x="660.27" y="142.9453"/><text fill="#000000" font-family="sans-serif" font-size="14" lengthAdjust="spacing" textLength="131.8721" x="672.27" y="149.292">diasDecorridos: int</text><rect fill="none" height="6" style="stroke:#C82930;stroke-width:1;" width="6" x="660.27" y="159.2422"/><text fill="#000000" font-family="sans-serif" font-size="14" lengthAdjust="spacing" textLength="270.9629" x="672.27" y="165.5889">demandasItens: Map&lt;String, Integer&gt;</text><rect fill="none" height="6" style="stroke:#C82930;stroke-width:1;" width="6" x="660.27" y="175.5391"/><text fill="#000000" font-family="sans-serif" font-size="14" lengthAdjust="spacing" textLength="248.1445" x="672.27" y="181.8857">vendasItens: Map&lt;String, Integer&gt;</text><rect fill="none" height="6" style="stroke:#C82930;stroke-width:1;" width="6" x="660.27" y="191.8359"/><text fill="#000000" font-family="sans-serif" font-size="14" lengthAdjust="spacing" textLength="298.1699" x="672.27" y="198.1826">avaliacoesTotaisItens: Map&lt;String, Float&gt;</text><rect fill="none" height="6" style="stroke:#C82930;stroke-width:1;" width="6" x="660.27" y="208.1328"/><text fill="#000000" font-family="sans-serif" font-size="14" lengthAdjust="spacing" textLength="326.9014" x="672.27" y="214.4795">numeroAvaliacoesItens: Map&lt;String, Integer&gt;</text><line style="stroke:#181818;stroke-width:0.5;" x1="653.27" x2="1154.7329" y1="221.7813" y2="221.7813"/><ellipse cx="663.27" cy="235.4297" fill="#84BE84" rx="3" ry="3" style="stroke:#038048;stroke-width:1;"/><text fill="#000000" font-family="sans-serif" font-size="14" lengthAdjust="spacing" textLength="244.2822" x="672.27" y="238.7764">Sistema(restaurante: Restaurante)</text><ellipse cx="663.27" cy="251.7266" fill="#84BE84" rx="3" ry="3" style="stroke:#038048;stroke-width:1;"/><text fill="#000000" font-family="sans-serif" font-size="14" lengthAdjust="spacing" textLength="327.4072" x="672.27" y="255.0732">obterAcoesRecomendadas(): ArrayList&lt;Acao&gt;</text><ellipse cx="663.27" cy="268.0234" fill="#84BE84" rx="3" ry="3" style="stroke:#038048;stroke-width:1;"/><text fill="#000000" font-family="sans-serif" font-size="14" lengthAdjust="spacing" textLength="466.0605" x="672.27" y="271.3701">obterFuncionariosComAltoDesempenho(): ArrayList&lt;Funcionario&gt;</text><ellipse cx="663.27" cy="284.3203" fill="#84BE84" rx="3" ry="3" style="stroke:#038048;stroke-width:1;"/><text fill="#000000" font-family="sans-serif" font-size="14" lengthAdjust="spacing" textLength="477.4629" x="672.27" y="287.667">obterFuncionariosComBaixoDesempenho(): ArrayList&lt;Funcionario&gt;</text><ellipse cx="663.27" cy="300.6172" fill="#84BE84" rx="3" ry="3" style="stroke:#038048;stroke-width:1;"/><text fill="#000000" font-family="sans-serif" font-size="14" lengthAdjust="spacing" textLength="388.5615" x="672.27" y="303.9639">obterIngredientesQueFaltam(): ArrayList&lt;Ingrediente&gt;</text><ellipse cx="663.27" cy="316.9141" fill="#84BE84" rx="3" ry="3" style="stroke:#038048;stroke-width:1;"/><text fill="#000000" font-family="sans-serif" font-size="14" lengthAdjust="spacing" textLength="395.8965" x="672.27" y="320.2607">obterIngredientesNecessarios(): ArrayList&lt;Ingrediente&gt;</text><ellipse cx="663.27" cy="333.2109" fill="#84BE84" rx="3" ry="3" style="stroke:#038048;stroke-width:1;"/><text fill="#000000" font-family="sans-serif" font-size="14" lengthAdjust="spacing" textLength="459.2861" x="672.27" y="336.5576">obterAlimentosComPiorDesempenho(): ArrayList&lt;ItemCardapio&gt;</text><ellipse cx="663.27" cy="349.5078" fill="#84BE84" rx="3" ry="3" style="stroke:#038048;stroke-width:1;"/><text fill="#000000" font-family="sans-serif" font-size="14" lengthAdjust="spacing" textLength="124.8857" x="672.27" y="352.8545">simularDia(): void</text></g><!--class Avaliavel--><g class="entity" data-entity="Avaliavel" data-source-line="89" data-uid="ent0010" id="entity_Avaliavel"><rect fill="#F1F1F1" height="145.7813" rx="2.5" ry="2.5" style="stroke:#181818;stroke-width:0.5;" width="262.0518" x="1333.97" y="1396.03"/><ellipse cx="1428.9519" cy="1412.03" fill="#A9DCDF" rx="11" ry="11" style="stroke:#181818;stroke-width:1;"/><path d="M1429.0613,1407.3738 L1427.9051,1412.4519 L1430.2332,1412.4519 L1429.0613,1407.3738 Z M1427.5769,1405.1394 L1430.5613,1405.1394 L1433.9207,1417.53 L1431.4676,1417.53 L1430.7019,1414.4675 L1427.4207,1414.4675 L1426.6707,1417.53 L1424.2332,1417.53 L1427.5769,1405.1394 Z " fill="#000000"/><text fill="#000000" font-family="sans-serif" font-size="14" font-style="italic" lengthAdjust="spacing" textLength="63.5879" x="1449.4519" y="1416.8767">Avaliavel</text><line style="stroke:#181818;stroke-width:0.5;" x1="1334.97" x2="1595.0218" y1="1428.03" y2="1428.03"/><polygon fill="none" points="1344.97,1436.6784,1348.97,1440.6784,1344.97,1444.6784,1340.97,1440.6784" style="stroke:#B38D22;stroke-width:1;"/><text fill="#000000" font-family="sans-serif" font-size="14" lengthAdjust="spacing" textLength="203.6016" x="1353.97" y="1445.0251">avaliacoes: ArrayList&lt;Float&gt;</text><line style="stroke:#181818;stroke-width:0.5;" x1="1334.97" x2="1595.0218" y1="1452.3269" y2="1452.3269"/><ellipse cx="1344.97" cy="1465.9753" fill="#84BE84" rx="3" ry="3" style="stroke:#038048;stroke-width:1;"/><text fill="#000000" font-family="sans-serif" font-size="14" lengthAdjust="spacing" textLength="74.5117" x="1353.97" y="1469.322">Avaliavel()</text><ellipse cx="1344.97" cy="1482.2722" fill="#84BE84" rx="3" ry="3" style="stroke:#038048;stroke-width:1;"/><text fill="#000000" font-family="sans-serif" font-size="14" lengthAdjust="spacing" textLength="156.4951" x="1353.97" y="1485.6189">obterAvaliacao(): float</text><ellipse cx="1344.97" cy="1498.5691" fill="#84BE84" rx="3" ry="3" style="stroke:#038048;stroke-width:1;"/><text fill="#000000" font-family="sans-serif" font-size="14" lengthAdjust="spacing" textLength="204.5381" x="1353.97" y="1501.9157">avaliar(avaliacao: float): void</text><ellipse cx="1344.97" cy="1514.8659" fill="#84BE84" rx="3" ry="3" style="stroke:#038048;stroke-width:1;"/><text fill="#000000" font-family="sans-serif" font-size="14" lengthAdjust="spacing" textLength="236.0518" x="1353.97" y="1518.2126">desempenhoEstaBaixo(): boolean</text><ellipse cx="1344.97" cy="1531.1628" fill="#84BE84" rx="3" ry="3" style="stroke:#038048;stroke-width:1;"/><text fill="#000000" font-family="sans-serif" font-size="14" lengthAdjust="spacing" textLength="224.6494" x="1353.97" y="1534.5095">desempenhoEstaAlto(): boolean</text></g><!--class Cargo--><g class="entity" data-entity="Cargo" data-source-line="98" data-uid="ent0011" id="entity_Cargo"><rect fill="#F1F1F1" height="129.4844" rx="2.5" ry="2.5" style="stroke:#181818;stroke-width:0.5;" width="86.1494" x="1324.93" y="157.33"/><ellipse cx="1345.5941" cy="173.33" fill="#EB937F" rx="11" ry="11" style="stroke:#181818;stroke-width:1;"/><path d="M1349.7035,179.33 L1341.9847,179.33 L1341.9847,166.9394 L1349.7035,166.9394 L1349.7035,169.0956 L1344.4379,169.0956 L1344.4379,171.7675 L1349.2035,171.7675 L1349.2035,173.9237 L1344.4379,173.9237 L1344.4379,177.1737 L1349.7035,177.1737 L1349.7035,179.33 Z " fill="#000000"/><text fill="#000000" font-family="sans-serif" font-size="14" lengthAdjust="spacing" textLength="41.5625" x="1360.8528" y="178.1767">Cargo</text><line style="stroke:#181818;stroke-width:0.5;" x1="1325.93" x2="1410.0794" y1="189.33" y2="189.33"/><text fill="#000000" font-family="sans-serif" font-size="14" lengthAdjust="spacing" textLength="56.8066" x="1330.93" y="206.3251">Gerente</text><text fill="#000000" font-family="sans-serif" font-size="14" lengthAdjust="spacing" textLength="74.1494" x="1330.93" y="222.622">Cozinheiro</text><text fill="#000000" font-family="sans-serif" font-size="14" lengthAdjust="spacing" textLength="39.1084" x="1330.93" y="238.9189">Caixa</text><text fill="#000000" font-family="sans-serif" font-size="14" lengthAdjust="spacing" textLength="73.2061" x="1330.93" y="255.2157">Estoquista</text><text fill="#000000" font-family="sans-serif" font-size="14" lengthAdjust="spacing" textLength="64.5039" x="1330.93" y="271.5126">Faxineiro</text><line style="stroke:#181818;stroke-width:0.5;" x1="1325.93" x2="1410.0794" y1="278.8144" y2="278.8144"/></g><!--class ClasseSocial--><g class="entity" data-entity="ClasseSocial" data-source-line="106" data-uid="ent0012" id="entity_ClasseSocial"><rect fill="#F1F1F1" height="96.8906" rx="2.5" ry="2.5" style="stroke:#181818;stroke-width:0.5;" width="118.9531" x="1513.52" y="173.63"/><ellipse cx="1528.52" cy="189.63" fill="#EB937F" rx="11" ry="11" style="stroke:#181818;stroke-width:1;"/><path d="M1532.6294,195.63 L1524.9106,195.63 L1524.9106,183.2394 L1532.6294,183.2394 L1532.6294,185.3956 L1527.3638,185.3956 L1527.3638,188.0675 L1532.1294,188.0675 L1532.1294,190.2237 L1527.3638,190.2237 L1527.3638,193.4737 L1532.6294,193.4737 L1532.6294,195.63 Z " fill="#000000"/><text fill="#000000" font-family="sans-serif" font-size="14" lengthAdjust="spacing" textLength="86.9531" x="1542.52" y="194.4767">ClasseSocial</text><line style="stroke:#181818;stroke-width:0.5;" x1="1514.52" x2="1631.4731" y1="205.63" y2="205.63"/><text fill="#000000" font-family="sans-serif" font-size="14" lengthAdjust="spacing" textLength="83.6172" x="1519.52" y="222.6251">BaixaRenda</text><text fill="#000000" font-family="sans-serif" font-size="14" lengthAdjust="spacing" textLength="86.7275" x="1519.52" y="238.922">MediaRenda</text><text fill="#000000" font-family="sans-serif" font-size="14" lengthAdjust="spacing" textLength="72.2148" x="1519.52" y="255.2189">AltaRenda</text><line style="stroke:#181818;stroke-width:0.5;" x1="1514.52" x2="1631.4731" y1="262.5206" y2="262.5206"/></g><!--class Funcionario--><g class="entity" data-entity="Funcionario" data-source-line="116" data-uid="ent0015" id="entity_Funcionario"><rect fill="#F1F1F1" height="48" rx="2.5" ry="2.5" style="stroke:#181818;stroke-width:0.5;" width="113.6143" x="1872.19" y="1206.54"/><ellipse cx="1887.19" cy="1222.54" fill="#ADD1B2" rx="11" ry="11" style="stroke:#181818;stroke-width:1;"/><path d="M1890.1588,1228.1806 Q1889.5806,1228.4775 1888.94,1228.6181 Q1888.2994,1228.7744 1887.5963,1228.7744 Q1885.0963,1228.7744 1883.7681,1227.1338 Q1882.4556,1225.4775 1882.4556,1222.3525 Q1882.4556,1219.2275 1883.7681,1217.5713 Q1885.0963,1215.915 1887.5963,1215.915 Q1888.2994,1215.915 1888.94,1216.0713 Q1889.5963,1216.2275 1890.1588,1216.5244 L1890.1588,1219.2431 Q1889.5338,1218.665 1888.94,1218.3994 Q1888.3463,1218.1181 1887.7213,1218.1181 Q1886.3775,1218.1181 1885.69,1219.1963 Q1885.0025,1220.2588 1885.0025,1222.3525 Q1885.0025,1224.4463 1885.69,1225.5244 Q1886.3775,1226.5869 1887.7213,1226.5869 Q1888.3463,1226.5869 1888.94,1226.3213 Q1889.5338,1226.04 1890.1588,1225.4619 L1890.1588,1228.1806 Z " fill="#000000"/><text fill="#000000" font-family="sans-serif" font-size="14" lengthAdjust="spacing" textLength="81.6143" x="1901.19" y="1227.3867">Funcionario</text><line style="stroke:#181818;stroke-width:0.5;" x1="1873.19" x2="1984.8043" y1="1238.54" y2="1238.54"/><line style="stroke:#181818;stroke-width:0.5;" x1="1873.19" x2="1984.8043" y1="1246.54" y2="1246.54"/></g><!--class Alimento--><g class="entity" data-entity="Alimento" data-source-line="119" data-uid="ent0019" id="entity_Alimento"><rect fill="#F1F1F1" height="48" rx="2.5" ry="2.5" style="stroke:#181818;stroke-width:0.5;" width="94.5352" x="1755.73" y="1444.92"/><ellipse cx="1770.73" cy="1460.92" fill="#ADD1B2" rx="11" ry="11" style="stroke:#181818;stroke-width:1;"/><path d="M1773.6988,1466.5606 Q1773.1206,1466.8575 1772.48,1466.9981 Q1771.8394,1467.1544 1771.1363,1467.1544 Q1768.6363,1467.1544 1767.3081,1465.5138 Q1765.9956,1463.8575 1765.9956,1460.7325 Q1765.9956,1457.6075 1767.3081,1455.9513 Q1768.6363,1454.295 1771.1363,1454.295 Q1771.8394,1454.295 1772.48,1454.4513 Q1773.1363,1454.6075 1773.6988,1454.9044 L1773.6988,1457.6231 Q1773.0738,1457.045 1772.48,1456.7794 Q1771.8863,1456.4981 1771.2613,1456.4981 Q1769.9175,1456.4981 1769.23,1457.5763 Q1768.5425,1458.6388 1768.5425,1460.7325 Q1768.5425,1462.8263 1769.23,1463.9044 Q1769.9175,1464.9669 1771.2613,1464.9669 Q1771.8863,1464.9669 1772.48,1464.7013 Q1773.0738,1464.42 1773.6988,1463.8419 L1773.6988,1466.5606 Z " fill="#000000"/><text fill="#000000" font-family="sans-serif" font-size="14" lengthAdjust="spacing" textLength="62.5352" x="1784.73" y="1465.7667">Alimento</text><line style="stroke:#181818;stroke-width:0.5;" x1="1756.73" x2="1849.2652" y1="1476.92" y2="1476.92"/><line style="stroke:#181818;stroke-width:0.5;" x1="1756.73" x2="1849.2652" y1="1484.92" y2="1484.92"/></g><!--class Cliente--><g class="entity" data-entity="Cliente" data-source-line="121" data-uid="ent0022" id="entity_Cliente"><rect fill="#F1F1F1" height="48" rx="2.5" ry="2.5" style="stroke:#181818;stroke-width:0.5;" width="81.1436" x="1756.43" y="1206.54"/><ellipse cx="1771.43" cy="1222.54" fill="#ADD1B2" rx="11" ry="11" style="stroke:#181818;stroke-width:1;"/><path d="M1774.3988,1228.1806 Q1773.8206,1228.4775 1773.18,1228.6181 Q1772.5394,1228.7744 1771.8363,1228.7744 Q1769.3363,1228.7744 1768.0081,1227.1338 Q1766.6956,1225.4775 1766.6956,1222.3525 Q1766.6956,1219.2275 1768.0081,1217.5713 Q1769.3363,1215.915 1771.8363,1215.915 Q1772.5394,1215.915 1773.18,1216.0713 Q1773.8363,1216.2275 1774.3988,1216.5244 L1774.3988,1219.2431 Q1773.7738,1218.665 1773.18,1218.3994 Q1772.5863,1218.1181 1771.9613,1218.1181 Q1770.6175,1218.1181 1769.93,1219.1963 Q1769.2425,1220.2588 1769.2425,1222.3525 Q1769.2425,1224.4463 1769.93,1225.5244 Q1770.6175,1226.5869 1771.9613,1226.5869 Q1772.5863,1226.5869 1773.18,1226.3213 Q1773.7738,1226.04 1774.3988,1225.4619 L1774.3988,1228.1806 Z " fill="#000000"/><text fill="#000000" font-family="sans-serif" font-size="14" lengthAdjust="spacing" textLength="49.1436" x="1785.43" y="1227.3867">Cliente</text><line style="stroke:#181818;stroke-width:0.5;" x1="1757.43" x2="1836.5736" y1="1238.54" y2="1238.54"/><line style="stroke:#181818;stroke-width:0.5;" x1="1757.43" x2="1836.5736" y1="1246.54" y2="1246.54"/></g><!--reverse link Restaurante to Cardapio--><g class="link" data-entity-1="Restaurante" data-entity-2="Cardapio" data-source-line="114" data-uid="lnk13" id="link_Restaurante_Cardapio"><path codeLine="114" d="M628.4134,746.8224 C562.4234,785.8824 504.71,820.05 447.91,853.67" fill="none" id="Restaurante-backto-Cardapio" style="stroke:#181818;stroke-width:1;"/><polygon fill="none" points="638.74,740.71,631.5392,740.324,628.4134,746.8224,635.6142,747.2084,638.74,740.71" style="stroke:#181818;stroke-width:1;"/></g><!--reverse link Restaurante to Estoque--><g class="link" data-entity-1="Restaurante" data-entity-2="Estoque" data-source-line="115" data-uid="lnk14" id="link_Restaurante_Estoque"><path codeLine="115" d="M904,757.57 C904,798.28 904,827.96 904,861.74" fill="none" id="Restaurante-backto-Estoque" style="stroke:#181818;stroke-width:1;"/><polygon fill="none" points="904,745.57,900,751.57,904,757.57,908,751.57,904,745.57" style="stroke:#181818;stroke-width:1;"/></g><!--reverse link Restaurante to Funcionario--><g class="link" data-entity-1="Restaurante" data-entity-2="Funcionario" data-source-line="116" data-uid="lnk16" id="link_Restaurante_Funcionario"><path codeLine="116" d="M1181.4126,602.092 C1354.2326,625.372 1563.5,678.33 1718,805.2 C1852.8,915.9 1909.04,1134.26 1924.39,1206.06" fill="none" id="Restaurante-backto-Funcionario" style="stroke:#181818;stroke-width:1;"/><polygon fill="none" points="1169.52,600.49,1174.9323,605.2552,1181.4126,602.092,1176.0003,597.3268,1169.52,600.49" style="stroke:#181818;stroke-width:1;"/><text fill="#000000" font-family="sans-serif" font-size="13" lengthAdjust="spacing" textLength="23.0356" x="1897.4682" y="1195.348">0..*</text></g><!--reverse link Cardapio to ItemCardapio--><g class="link" data-entity-1="Cardapio" data-entity-2="ItemCardapio" data-source-line="117" data-uid="lnk17" id="link_Cardapio_ItemCardapio"><path codeLine="117" d="M481.9258,1021.5583 C521.6958,1039.4283 553.83,1052 595,1065.06 C829.07,1139.31 1109.79,1184.94 1287.79,1208.76" fill="none" id="Cardapio-backto-ItemCardapio" style="stroke:#181818;stroke-width:1;"/><polygon fill="none" points="470.98,1016.64,474.8135,1022.7478,481.9258,1021.5583,478.0923,1015.4506,470.98,1016.64" style="stroke:#181818;stroke-width:1;"/><text fill="#000000" font-family="sans-serif" font-size="13" lengthAdjust="spacing" textLength="23.0356" x="1256.8294" y="1204.5943">0..*</text></g><!--link ItemCardapio to Avaliavel--><g class="link" data-entity-1="ItemCardapio" data-entity-2="Avaliavel" data-source-line="118" data-uid="lnk18" id="link_ItemCardapio_Avaliavel"><path codeLine="118" d="M1465,1336.25 C1465,1356.38 1465,1359.04 1465,1377.85" fill="none" id="ItemCardapio-to-Avaliavel" style="stroke:#181818;stroke-width:1;"/><polygon fill="none" points="1465,1395.85,1471,1377.85,1459,1377.85,1465,1395.85" style="stroke:#181818;stroke-width:1;"/></g><!--reverse link ItemCardapio to Alimento--><g class="link" data-entity-1="ItemCardapio" data-entity-2="Alimento" data-source-line="119" data-uid="lnk20" id="link_ItemCardapio_Alimento"><path codeLine="119" d="M1640.7929,1343.164 C1669.5729,1362.424 1688.95,1376.09 1716,1396.03 C1736.82,1411.38 1759.3,1430.01 1776.19,1444.46" fill="none" id="ItemCardapio-backto-Alimento" style="stroke:#181818;stroke-width:1;"/><polygon fill="none" points="1630.82,1336.49,1633.5818,1343.1513,1640.7929,1343.164,1638.0311,1336.5027,1630.82,1336.49" style="stroke:#181818;stroke-width:1;"/></g><!--reverse link Sistema to Restaurante--><g class="link" data-entity-1="Sistema" data-entity-2="Restaurante" data-source-line="120" data-uid="lnk21" id="link_Sistema_Restaurante"><path codeLine="120" d="M904,372.44 C904,391.9 904,400.07 904,419.94" fill="none" id="Sistema-backto-Restaurante" style="stroke:#181818;stroke-width:1;"/><polygon fill="none" points="904,360.44,900,366.44,904,372.44,908,366.44,904,360.44" style="stroke:#181818;stroke-width:1;"/></g><!--reverse link Pedido to Cliente--><g class="link" data-entity-1="Pedido" data-entity-2="Cliente" data-source-line="121" data-uid="lnk23" id="link_Pedido_Cliente"><path codeLine="121" d="M1657.9974,1072.8744 C1681.4674,1091.9744 1695.22,1104.57 1716,1125.06 C1741.66,1150.36 1766.31,1183.92 1781.54,1206.1" fill="none" id="Pedido-backto-Cliente" style="stroke:#181818;stroke-width:1;"/><polygon fill="none" points="1648.69,1065.3,1650.8189,1072.1897,1657.9974,1072.8744,1655.8685,1065.9847,1648.69,1065.3" style="stroke:#181818;stroke-width:1;"/></g><!--reverse link Pedido to ItemCardapio--><g class="link" data-entity-1="Pedido" data-entity-2="ItemCardapio" data-source-line="122" data-uid="lnk24" id="link_Pedido_ItemCardapio"><path codeLine="122" d="M1465,1077.25 C1465,1097.09 1465,1105.36 1465,1124.58" fill="none" id="Pedido-backto-ItemCardapio" style="stroke:#181818;stroke-width:1;"/><polygon fill="none" points="1465,1065.25,1461,1071.25,1465,1077.25,1469,1071.25,1465,1065.25" style="stroke:#181818;stroke-width:1;"/></g><!--reverse link Pedido to Funcionario--><g class="link" data-entity-1="Pedido" data-entity-2="Funcionario" data-source-line="123" data-uid="lnk25" id="link_Pedido_Funcionario"><path codeLine="123" d="M1711.4367,1032.0694 C1765.3667,1058.9894 1809.43,1086.46 1855,1125.06 C1882.14,1148.05 1904.26,1183.12 1917.03,1206.18" fill="none" id="Pedido-backto-Funcionario" style="stroke:#181818;stroke-width:1;"/><polygon fill="none" points="1700.7,1026.71,1704.2819,1032.9686,1711.4367,1032.0694,1707.8548,1025.8108,1700.7,1026.71" style="stroke:#181818;stroke-width:1;"/></g><!--SRC=[hLTTRXit47xNAGZt8QlQCl8i10PKEGu298PgzmAZtP52P7Ufa5mXJflpz0GzGIxMuP9Splx8Seg-24lEpCVvdv7vBEi3QAZ4kWHZLjPgkMqilizL_MYVIXJ6eaPbdmuucnqW_mnx51SQZOL6GstnEbSQByIVCo5o1o4U4gsz5M8XSj057AHQYdNu2WJYLLyQN8gt_YDS5xB-X5AhUxLMEqtaNQd01kAkgNEfQj1IcQLOQGrF7wInR-xI_KtBUibroURXBeS2ZDMW6N_6C9U24UPBSLIo2A85LjBA_o1uqAfIHtoHv9MerL6Hd_RUNVi1biOjoA_mls2fBKNtjk_iRCxTVIcWa1vko7U4Kkd0ErInjVQCm5Qf4g5EBihH6D0Rs4E5jLMUduvgyf5MTsQhSOe_cmrE8kQVO-xbOW0CUUZ8F2N7pssKlbSLPZNzBCKZrKszd_USJuBVPrrPnCUwcf0Mgrx-lgUBo1LLJkgEee66QfIyv72MWWjVYGFgd5pOG1dP9btOWJdfUzKz1gLi8q3QXI-2r9Z_7CfOiOa0Eh9XGlDp7abIRyrUMIWeyCCkyYm8YmadTN4P6ny8t0D16GvmtclSWiZI6ipV2VID4noMOe4xMSj0EnsG5g1DpddCJ4vPD-IbMzneLJGvZ1vfUJuqkHvH3axYcpnYEUNnLCxCmu6SahxUQomaMOlzt4_tCT1T9SRNbJ6DP8mcusZtwDl7O2Xmu57FyRd44UTdb0gTxQGM3vx-Z0QJXPDOE1eLJpeaKURU3H6BbBfv6UJM_eDrcduXTcEP1icmPxK4zItqxYdgJia7oZtAsOBAR-XKhrCsrELAJ3MgiGQzAWcoRRDc9h4ku4WZowAq0y_cOnCYlRDocgblPpPAdr2E3EQ4t_fXhq3JFhIcZM20tiLNY2x2ZvH2M44NOhPvBVbwqorEO6u9LMkA0HM2hEFMHBiBq4k6d5KJuICStlZMS4LPPd6F-YPm7l5bV43pMKAkqFn1VLXEITovxX7vwwP2hLQTrBaNBgFnsIcZ-ntLOIQFmg2OLzJgRawj3XICLUcQei7gWFKdzQ9TOWZn6-NRJsFmLl9xWtTGMgZEzg6HA6j_BnEEGySflf5Adz9xQWORMJMbMmXXdBQmTSjrRaF- -d3Jo0WP_0jBcvvxKgPS9g6i7s4lEHvP7b9d41acnsBHMKYZ1TfWJTKqPt99aGrcMsibKZBxXJhOzOx-9SKoJ0t17rqRQh_yI2Dp_V4EliewiBLDtQCwl-6ZoYL4fpbTuS6bTNlyIF5aHrAoEtsV4T0hgf4IVlpzunyqC_vtJ2qMQUaT4kAwExo_U7rz_Uj5hprsEnEZzvfmRx5QBFwwII7jqnn0j_x4NkSkUMiBKwxLFam1TjLxcDqpXVy5]--></g></svg>