<svg xmlns="http://www.w3.org/2000/svg" xmlns:xlink="http://www.w3.org/1999/xlink" contentStyleType="text/css" data-diagram-type="CLASS" height="824px" preserveAspectRatio="none" style="width:1098px;height:824px;background:#FFFFFF;" version="1.1" viewBox="0 0 1098 824" width="1098px" zoomAndPan="magnify"><defs/><g><!--cluster restaurante--><g class="cluster" data-entity="restaurante" data-source-line="4" data-uid="ent0004" id="cluster_restaurante"><path d="M8.5,6 L102.8447,6 A3.75,3.75 0 0 1 105.3447,8.5 L112.3447,28.2969 L1088.5,28.2969 A2.5,2.5 0 0 1 1091,30.7969 L1091,815.3 A2.5,2.5 0 0 1 1088.5,817.8 L8.5,817.8 A2.5,2.5 0 0 1 6,815.3 L6,8.5 A2.5,2.5 0 0 1 8.5,6" fill="none" style="stroke:#000000;stroke-width:1.5;"/><line style="stroke:#000000;stroke-width:1.5;" x1="6" x2="112.3447" y1="28.2969" y2="28.2969"/><text fill="#000000" font-family="sans-serif" font-size="14" font-weight="bold" lengthAdjust="spacing" textLength="93.3447" x="10" y="20.9951">restaurante</text></g><!--cluster pessoa--><g class="cluster" data-entity="pessoa" data-source-line="3" data-uid="ent0002" id="cluster_pessoa"><path d="M32.5,49 L88.748,49 A3.75,3.75 0 0 1 91.248,51.5 L98.248,71.2969 L1064.5,71.2969 A2.5,2.5 0 0 1 1067,73.7969 L1067,791.3 A2.5,2.5 0 0 1 1064.5,793.8 L32.5,793.8 A2.5,2.5 0 0 1 30,791.3 L30,51.5 A2.5,2.5 0 0 1 32.5,49" fill="none" style="stroke:#000000;stroke-width:1.5;"/><line style="stroke:#000000;stroke-width:1.5;" x1="30" x2="98.248" y1="71.2969" y2="71.2969"/><text fill="#000000" font-family="sans-serif" font-size="14" font-weight="bold" lengthAdjust="spacing" textLength="55.248" x="34" y="63.9951">pessoa</text></g><!--class Pessoa--><g class="entity" data-entity="Pessoa" data-source-line="4" data-uid="ent0003" id="entity_Pessoa"><rect fill="#F1F1F1" height="80.5938" rx="2.5" ry="2.5" style="stroke:#181818;stroke-width:0.5;" width="166.4717" x="576.76" y="697.21"/><ellipse cx="631.3518" cy="713.21" fill="#B4A7E5" rx="11" ry="11" style="stroke:#181818;stroke-width:1;"/><path d="M627.2737,708.9756 L627.2737,706.8194 L634.6643,706.8194 L634.6643,708.9756 L632.1955,708.9756 L632.1955,717.0537 L634.6643,717.0537 L634.6643,719.21 L627.2737,719.21 L627.2737,717.0537 L629.7424,717.0537 L629.7424,708.9756 L627.2737,708.9756 Z " fill="#000000"/><text fill="#000000" font-family="sans-serif" font-size="14" font-style="italic" lengthAdjust="spacing" textLength="48.7881" x="651.8518" y="718.0567">Pessoa</text><line style="stroke:#181818;stroke-width:0.5;" x1="577.76" x2="742.2317" y1="729.21" y2="729.21"/><line style="stroke:#181818;stroke-width:0.5;" x1="577.76" x2="742.2317" y1="737.21" y2="737.21"/><ellipse cx="587.76" cy="750.8584" fill="#84BE84" rx="3" ry="3" style="stroke:#038048;stroke-width:1;"/><text fill="#000000" font-family="sans-serif" font-size="14" lengthAdjust="spacing" textLength="140.4717" x="596.76" y="754.2051">obterNome(): String</text><ellipse cx="587.76" cy="767.1553" fill="#84BE84" rx="3" ry="3" style="stroke:#038048;stroke-width:1;"/><text fill="#000000" font-family="sans-serif" font-size="14" lengthAdjust="spacing" textLength="114.748" x="596.76" y="770.502">obterIdade(): int</text></g><!--class Cliente--><g class="entity" data-entity="Cliente" data-source-line="9" data-uid="ent0005" id="entity_Cliente"><rect fill="#F1F1F1" height="553.2031" rx="2.5" ry="2.5" style="stroke:#181818;stroke-width:0.5;" width="548.6416" x="45.68" y="84"/><ellipse cx="291.179" cy="100" fill="#ADD1B2" rx="11" ry="11" style="stroke:#181818;stroke-width:1;"/><path d="M294.1478,105.6406 Q293.5696,105.9375 292.929,106.0781 Q292.2884,106.2344 291.5853,106.2344 Q289.0853,106.2344 287.7571,104.5938 Q286.4446,102.9375 286.4446,99.8125 Q286.4446,96.6875 287.7571,95.0313 Q289.0853,93.375 291.5853,93.375 Q292.2884,93.375 292.929,93.5313 Q293.5853,93.6875 294.1478,93.9844 L294.1478,96.7031 Q293.5228,96.125 292.929,95.8594 Q292.3353,95.5781 291.7103,95.5781 Q290.3665,95.5781 289.679,96.6563 Q288.9915,97.7188 288.9915,99.8125 Q288.9915,101.9063 289.679,102.9844 Q290.3665,104.0469 291.7103,104.0469 Q292.3353,104.0469 292.929,103.7813 Q293.5228,103.5 294.1478,102.9219 L294.1478,105.6406 Z " fill="#000000"/><text fill="#000000" font-family="sans-serif" font-size="14" lengthAdjust="spacing" textLength="49.1436" x="311.679" y="104.8467">Cliente</text><line style="stroke:#181818;stroke-width:0.5;" x1="46.68" x2="593.3216" y1="116" y2="116"/><rect fill="none" height="6" style="stroke:#C82930;stroke-width:1;" width="6" x="53.68" y="126.6484"/><text fill="#000000" font-family="sans-serif" font-size="14" lengthAdjust="spacing" textLength="90.6377" x="65.68" y="132.9951">nome: String</text><rect fill="none" height="6" style="stroke:#C82930;stroke-width:1;" width="6" x="53.68" y="142.9453"/><text fill="#000000" font-family="sans-serif" font-size="14" lengthAdjust="spacing" textLength="66.2744" x="65.68" y="149.292">idade: int</text><rect fill="none" height="6" style="stroke:#C82930;stroke-width:1;" width="6" x="53.68" y="159.2422"/><text fill="#000000" font-family="sans-serif" font-size="14" lengthAdjust="spacing" textLength="97.9658" x="65.68" y="165.5889">dinheiro: float</text><rect fill="none" height="6" style="stroke:#C82930;stroke-width:1;" width="6" x="53.68" y="175.5391"/><text fill="#000000" font-family="sans-serif" font-size="14" lengthAdjust="spacing" textLength="180.9951" x="65.68" y="181.8857">classeSocial: ClasseSocial</text><rect fill="none" height="6" style="stroke:#C82930;stroke-width:1;" width="6" x="53.68" y="191.8359"/><text fill="#000000" font-family="sans-serif" font-size="14" lengthAdjust="spacing" textLength="332.6367" x="65.68" y="198.1826">ingredientesQueGosta: ArrayList&lt;Ingrediente&gt;</text><rect fill="none" height="6" style="stroke:#C82930;stroke-width:1;" width="6" x="53.68" y="208.1328"/><text fill="#000000" font-family="sans-serif" font-size="14" lengthAdjust="spacing" textLength="357.3623" x="65.68" y="214.4795">ingredientesQueDesgosta: ArrayList&lt;Ingrediente&gt;</text><rect fill="none" height="6" style="stroke:#C82930;stroke-width:1;" width="6" x="53.68" y="224.4297"/><text fill="#000000" font-family="sans-serif" font-size="14" lengthAdjust="spacing" textLength="295.7021" x="65.68" y="230.7764">alimentosQueGosta: ArrayList&lt;Alimento&gt;</text><rect fill="none" height="6" style="stroke:#C82930;stroke-width:1;" width="6" x="53.68" y="240.7266"/><text fill="#000000" font-family="sans-serif" font-size="14" lengthAdjust="spacing" textLength="320.4277" x="65.68" y="247.0732">alimentosQueDesgosta: ArrayList&lt;Alimento&gt;</text><line style="stroke:#181818;stroke-width:0.5;" x1="46.68" x2="593.3216" y1="254.375" y2="254.375"/><ellipse cx="56.68" cy="268.0234" fill="#84BE84" rx="3" ry="3" style="stroke:#038048;stroke-width:1;"/><text fill="#000000" font-family="sans-serif" font-size="14" lengthAdjust="spacing" textLength="225.8799" x="65.68" y="271.3701">Cliente(nome: String, idade: int)</text><ellipse cx="56.68" cy="284.3203" fill="#84BE84" rx="3" ry="3" style="stroke:#038048;stroke-width:1;"/><text fill="#000000" font-family="sans-serif" font-size="14" lengthAdjust="spacing" textLength="522.6416" x="65.68" y="287.667">Cliente(nome: String, idade: int, classeSocial: ClasseSocial, dinheiro: float)</text><ellipse cx="56.68" cy="300.6172" fill="#84BE84" rx="3" ry="3" style="stroke:#038048;stroke-width:1;"/><text fill="#000000" font-family="sans-serif" font-size="14" lengthAdjust="spacing" textLength="140.4717" x="65.68" y="303.9639">obterNome(): String</text><ellipse cx="56.68" cy="316.9141" fill="#84BE84" rx="3" ry="3" style="stroke:#038048;stroke-width:1;"/><text fill="#000000" font-family="sans-serif" font-size="14" lengthAdjust="spacing" textLength="114.748" x="65.68" y="320.2607">obterIdade(): int</text><ellipse cx="56.68" cy="333.2109" fill="#84BE84" rx="3" ry="3" style="stroke:#038048;stroke-width:1;"/><text fill="#000000" font-family="sans-serif" font-size="14" lengthAdjust="spacing" textLength="231.3076" x="65.68" y="336.5576">obterClasseSocial(): ClasseSocial</text><ellipse cx="56.68" cy="349.5078" fill="#84BE84" rx="3" ry="3" style="stroke:#038048;stroke-width:1;"/><text fill="#000000" font-family="sans-serif" font-size="14" lengthAdjust="spacing" textLength="148.0938" x="65.68" y="352.8545">obterDinheiro(): float</text><ellipse cx="56.68" cy="365.8047" fill="#84BE84" rx="3" ry="3" style="stroke:#038048;stroke-width:1;"/><text fill="#000000" font-family="sans-serif" font-size="14" lengthAdjust="spacing" textLength="255.8008" x="65.68" y="369.1514">possuiDinheiro(valor: float): boolean</text><ellipse cx="56.68" cy="382.1016" fill="#84BE84" rx="3" ry="3" style="stroke:#038048;stroke-width:1;"/><text fill="#000000" font-family="sans-serif" font-size="14" lengthAdjust="spacing" textLength="291.7988" x="65.68" y="385.4482">vaiDesistirPorPreco(preco: float): boolean</text><ellipse cx="56.68" cy="398.3984" fill="#84BE84" rx="3" ry="3" style="stroke:#038048;stroke-width:1;"/><text fill="#000000" font-family="sans-serif" font-size="14" lengthAdjust="spacing" textLength="192.4453" x="65.68" y="401.7451">pagar(valor: float): boolean</text><ellipse cx="56.68" cy="414.6953" fill="#84BE84" rx="3" ry="3" style="stroke:#038048;stroke-width:1;"/><text fill="#000000" font-family="sans-serif" font-size="14" lengthAdjust="spacing" textLength="249.3682" x="65.68" y="418.042">adicionarDinheiro(valor: float): void</text><ellipse cx="56.68" cy="430.9922" fill="#84BE84" rx="3" ry="3" style="stroke:#038048;stroke-width:1;"/><text fill="#000000" font-family="sans-serif" font-size="14" lengthAdjust="spacing" textLength="434.5127" x="65.68" y="434.3389">adicionarIngredienteQueGosta(ingrediente: Ingrediente): void</text><ellipse cx="56.68" cy="447.2891" fill="#84BE84" rx="3" ry="3" style="stroke:#038048;stroke-width:1;"/><text fill="#000000" font-family="sans-serif" font-size="14" lengthAdjust="spacing" textLength="459.2383" x="65.68" y="450.6357">adicionarIngredienteQueDesgosta(ingrediente: Ingrediente): void</text><ellipse cx="56.68" cy="463.5859" fill="#84BE84" rx="3" ry="3" style="stroke:#038048;stroke-width:1;"/><text fill="#000000" font-family="sans-serif" font-size="14" lengthAdjust="spacing" textLength="381.1104" x="65.68" y="466.9326">obterIngredientesQueGosta(): ArrayList&lt;Ingrediente&gt;</text><ellipse cx="56.68" cy="479.8828" fill="#84BE84" rx="3" ry="3" style="stroke:#038048;stroke-width:1;"/><text fill="#000000" font-family="sans-serif" font-size="14" lengthAdjust="spacing" textLength="405.8359" x="65.68" y="483.2295">obterIngredientesQueDesgosta(): ArrayList&lt;Ingrediente&gt;</text><ellipse cx="56.68" cy="496.1797" fill="#84BE84" rx="3" ry="3" style="stroke:#038048;stroke-width:1;"/><text fill="#000000" font-family="sans-serif" font-size="14" lengthAdjust="spacing" textLength="379.4902" x="65.68" y="499.5264">adicionarAlimentoQueGosta(alimento: Alimento): void</text><ellipse cx="56.68" cy="512.4766" fill="#84BE84" rx="3" ry="3" style="stroke:#038048;stroke-width:1;"/><text fill="#000000" font-family="sans-serif" font-size="14" lengthAdjust="spacing" textLength="404.2158" x="65.68" y="515.8232">adicionarAlimentoQueDesgosta(alimento: Alimento): void</text><ellipse cx="56.68" cy="528.7734" fill="#84BE84" rx="3" ry="3" style="stroke:#038048;stroke-width:1;"/><text fill="#000000" font-family="sans-serif" font-size="14" lengthAdjust="spacing" textLength="344.9346" x="65.68" y="532.1201">obterAlimentosQueGosta(): ArrayList&lt;Alimento&gt;</text><ellipse cx="56.68" cy="545.0703" fill="#84BE84" rx="3" ry="3" style="stroke:#038048;stroke-width:1;"/><text fill="#000000" font-family="sans-serif" font-size="14" lengthAdjust="spacing" textLength="369.6602" x="65.68" y="548.417">obterAlimentosQueDesgosta(): ArrayList&lt;Alimento&gt;</text><ellipse cx="56.68" cy="561.3672" fill="#84BE84" rx="3" ry="3" style="stroke:#038048;stroke-width:1;"/><text fill="#000000" font-family="sans-serif" font-size="14" lengthAdjust="spacing" textLength="379.0801" x="65.68" y="564.7139">calcularRatingParaAlimento(alimento: Alimento): float</text><ellipse cx="56.68" cy="577.6641" fill="#84BE84" rx="3" ry="3" style="stroke:#038048;stroke-width:1;"/><text fill="#000000" font-family="sans-serif" font-size="14" lengthAdjust="spacing" textLength="385.0205" x="65.68" y="581.0107">gostaDoIngrediente(ingrediente: Ingrediente): boolean</text><ellipse cx="56.68" cy="593.9609" fill="#84BE84" rx="3" ry="3" style="stroke:#038048;stroke-width:1;"/><text fill="#000000" font-family="sans-serif" font-size="14" lengthAdjust="spacing" textLength="409.8145" x="65.68" y="597.3076">desgostaDoIngrediente(ingrediente: Ingrediente): boolean</text><ellipse cx="56.68" cy="610.2578" fill="#84BE84" rx="3" ry="3" style="stroke:#038048;stroke-width:1;"/><text fill="#000000" font-family="sans-serif" font-size="14" lengthAdjust="spacing" textLength="329.998" x="65.68" y="613.6045">gostaDoAlimento(alimento: Alimento): boolean</text><ellipse cx="56.68" cy="626.5547" fill="#84BE84" rx="3" ry="3" style="stroke:#038048;stroke-width:1;"/><text fill="#000000" font-family="sans-serif" font-size="14" lengthAdjust="spacing" textLength="354.792" x="65.68" y="629.9014">desgostaDoAlimento(alimento: Alimento): boolean</text></g><!--class Funcionario--><g class="entity" data-entity="Funcionario" data-source-line="43" data-uid="ent0006" id="entity_Funcionario"><rect fill="#F1F1F1" height="210.9688" rx="2.5" ry="2.5" style="stroke:#181818;stroke-width:0.5;" width="421.3154" x="629.34" y="255.12"/><ellipse cx="794.9406" cy="271.12" fill="#ADD1B2" rx="11" ry="11" style="stroke:#181818;stroke-width:1;"/><path d="M797.9093,276.7606 Q797.3312,277.0575 796.6906,277.1981 Q796.05,277.3544 795.3468,277.3544 Q792.8468,277.3544 791.5187,275.7138 Q790.2062,274.0575 790.2062,270.9325 Q790.2062,267.8075 791.5187,266.1513 Q792.8468,264.495 795.3468,264.495 Q796.05,264.495 796.6906,264.6513 Q797.3468,264.8075 797.9093,265.1044 L797.9093,267.8231 Q797.2843,267.245 796.6906,266.9794 Q796.0968,266.6981 795.4718,266.6981 Q794.1281,266.6981 793.4406,267.7763 Q792.7531,268.8388 792.7531,270.9325 Q792.7531,273.0263 793.4406,274.1044 Q794.1281,275.1669 795.4718,275.1669 Q796.0968,275.1669 796.6906,274.9013 Q797.2843,274.62 797.9093,274.0419 L797.9093,276.7606 Z " fill="#000000"/><text fill="#000000" font-family="sans-serif" font-size="14" lengthAdjust="spacing" textLength="81.6143" x="815.4406" y="275.9667">Funcionario</text><line style="stroke:#181818;stroke-width:0.5;" x1="630.34" x2="1049.6554" y1="287.12" y2="287.12"/><rect fill="none" height="6" style="stroke:#C82930;stroke-width:1;" width="6" x="637.34" y="297.7684"/><text fill="#000000" font-family="sans-serif" font-size="14" lengthAdjust="spacing" textLength="90.6377" x="649.34" y="304.1151">nome: String</text><rect fill="none" height="6" style="stroke:#C82930;stroke-width:1;" width="6" x="637.34" y="314.0653"/><text fill="#000000" font-family="sans-serif" font-size="14" lengthAdjust="spacing" textLength="66.2744" x="649.34" y="320.412">idade: int</text><rect fill="none" height="6" style="stroke:#C82930;stroke-width:1;" width="6" x="637.34" y="330.3622"/><text fill="#000000" font-family="sans-serif" font-size="14" lengthAdjust="spacing" textLength="90.2139" x="649.34" y="336.7089">cargo: Cargo</text><line style="stroke:#181818;stroke-width:0.5;" x1="630.34" x2="1049.6554" y1="344.0106" y2="344.0106"/><ellipse cx="640.34" cy="357.6591" fill="#84BE84" rx="3" ry="3" style="stroke:#038048;stroke-width:1;"/><text fill="#000000" font-family="sans-serif" font-size="14" lengthAdjust="spacing" textLength="357.4648" x="649.34" y="361.0057">Funcionario(nome: String, idade: int, cargo: Cargo)</text><ellipse cx="640.34" cy="373.9559" fill="#84BE84" rx="3" ry="3" style="stroke:#038048;stroke-width:1;"/><text fill="#000000" font-family="sans-serif" font-size="14" lengthAdjust="spacing" textLength="140.4717" x="649.34" y="377.3026">obterNome(): String</text><ellipse cx="640.34" cy="390.2528" fill="#84BE84" rx="3" ry="3" style="stroke:#038048;stroke-width:1;"/><text fill="#000000" font-family="sans-serif" font-size="14" lengthAdjust="spacing" textLength="114.748" x="649.34" y="393.5995">obterIdade(): int</text><ellipse cx="640.34" cy="406.5497" fill="#84BE84" rx="3" ry="3" style="stroke:#038048;stroke-width:1;"/><text fill="#000000" font-family="sans-serif" font-size="14" lengthAdjust="spacing" textLength="140.5264" x="649.34" y="409.8964">obterCargo(): Cargo</text><ellipse cx="640.34" cy="422.8466" fill="#84BE84" rx="3" ry="3" style="stroke:#038048;stroke-width:1;"/><text fill="#000000" font-family="sans-serif" font-size="14" lengthAdjust="spacing" textLength="262.6982" x="649.34" y="426.1932">definirCargo(novoCargo: Cargo): void</text><ellipse cx="640.34" cy="439.1434" fill="#84BE84" rx="3" ry="3" style="stroke:#038048;stroke-width:1;"/><text fill="#000000" font-family="sans-serif" font-size="14" lengthAdjust="spacing" textLength="228.8877" x="649.34" y="442.4901">restaurarAvaliacaoParcial(): void</text><ellipse cx="640.34" cy="455.4403" fill="#84BE84" rx="3" ry="3" style="stroke:#038048;stroke-width:1;"/><text fill="#000000" font-family="sans-serif" font-size="14" lengthAdjust="spacing" textLength="395.3154" x="649.34" y="458.787">recomendarAlimento(cardapio: Cardapio): ItemCardapio</text></g><!--class Avaliavel--><g class="entity" data-entity="Avaliavel" data-source-line="59" data-uid="ent0009" id="entity_Avaliavel"><rect fill="#F1F1F1" height="48" rx="2.5" ry="2.5" style="stroke:#181818;stroke-width:0.5;" width="95.5879" x="785.21" y="713.5"/><ellipse cx="800.21" cy="729.5" fill="#ADD1B2" rx="11" ry="11" style="stroke:#181818;stroke-width:1;"/><path d="M803.1788,735.1406 Q802.6006,735.4375 801.96,735.5781 Q801.3194,735.7344 800.6163,735.7344 Q798.1163,735.7344 796.7881,734.0938 Q795.4756,732.4375 795.4756,729.3125 Q795.4756,726.1875 796.7881,724.5313 Q798.1163,722.875 800.6163,722.875 Q801.3194,722.875 801.96,723.0313 Q802.6163,723.1875 803.1788,723.4844 L803.1788,726.2031 Q802.5538,725.625 801.96,725.3594 Q801.3663,725.0781 800.7413,725.0781 Q799.3975,725.0781 798.71,726.1563 Q798.0225,727.2188 798.0225,729.3125 Q798.0225,731.4063 798.71,732.4844 Q799.3975,733.5469 800.7413,733.5469 Q801.3663,733.5469 801.96,733.2813 Q802.5538,733 803.1788,732.4219 L803.1788,735.1406 Z " fill="#000000"/><text fill="#000000" font-family="sans-serif" font-size="14" lengthAdjust="spacing" textLength="63.5879" x="814.21" y="734.3467">Avaliavel</text><line style="stroke:#181818;stroke-width:0.5;" x1="786.21" x2="879.7979" y1="745.5" y2="745.5"/><line style="stroke:#181818;stroke-width:0.5;" x1="786.21" x2="879.7979" y1="753.5" y2="753.5"/></g><!--class Cargo--><g class="entity" data-entity="Cargo" data-source-line="60" data-uid="ent0011" id="entity_Cargo"><rect fill="#F1F1F1" height="48" rx="2.5" ry="2.5" style="stroke:#181818;stroke-width:0.5;" width="73.5625" x="916.22" y="713.5"/><ellipse cx="931.22" cy="729.5" fill="#ADD1B2" rx="11" ry="11" style="stroke:#181818;stroke-width:1;"/><path d="M934.1888,735.1406 Q933.6106,735.4375 932.97,735.5781 Q932.3294,735.7344 931.6263,735.7344 Q929.1263,735.7344 927.7981,734.0938 Q926.4856,732.4375 926.4856,729.3125 Q926.4856,726.1875 927.7981,724.5313 Q929.1263,722.875 931.6263,722.875 Q932.3294,722.875 932.97,723.0313 Q933.6263,723.1875 934.1888,723.4844 L934.1888,726.2031 Q933.5638,725.625 932.97,725.3594 Q932.3763,725.0781 931.7513,725.0781 Q930.4075,725.0781 929.72,726.1563 Q929.0325,727.2188 929.0325,729.3125 Q929.0325,731.4063 929.72,732.4844 Q930.4075,733.5469 931.7513,733.5469 Q932.3763,733.5469 932.97,733.2813 Q933.5638,733 934.1888,732.4219 L934.1888,735.1406 Z " fill="#000000"/><text fill="#000000" font-family="sans-serif" font-size="14" lengthAdjust="spacing" textLength="41.5625" x="945.22" y="734.3467">Cargo</text><line style="stroke:#181818;stroke-width:0.5;" x1="917.22" x2="988.7825" y1="745.5" y2="745.5"/><line style="stroke:#181818;stroke-width:0.5;" x1="917.22" x2="988.7825" y1="753.5" y2="753.5"/></g><!--class ClasseSocial--><g class="entity" data-entity="ClasseSocial" data-source-line="61" data-uid="ent0013" id="entity_ClasseSocial"><rect fill="#F1F1F1" height="48" rx="2.5" ry="2.5" style="stroke:#181818;stroke-width:0.5;" width="118.9531" x="260.52" y="713.5"/><ellipse cx="275.52" cy="729.5" fill="#ADD1B2" rx="11" ry="11" style="stroke:#181818;stroke-width:1;"/><path d="M278.4888,735.1406 Q277.9106,735.4375 277.27,735.5781 Q276.6294,735.7344 275.9263,735.7344 Q273.4263,735.7344 272.0981,734.0938 Q270.7856,732.4375 270.7856,729.3125 Q270.7856,726.1875 272.0981,724.5313 Q273.4263,722.875 275.9263,722.875 Q276.6294,722.875 277.27,723.0313 Q277.9263,723.1875 278.4888,723.4844 L278.4888,726.2031 Q277.8638,725.625 277.27,725.3594 Q276.6763,725.0781 276.0513,725.0781 Q274.7075,725.0781 274.02,726.1563 Q273.3325,727.2188 273.3325,729.3125 Q273.3325,731.4063 274.02,732.4844 Q274.7075,733.5469 276.0513,733.5469 Q276.6763,733.5469 277.27,733.2813 Q277.8638,733 278.4888,732.4219 L278.4888,735.1406 Z " fill="#000000"/><text fill="#000000" font-family="sans-serif" font-size="14" lengthAdjust="spacing" textLength="86.9531" x="289.52" y="734.3467">ClasseSocial</text><line style="stroke:#181818;stroke-width:0.5;" x1="261.52" x2="378.4731" y1="745.5" y2="745.5"/><line style="stroke:#181818;stroke-width:0.5;" x1="261.52" x2="378.4731" y1="753.5" y2="753.5"/></g><!--class Ingrediente--><g class="entity" data-entity="Ingrediente" data-source-line="62" data-uid="ent0015" id="entity_Ingrediente"><rect fill="#F1F1F1" height="48" rx="2.5" ry="2.5" style="stroke:#181818;stroke-width:0.5;" width="112.623" x="414.69" y="713.5"/><ellipse cx="429.69" cy="729.5" fill="#ADD1B2" rx="11" ry="11" style="stroke:#181818;stroke-width:1;"/><path d="M432.6588,735.1406 Q432.0806,735.4375 431.44,735.5781 Q430.7994,735.7344 430.0963,735.7344 Q427.5963,735.7344 426.2681,734.0938 Q424.9556,732.4375 424.9556,729.3125 Q424.9556,726.1875 426.2681,724.5313 Q427.5963,722.875 430.0963,722.875 Q430.7994,722.875 431.44,723.0313 Q432.0963,723.1875 432.6588,723.4844 L432.6588,726.2031 Q432.0338,725.625 431.44,725.3594 Q430.8463,725.0781 430.2213,725.0781 Q428.8775,725.0781 428.19,726.1563 Q427.5025,727.2188 427.5025,729.3125 Q427.5025,731.4063 428.19,732.4844 Q428.8775,733.5469 430.2213,733.5469 Q430.8463,733.5469 431.44,733.2813 Q432.0338,733 432.6588,732.4219 L432.6588,735.1406 Z " fill="#000000"/><text fill="#000000" font-family="sans-serif" font-size="14" lengthAdjust="spacing" textLength="80.623" x="443.69" y="734.3467">Ingrediente</text><line style="stroke:#181818;stroke-width:0.5;" x1="415.69" x2="526.313" y1="745.5" y2="745.5"/><line style="stroke:#181818;stroke-width:0.5;" x1="415.69" x2="526.313" y1="753.5" y2="753.5"/></g><!--class Alimento--><g class="entity" data-entity="Alimento" data-source-line="63" data-uid="ent0017" id="entity_Alimento"><rect fill="#F1F1F1" height="48" rx="2.5" ry="2.5" style="stroke:#181818;stroke-width:0.5;" width="94.5352" x="130.73" y="713.5"/><ellipse cx="145.73" cy="729.5" fill="#ADD1B2" rx="11" ry="11" style="stroke:#181818;stroke-width:1;"/><path d="M148.6988,735.1406 Q148.1206,735.4375 147.48,735.5781 Q146.8394,735.7344 146.1363,735.7344 Q143.6363,735.7344 142.3081,734.0938 Q140.9956,732.4375 140.9956,729.3125 Q140.9956,726.1875 142.3081,724.5313 Q143.6363,722.875 146.1363,722.875 Q146.8394,722.875 147.48,723.0313 Q148.1363,723.1875 148.6988,723.4844 L148.6988,726.2031 Q148.0738,725.625 147.48,725.3594 Q146.8863,725.0781 146.2613,725.0781 Q144.9175,725.0781 144.23,726.1563 Q143.5425,727.2188 143.5425,729.3125 Q143.5425,731.4063 144.23,732.4844 Q144.9175,733.5469 146.2613,733.5469 Q146.8863,733.5469 147.48,733.2813 Q148.0738,733 148.6988,732.4219 L148.6988,735.1406 Z " fill="#000000"/><text fill="#000000" font-family="sans-serif" font-size="14" lengthAdjust="spacing" textLength="62.5352" x="159.73" y="734.3467">Alimento</text><line style="stroke:#181818;stroke-width:0.5;" x1="131.73" x2="224.2652" y1="745.5" y2="745.5"/><line style="stroke:#181818;stroke-width:0.5;" x1="131.73" x2="224.2652" y1="753.5" y2="753.5"/></g><!--link Cliente to Pessoa--><g class="link" data-entity-1="Cliente" data-entity-2="Pessoa" data-source-line="57" data-uid="lnk7" id="link_Cliente_Pessoa"><path codeLine="57" d="M570.22,637.51 C590.82,660.22 597.2729,667.3511 612.1029,683.6911" fill="none" id="Cliente-to-Pessoa" style="stroke:#181818;stroke-width:1;stroke-dasharray:7,7;"/><polygon fill="none" points="624.2,697.02,616.5458,679.6587,607.6599,687.7235,624.2,697.02" style="stroke:#181818;stroke-width:1;"/></g><!--link Funcionario to Pessoa--><g class="link" data-entity-1="Funcionario" data-entity-2="Pessoa" data-source-line="58" data-uid="lnk8" id="link_Funcionario_Pessoa"><path codeLine="58" d="M789.62,466.53 C752.8,543.22 712.7215,626.6937 686.6815,680.9237" fill="none" id="Funcionario-to-Pessoa" style="stroke:#181818;stroke-width:1;stroke-dasharray:7,7;"/><polygon fill="none" points="678.89,697.15,692.0903,683.5209,681.2727,678.3265,678.89,697.15" style="stroke:#181818;stroke-width:1;"/></g><!--link Funcionario to Avaliavel--><g class="link" data-entity-1="Funcionario" data-entity-2="Avaliavel" data-source-line="59" data-uid="lnk10" id="link_Funcionario_Avaliavel"><path codeLine="59" d="M838.04,466.53 C836.45,551.66 834.6663,647.1731 833.7663,695.3331" fill="none" id="Funcionario-to-Avaliavel" style="stroke:#181818;stroke-width:1;"/><polygon fill="none" points="833.43,713.33,839.7653,695.4452,827.7674,695.221,833.43,713.33" style="stroke:#181818;stroke-width:1;"/></g><!--reverse link Funcionario to Cargo--><g class="link" data-entity-1="Funcionario" data-entity-2="Cargo" data-source-line="60" data-uid="lnk12" id="link_Funcionario_Cargo"><path codeLine="60" d="M875.0932,478.0194 C900.7532,563.1494 931.5,665.17 946.01,713.33" fill="none" id="Funcionario-backto-Cargo" style="stroke:#181818;stroke-width:1;"/><polygon fill="none" points="871.63,466.53,869.5318,473.4291,875.0932,478.0194,877.1914,471.1203,871.63,466.53" style="stroke:#181818;stroke-width:1;"/></g><!--reverse link Cliente to ClasseSocial--><g class="link" data-entity-1="Cliente" data-entity-2="ClasseSocial" data-source-line="61" data-uid="lnk14" id="link_Cliente_ClasseSocial"><path codeLine="61" d="M320,649.51 C320,680.6 320,695.47 320,713.34" fill="none" id="Cliente-backto-ClasseSocial" style="stroke:#181818;stroke-width:1;"/><polygon fill="none" points="320,637.51,316,643.51,320,649.51,324,643.51,320,637.51" style="stroke:#181818;stroke-width:1;"/></g><!--reverse link Cliente to Ingrediente--><g class="link" data-entity-1="Cliente" data-entity-2="Ingrediente" data-source-line="62" data-uid="lnk16" id="link_Cliente_Ingrediente"><path codeLine="62" d="M435.6126,648.6413 C448.1326,679.7313 454.47,695.47 461.67,713.34" fill="none" id="Cliente-backto-Ingrediente" style="stroke:#181818;stroke-width:1;"/><polygon fill="none" points="431.13,637.51,429.6609,644.5699,435.6126,648.6413,437.0817,641.5815,431.13,637.51" style="stroke:#181818;stroke-width:1;"/><text fill="#000000" font-family="sans-serif" font-size="13" lengthAdjust="spacing" textLength="23.0356" x="433.3365" y="702.311">0..*</text></g><!--reverse link Cliente to Alimento--><g class="link" data-entity-1="Cliente" data-entity-2="Alimento" data-source-line="63" data-uid="lnk18" id="link_Cliente_Alimento"><path codeLine="63" d="M211.2413,648.7327 C199.4713,679.8227 193.54,695.47 186.77,713.34" fill="none" id="Cliente-backto-Alimento" style="stroke:#181818;stroke-width:1;"/><polygon fill="none" points="215.49,637.51,209.6248,641.7051,211.2413,648.7327,217.1066,644.5376,215.49,637.51" style="stroke:#181818;stroke-width:1;"/><text fill="#000000" font-family="sans-serif" font-size="13" lengthAdjust="spacing" textLength="23.0356" x="163.0756" y="702.311">0..*</text></g><!--SRC=[fLLHZjf03Ftd52D-2eMWVaVLIWZK2gcgw782Cp7PqOPnD9CWeNRFqnFq17knEc4cEyc6BDt-1CRsU_ROBuvzL3e70qUnoi3QPL4OjIyBt4ZIk-ASeR056gJYdEDeb8DyX1J5sA0je3IW2rpaQ2t1MFmS2Q7OO0uWKMnhQsqKOYPepuxlTCJ9D1OxJgBJqBD98AbTJC3sfn4_P5KGbwMGIHrH93Hpj1WYeIgmXrQ6HEa7L8PYSSW8lBNcmnr91LbykQuxUHwT6apgTFP7YL-9xnYBfJ5m_gPiyNdpuh_hXwpHfZUW85D7FbDlbgLpzWNtyRVZPxvXax1Hyw17qnlZvWCDctTRF7tNc1jxo5svNmt7nQrTrYhcPRGpaPErfMgy9yZ8-CfYiIVA4BIBFO7YDdBdbDcIsHgKDCchvpL03YcOOKv8b5IamLmhuKGgwSO6ml0wc0HwYaKGS1E5LyUDB9U9z6Y-wkw0VlkHJVAtm4tnNhXDMgzq9d3_hbmxG3PftmBNDI-xBrwxskwhz0hJVyakJ48compCFHGyYIrlLn_HNsMev9f-JK7VXgRPLc7Ygdidt667QxsMyLPKiDc_bFeoJaN_jDqbc9JfLzMFgoEW6jfd0V1_5rR5KM-ge8e43qehvzDqebMOiAL6__qqIruK2YGGoyHllrQSvDfqygBv2TyYWLnTUEj_3DaKUFH7t-KFuXupUFxz_0Sj7_s7TB7uTUU-pcmDXt3T4qNikPHwmgpZf2Xgsk2JrBRs4WzTuq-BnSTngCR-07_fqTDV]--></g></svg>