<svg xmlns="http://www.w3.org/2000/svg" xmlns:xlink="http://www.w3.org/1999/xlink" contentStyleType="text/css" data-diagram-type="CLASS" height="510px" preserveAspectRatio="none" style="width:4276px;height:510px;background:#FFFFFF;" version="1.1" viewBox="0 0 4276 510" width="4276px" zoomAndPan="magnify"><defs/><g><!--cluster restaurante--><g class="cluster" data-entity="restaurante" data-source-line="4" data-uid="ent0004" id="cluster_restaurante"><path d="M8.5,6 L102.8447,6 A3.75,3.75 0 0 1 105.3447,8.5 L112.3447,28.2969 L4266.5,28.2969 A2.5,2.5 0 0 1 4269,30.7969 L4269,501.28 A2.5,2.5 0 0 1 4266.5,503.78 L8.5,503.78 A2.5,2.5 0 0 1 6,501.28 L6,8.5 A2.5,2.5 0 0 1 8.5,6" fill="none" style="stroke:#000000;stroke-width:1.5;"/><line style="stroke:#000000;stroke-width:1.5;" x1="6" x2="112.3447" y1="28.2969" y2="28.2969"/><text fill="#000000" font-family="sans-serif" font-size="14" font-weight="bold" lengthAdjust="spacing" textLength="93.3447" x="10" y="20.9951">restaurante</text></g><!--cluster alimento--><g class="cluster" data-entity="alimento" data-source-line="3" data-uid="ent0002" id="cluster_alimento"><path d="M32.5,49 L102.9053,49 A3.75,3.75 0 0 1 105.4053,51.5 L112.4053,71.2969 L4242.5,71.2969 A2.5,2.5 0 0 1 4245,73.7969 L4245,477.28 A2.5,2.5 0 0 1 4242.5,479.78 L32.5,479.78 A2.5,2.5 0 0 1 30,477.28 L30,51.5 A2.5,2.5 0 0 1 32.5,49" fill="none" style="stroke:#000000;stroke-width:1.5;"/><line style="stroke:#000000;stroke-width:1.5;" x1="30" x2="112.4053" y1="71.2969" y2="71.2969"/><text fill="#000000" font-family="sans-serif" font-size="14" font-weight="bold" lengthAdjust="spacing" textLength="69.4053" x="34" y="63.9951">alimento</text></g><!--class Alimento--><g class="entity" data-entity="Alimento" data-source-line="4" data-uid="ent0003" id="entity_Alimento"><rect fill="#F1F1F1" height="113.1875" rx="2.5" ry="2.5" style="stroke:#181818;stroke-width:0.5;" width="337.8281" x="1894.09" y="193"/><ellipse cx="2027.4865" cy="209" fill="#A9DCDF" rx="11" ry="11" style="stroke:#181818;stroke-width:1;"/><path d="M2027.5959,204.3438 L2026.4396,209.4219 L2028.7677,209.4219 L2027.5959,204.3438 Z M2026.1115,202.1094 L2029.0959,202.1094 L2032.4552,214.5 L2030.0021,214.5 L2029.2365,211.4375 L2025.9552,211.4375 L2025.2052,214.5 L2022.7677,214.5 L2026.1115,202.1094 Z " fill="#000000"/><text fill="#000000" font-family="sans-serif" font-size="14" font-style="italic" lengthAdjust="spacing" textLength="62.5352" x="2047.9865" y="213.8467">Alimento</text><line style="stroke:#181818;stroke-width:0.5;" x1="1895.09" x2="2230.9181" y1="225" y2="225"/><line style="stroke:#181818;stroke-width:0.5;" x1="1895.09" x2="2230.9181" y1="233" y2="233"/><ellipse cx="1905.09" cy="246.6484" fill="#84BE84" rx="3" ry="3" style="stroke:#038048;stroke-width:1;"/><text fill="#000000" font-family="sans-serif" font-size="14" font-style="italic" lengthAdjust="spacing" textLength="140.4717" x="1914.09" y="249.9951">obterNome(): String</text><ellipse cx="1905.09" cy="262.9453" fill="#84BE84" rx="3" ry="3" style="stroke:#038048;stroke-width:1;"/><text fill="#000000" font-family="sans-serif" font-size="14" font-style="italic" lengthAdjust="spacing" textLength="311.8281" x="1914.09" y="266.292">obterIngredientes(): ArrayList&lt;Ingrediente&gt;</text><ellipse cx="1905.09" cy="279.2422" fill="#84BE84" rx="3" ry="3" style="stroke:#038048;stroke-width:1;"/><text fill="#000000" font-family="sans-serif" font-size="14" lengthAdjust="spacing" textLength="213.6094" x="1914.09" y="282.5889">obterCustoDeProducao(): float</text><ellipse cx="1905.09" cy="295.5391" fill="#84BE84" rx="3" ry="3" style="stroke:#038048;stroke-width:1;"/><text fill="#000000" font-family="sans-serif" font-size="14" lengthAdjust="spacing" textLength="271.127" x="1914.09" y="298.8857">produzivel(estoque: Estoque): boolean</text></g><!--class Hamburguer--><g class="entity" data-entity="Hamburguer" data-source-line="11" data-uid="ent0005" id="entity_Hamburguer"><rect fill="#F1F1F1" height="48" rx="2.5" ry="2.5" style="stroke:#181818;stroke-width:0.5;" width="120.3887" x="939.81" y="84"/><ellipse cx="954.81" cy="100" fill="#ADD1B2" rx="11" ry="11" style="stroke:#181818;stroke-width:1;"/><path d="M957.7788,105.6406 Q957.2006,105.9375 956.56,106.0781 Q955.9194,106.2344 955.2163,106.2344 Q952.7163,106.2344 951.3881,104.5938 Q950.0756,102.9375 950.0756,99.8125 Q950.0756,96.6875 951.3881,95.0313 Q952.7163,93.375 955.2163,93.375 Q955.9194,93.375 956.56,93.5313 Q957.2163,93.6875 957.7788,93.9844 L957.7788,96.7031 Q957.1538,96.125 956.56,95.8594 Q955.9663,95.5781 955.3413,95.5781 Q953.9975,95.5781 953.31,96.6563 Q952.6225,97.7188 952.6225,99.8125 Q952.6225,101.9063 953.31,102.9844 Q953.9975,104.0469 955.3413,104.0469 Q955.9663,104.0469 956.56,103.7813 Q957.1538,103.5 957.7788,102.9219 L957.7788,105.6406 Z " fill="#000000"/><text fill="#000000" font-family="sans-serif" font-size="14" lengthAdjust="spacing" textLength="88.3887" x="968.81" y="104.8467">Hamburguer</text><line style="stroke:#181818;stroke-width:0.5;" x1="940.81" x2="1059.1987" y1="116" y2="116"/><line style="stroke:#181818;stroke-width:0.5;" x1="940.81" x2="1059.1987" y1="124" y2="124"/></g><!--class BatatasFritas--><g class="entity" data-entity="BatatasFritas" data-source-line="12" data-uid="ent0006" id="entity_BatatasFritas"><rect fill="#F1F1F1" height="48" rx="2.5" ry="2.5" style="stroke:#181818;stroke-width:0.5;" width="124.6748" x="677.66" y="84"/><ellipse cx="692.66" cy="100" fill="#ADD1B2" rx="11" ry="11" style="stroke:#181818;stroke-width:1;"/><path d="M695.6288,105.6406 Q695.0506,105.9375 694.41,106.0781 Q693.7694,106.2344 693.0663,106.2344 Q690.5663,106.2344 689.2381,104.5938 Q687.9256,102.9375 687.9256,99.8125 Q687.9256,96.6875 689.2381,95.0313 Q690.5663,93.375 693.0663,93.375 Q693.7694,93.375 694.41,93.5313 Q695.0663,93.6875 695.6288,93.9844 L695.6288,96.7031 Q695.0038,96.125 694.41,95.8594 Q693.8163,95.5781 693.1913,95.5781 Q691.8475,95.5781 691.16,96.6563 Q690.4725,97.7188 690.4725,99.8125 Q690.4725,101.9063 691.16,102.9844 Q691.8475,104.0469 693.1913,104.0469 Q693.8163,104.0469 694.41,103.7813 Q695.0038,103.5 695.6288,102.9219 L695.6288,105.6406 Z " fill="#000000"/><text fill="#000000" font-family="sans-serif" font-size="14" lengthAdjust="spacing" textLength="92.6748" x="706.66" y="104.8467">BatatasFritas</text><line style="stroke:#181818;stroke-width:0.5;" x1="678.66" x2="801.3348" y1="116" y2="116"/><line style="stroke:#181818;stroke-width:0.5;" x1="678.66" x2="801.3348" y1="124" y2="124"/></g><!--class Refrigerante--><g class="entity" data-entity="Refrigerante" data-source-line="13" data-uid="ent0007" id="entity_Refrigerante"><rect fill="#F1F1F1" height="48" rx="2.5" ry="2.5" style="stroke:#181818;stroke-width:0.5;" width="119.7256" x="334.14" y="84"/><ellipse cx="349.14" cy="100" fill="#ADD1B2" rx="11" ry="11" style="stroke:#181818;stroke-width:1;"/><path d="M352.1088,105.6406 Q351.5306,105.9375 350.89,106.0781 Q350.2494,106.2344 349.5463,106.2344 Q347.0463,106.2344 345.7181,104.5938 Q344.4056,102.9375 344.4056,99.8125 Q344.4056,96.6875 345.7181,95.0313 Q347.0463,93.375 349.5463,93.375 Q350.2494,93.375 350.89,93.5313 Q351.5463,93.6875 352.1088,93.9844 L352.1088,96.7031 Q351.4838,96.125 350.89,95.8594 Q350.2963,95.5781 349.6713,95.5781 Q348.3275,95.5781 347.64,96.6563 Q346.9525,97.7188 346.9525,99.8125 Q346.9525,101.9063 347.64,102.9844 Q348.3275,104.0469 349.6713,104.0469 Q350.2963,104.0469 350.89,103.7813 Q351.4838,103.5 352.1088,102.9219 L352.1088,105.6406 Z " fill="#000000"/><text fill="#000000" font-family="sans-serif" font-size="14" lengthAdjust="spacing" textLength="87.7256" x="363.14" y="104.8467">Refrigerante</text><line style="stroke:#181818;stroke-width:0.5;" x1="335.14" x2="452.8656" y1="116" y2="116"/><line style="stroke:#181818;stroke-width:0.5;" x1="335.14" x2="452.8656" y1="124" y2="124"/></g><!--class CheeseBurguer--><g class="entity" data-entity="CheeseBurguer" data-source-line="14" data-uid="ent0008" id="entity_CheeseBurguer"><rect fill="#F1F1F1" height="48" rx="2.5" ry="2.5" style="stroke:#181818;stroke-width:0.5;" width="140.1445" x="1172.93" y="84"/><ellipse cx="1187.93" cy="100" fill="#ADD1B2" rx="11" ry="11" style="stroke:#181818;stroke-width:1;"/><path d="M1190.8988,105.6406 Q1190.3206,105.9375 1189.68,106.0781 Q1189.0394,106.2344 1188.3363,106.2344 Q1185.8363,106.2344 1184.5081,104.5938 Q1183.1956,102.9375 1183.1956,99.8125 Q1183.1956,96.6875 1184.5081,95.0313 Q1185.8363,93.375 1188.3363,93.375 Q1189.0394,93.375 1189.68,93.5313 Q1190.3363,93.6875 1190.8988,93.9844 L1190.8988,96.7031 Q1190.2738,96.125 1189.68,95.8594 Q1189.0863,95.5781 1188.4613,95.5781 Q1187.1175,95.5781 1186.43,96.6563 Q1185.7425,97.7188 1185.7425,99.8125 Q1185.7425,101.9063 1186.43,102.9844 Q1187.1175,104.0469 1188.4613,104.0469 Q1189.0863,104.0469 1189.68,103.7813 Q1190.2738,103.5 1190.8988,102.9219 L1190.8988,105.6406 Z " fill="#000000"/><text fill="#000000" font-family="sans-serif" font-size="14" lengthAdjust="spacing" textLength="108.1445" x="1201.93" y="104.8467">CheeseBurguer</text><line style="stroke:#181818;stroke-width:0.5;" x1="1173.93" x2="1312.0745" y1="116" y2="116"/><line style="stroke:#181818;stroke-width:0.5;" x1="1173.93" x2="1312.0745" y1="124" y2="124"/></g><!--class BaconBurguer--><g class="entity" data-entity="BaconBurguer" data-source-line="15" data-uid="ent0009" id="entity_BaconBurguer"><rect fill="#F1F1F1" height="48" rx="2.5" ry="2.5" style="stroke:#181818;stroke-width:0.5;" width="131.6816" x="1389.16" y="84"/><ellipse cx="1404.16" cy="100" fill="#ADD1B2" rx="11" ry="11" style="stroke:#181818;stroke-width:1;"/><path d="M1407.1288,105.6406 Q1406.5506,105.9375 1405.91,106.0781 Q1405.2694,106.2344 1404.5663,106.2344 Q1402.0663,106.2344 1400.7381,104.5938 Q1399.4256,102.9375 1399.4256,99.8125 Q1399.4256,96.6875 1400.7381,95.0313 Q1402.0663,93.375 1404.5663,93.375 Q1405.2694,93.375 1405.91,93.5313 Q1406.5663,93.6875 1407.1288,93.9844 L1407.1288,96.7031 Q1406.5038,96.125 1405.91,95.8594 Q1405.3163,95.5781 1404.6913,95.5781 Q1403.3475,95.5781 1402.66,96.6563 Q1401.9725,97.7188 1401.9725,99.8125 Q1401.9725,101.9063 1402.66,102.9844 Q1403.3475,104.0469 1404.6913,104.0469 Q1405.3163,104.0469 1405.91,103.7813 Q1406.5038,103.5 1407.1288,102.9219 L1407.1288,105.6406 Z " fill="#000000"/><text fill="#000000" font-family="sans-serif" font-size="14" lengthAdjust="spacing" textLength="99.6816" x="1418.16" y="104.8467">BaconBurguer</text><line style="stroke:#181818;stroke-width:0.5;" x1="1390.16" x2="1519.8416" y1="116" y2="116"/><line style="stroke:#181818;stroke-width:0.5;" x1="1390.16" x2="1519.8416" y1="124" y2="124"/></g><!--class BigBurguer--><g class="entity" data-entity="BigBurguer" data-source-line="16" data-uid="ent0010" id="entity_BigBurguer"><rect fill="#F1F1F1" height="48" rx="2.5" ry="2.5" style="stroke:#181818;stroke-width:0.5;" width="110.7432" x="2007.63" y="84"/><ellipse cx="2022.63" cy="100" fill="#ADD1B2" rx="11" ry="11" style="stroke:#181818;stroke-width:1;"/><path d="M2025.5988,105.6406 Q2025.0206,105.9375 2024.38,106.0781 Q2023.7394,106.2344 2023.0363,106.2344 Q2020.5363,106.2344 2019.2081,104.5938 Q2017.8956,102.9375 2017.8956,99.8125 Q2017.8956,96.6875 2019.2081,95.0313 Q2020.5363,93.375 2023.0363,93.375 Q2023.7394,93.375 2024.38,93.5313 Q2025.0363,93.6875 2025.5988,93.9844 L2025.5988,96.7031 Q2024.9738,96.125 2024.38,95.8594 Q2023.7863,95.5781 2023.1613,95.5781 Q2021.8175,95.5781 2021.13,96.6563 Q2020.4425,97.7188 2020.4425,99.8125 Q2020.4425,101.9063 2021.13,102.9844 Q2021.8175,104.0469 2023.1613,104.0469 Q2023.7863,104.0469 2024.38,103.7813 Q2024.9738,103.5 2025.5988,102.9219 L2025.5988,105.6406 Z " fill="#000000"/><text fill="#000000" font-family="sans-serif" font-size="14" lengthAdjust="spacing" textLength="78.7432" x="2036.63" y="104.8467">BigBurguer</text><line style="stroke:#181818;stroke-width:0.5;" x1="2008.63" x2="2117.3732" y1="116" y2="116"/><line style="stroke:#181818;stroke-width:0.5;" x1="2008.63" x2="2117.3732" y1="124" y2="124"/></g><!--class ChickenBurguer--><g class="entity" data-entity="ChickenBurguer" data-source-line="17" data-uid="ent0011" id="entity_ChickenBurguer"><rect fill="#F1F1F1" height="48" rx="2.5" ry="2.5" style="stroke:#181818;stroke-width:0.5;" width="144.1914" x="2152.9" y="84"/><ellipse cx="2167.9" cy="100" fill="#ADD1B2" rx="11" ry="11" style="stroke:#181818;stroke-width:1;"/><path d="M2170.8688,105.6406 Q2170.2906,105.9375 2169.65,106.0781 Q2169.0094,106.2344 2168.3063,106.2344 Q2165.8063,106.2344 2164.4781,104.5938 Q2163.1656,102.9375 2163.1656,99.8125 Q2163.1656,96.6875 2164.4781,95.0313 Q2165.8063,93.375 2168.3063,93.375 Q2169.0094,93.375 2169.65,93.5313 Q2170.3063,93.6875 2170.8688,93.9844 L2170.8688,96.7031 Q2170.2438,96.125 2169.65,95.8594 Q2169.0563,95.5781 2168.4313,95.5781 Q2167.0875,95.5781 2166.4,96.6563 Q2165.7125,97.7188 2165.7125,99.8125 Q2165.7125,101.9063 2166.4,102.9844 Q2167.0875,104.0469 2168.4313,104.0469 Q2169.0563,104.0469 2169.65,103.7813 Q2170.2438,103.5 2170.8688,102.9219 L2170.8688,105.6406 Z " fill="#000000"/><text fill="#000000" font-family="sans-serif" font-size="14" lengthAdjust="spacing" textLength="112.1914" x="2181.9" y="104.8467">ChickenBurguer</text><line style="stroke:#181818;stroke-width:0.5;" x1="2153.9" x2="2296.0914" y1="116" y2="116"/><line style="stroke:#181818;stroke-width:0.5;" x1="2153.9" x2="2296.0914" y1="124" y2="124"/></g><!--class MilkShake--><g class="entity" data-entity="MilkShake" data-source-line="18" data-uid="ent0012" id="entity_MilkShake"><rect fill="#F1F1F1" height="48" rx="2.5" ry="2.5" style="stroke:#181818;stroke-width:0.5;" width="103.0254" x="2383.49" y="84"/><ellipse cx="2398.49" cy="100" fill="#ADD1B2" rx="11" ry="11" style="stroke:#181818;stroke-width:1;"/><path d="M2401.4588,105.6406 Q2400.8806,105.9375 2400.24,106.0781 Q2399.5994,106.2344 2398.8963,106.2344 Q2396.3963,106.2344 2395.0681,104.5938 Q2393.7556,102.9375 2393.7556,99.8125 Q2393.7556,96.6875 2395.0681,95.0313 Q2396.3963,93.375 2398.8963,93.375 Q2399.5994,93.375 2400.24,93.5313 Q2400.8963,93.6875 2401.4588,93.9844 L2401.4588,96.7031 Q2400.8338,96.125 2400.24,95.8594 Q2399.6463,95.5781 2399.0213,95.5781 Q2397.6775,95.5781 2396.99,96.6563 Q2396.3025,97.7188 2396.3025,99.8125 Q2396.3025,101.9063 2396.99,102.9844 Q2397.6775,104.0469 2399.0213,104.0469 Q2399.6463,104.0469 2400.24,103.7813 Q2400.8338,103.5 2401.4588,102.9219 L2401.4588,105.6406 Z " fill="#000000"/><text fill="#000000" font-family="sans-serif" font-size="14" lengthAdjust="spacing" textLength="71.0254" x="2412.49" y="104.8467">MilkShake</text><line style="stroke:#181818;stroke-width:0.5;" x1="2384.49" x2="2485.5154" y1="116" y2="116"/><line style="stroke:#181818;stroke-width:0.5;" x1="2384.49" x2="2485.5154" y1="124" y2="124"/></g><!--class Suco--><g class="entity" data-entity="Suco" data-source-line="19" data-uid="ent0013" id="entity_Suco"><rect fill="#F1F1F1" height="48" rx="2.5" ry="2.5" style="stroke:#181818;stroke-width:0.5;" width="66.0225" x="2822.99" y="84"/><ellipse cx="2837.99" cy="100" fill="#ADD1B2" rx="11" ry="11" style="stroke:#181818;stroke-width:1;"/><path d="M2840.9588,105.6406 Q2840.3806,105.9375 2839.74,106.0781 Q2839.0994,106.2344 2838.3963,106.2344 Q2835.8963,106.2344 2834.5681,104.5938 Q2833.2556,102.9375 2833.2556,99.8125 Q2833.2556,96.6875 2834.5681,95.0313 Q2835.8963,93.375 2838.3963,93.375 Q2839.0994,93.375 2839.74,93.5313 Q2840.3963,93.6875 2840.9588,93.9844 L2840.9588,96.7031 Q2840.3338,96.125 2839.74,95.8594 Q2839.1463,95.5781 2838.5213,95.5781 Q2837.1775,95.5781 2836.49,96.6563 Q2835.8025,97.7188 2835.8025,99.8125 Q2835.8025,101.9063 2836.49,102.9844 Q2837.1775,104.0469 2838.5213,104.0469 Q2839.1463,104.0469 2839.74,103.7813 Q2840.3338,103.5 2840.9588,102.9219 L2840.9588,105.6406 Z " fill="#000000"/><text fill="#000000" font-family="sans-serif" font-size="14" lengthAdjust="spacing" textLength="34.0225" x="2851.99" y="104.8467">Suco</text><line style="stroke:#181818;stroke-width:0.5;" x1="2823.99" x2="2888.0125" y1="116" y2="116"/><line style="stroke:#181818;stroke-width:0.5;" x1="2823.99" x2="2888.0125" y1="124" y2="124"/></g><!--class VeggieBurguer--><g class="entity" data-entity="VeggieBurguer" data-source-line="20" data-uid="ent0014" id="entity_VeggieBurguer"><rect fill="#F1F1F1" height="48" rx="2.5" ry="2.5" style="stroke:#181818;stroke-width:0.5;" width="136.8291" x="1835.59" y="84"/><ellipse cx="1850.59" cy="100" fill="#ADD1B2" rx="11" ry="11" style="stroke:#181818;stroke-width:1;"/><path d="M1853.5588,105.6406 Q1852.9806,105.9375 1852.34,106.0781 Q1851.6994,106.2344 1850.9963,106.2344 Q1848.4963,106.2344 1847.1681,104.5938 Q1845.8556,102.9375 1845.8556,99.8125 Q1845.8556,96.6875 1847.1681,95.0313 Q1848.4963,93.375 1850.9963,93.375 Q1851.6994,93.375 1852.34,93.5313 Q1852.9963,93.6875 1853.5588,93.9844 L1853.5588,96.7031 Q1852.9338,96.125 1852.34,95.8594 Q1851.7463,95.5781 1851.1213,95.5781 Q1849.7775,95.5781 1849.09,96.6563 Q1848.4025,97.7188 1848.4025,99.8125 Q1848.4025,101.9063 1849.09,102.9844 Q1849.7775,104.0469 1851.1213,104.0469 Q1851.7463,104.0469 1852.34,103.7813 Q1852.9338,103.5 1853.5588,102.9219 L1853.5588,105.6406 Z " fill="#000000"/><text fill="#000000" font-family="sans-serif" font-size="14" lengthAdjust="spacing" textLength="104.8291" x="1864.59" y="104.8467">VeggieBurguer</text><line style="stroke:#181818;stroke-width:0.5;" x1="1836.59" x2="1971.4191" y1="116" y2="116"/><line style="stroke:#181818;stroke-width:0.5;" x1="1836.59" x2="1971.4191" y1="124" y2="124"/></g><!--class Ingrediente--><g class="entity" data-entity="Ingrediente" data-source-line="33" data-uid="ent0025" id="entity_Ingrediente"><rect fill="#F1F1F1" height="80.5938" rx="2.5" ry="2.5" style="stroke:#181818;stroke-width:0.5;" width="166.4717" x="2118.76" y="383.19"/><ellipse cx="2157.9919" cy="399.19" fill="#A9DCDF" rx="11" ry="11" style="stroke:#181818;stroke-width:1;"/><path d="M2158.1013,394.5337 L2156.945,399.6119 L2159.2731,399.6119 L2158.1013,394.5337 Z M2156.6169,392.2994 L2159.6013,392.2994 L2162.9606,404.69 L2160.5075,404.69 L2159.7419,401.6275 L2156.4606,401.6275 L2155.7106,404.69 L2153.2731,404.69 L2156.6169,392.2994 Z " fill="#000000"/><text fill="#000000" font-family="sans-serif" font-size="14" font-style="italic" lengthAdjust="spacing" textLength="80.623" x="2177.3767" y="404.0367">Ingrediente</text><line style="stroke:#181818;stroke-width:0.5;" x1="2119.76" x2="2284.2317" y1="415.19" y2="415.19"/><line style="stroke:#181818;stroke-width:0.5;" x1="2119.76" x2="2284.2317" y1="423.19" y2="423.19"/><ellipse cx="2129.76" cy="436.8384" fill="#84BE84" rx="3" ry="3" style="stroke:#038048;stroke-width:1;"/><text fill="#000000" font-family="sans-serif" font-size="14" font-style="italic" lengthAdjust="spacing" textLength="140.4717" x="2138.76" y="440.1851">obterNome(): String</text><ellipse cx="2129.76" cy="453.1353" fill="#84BE84" rx="3" ry="3" style="stroke:#038048;stroke-width:1;"/><text fill="#000000" font-family="sans-serif" font-size="14" font-style="italic" lengthAdjust="spacing" textLength="127.9277" x="2138.76" y="456.482">obterPreco(): float</text></g><!--class PaoDeHamburguer--><g class="entity" data-entity="PaoDeHamburguer" data-source-line="38" data-uid="ent0026" id="entity_PaoDeHamburguer"><rect fill="#F1F1F1" height="48" rx="2.5" ry="2.5" style="stroke:#181818;stroke-width:0.5;" width="165.3691" x="622.32" y="225.59"/><ellipse cx="637.32" cy="241.59" fill="#ADD1B2" rx="11" ry="11" style="stroke:#181818;stroke-width:1;"/><path d="M640.2888,247.2306 Q639.7106,247.5275 639.07,247.6681 Q638.4294,247.8244 637.7263,247.8244 Q635.2263,247.8244 633.8981,246.1837 Q632.5856,244.5275 632.5856,241.4025 Q632.5856,238.2775 633.8981,236.6212 Q635.2263,234.965 637.7263,234.965 Q638.4294,234.965 639.07,235.1212 Q639.7263,235.2775 640.2888,235.5744 L640.2888,238.2931 Q639.6638,237.715 639.07,237.4494 Q638.4763,237.1681 637.8513,237.1681 Q636.5075,237.1681 635.82,238.2462 Q635.1325,239.3087 635.1325,241.4025 Q635.1325,243.4962 635.82,244.5744 Q636.5075,245.6369 637.8513,245.6369 Q638.4763,245.6369 639.07,245.3712 Q639.6638,245.09 640.2888,244.5119 L640.2888,247.2306 Z " fill="#000000"/><text fill="#000000" font-family="sans-serif" font-size="14" lengthAdjust="spacing" textLength="133.3691" x="651.32" y="246.4367">PaoDeHamburguer</text><line style="stroke:#181818;stroke-width:0.5;" x1="623.32" x2="786.6891" y1="257.59" y2="257.59"/><line style="stroke:#181818;stroke-width:0.5;" x1="623.32" x2="786.6891" y1="265.59" y2="265.59"/></g><!--class FatiaTomate--><g class="entity" data-entity="FatiaTomate" data-source-line="39" data-uid="ent0027" id="entity_FatiaTomate"><rect fill="#F1F1F1" height="48" rx="2.5" ry="2.5" style="stroke:#181818;stroke-width:0.5;" width="120.0264" x="1038.99" y="225.59"/><ellipse cx="1053.99" cy="241.59" fill="#ADD1B2" rx="11" ry="11" style="stroke:#181818;stroke-width:1;"/><path d="M1056.9588,247.2306 Q1056.3806,247.5275 1055.74,247.6681 Q1055.0994,247.8244 1054.3963,247.8244 Q1051.8963,247.8244 1050.5681,246.1837 Q1049.2556,244.5275 1049.2556,241.4025 Q1049.2556,238.2775 1050.5681,236.6212 Q1051.8963,234.965 1054.3963,234.965 Q1055.0994,234.965 1055.74,235.1212 Q1056.3963,235.2775 1056.9588,235.5744 L1056.9588,238.2931 Q1056.3338,237.715 1055.74,237.4494 Q1055.1463,237.1681 1054.5213,237.1681 Q1053.1775,237.1681 1052.49,238.2462 Q1051.8025,239.3087 1051.8025,241.4025 Q1051.8025,243.4962 1052.49,244.5744 Q1053.1775,245.6369 1054.5213,245.6369 Q1055.1463,245.6369 1055.74,245.3712 Q1056.3338,245.09 1056.9588,244.5119 L1056.9588,247.2306 Z " fill="#000000"/><text fill="#000000" font-family="sans-serif" font-size="14" lengthAdjust="spacing" textLength="88.0264" x="1067.99" y="246.4367">FatiaTomate</text><line style="stroke:#181818;stroke-width:0.5;" x1="1039.99" x2="1158.0164" y1="257.59" y2="257.59"/><line style="stroke:#181818;stroke-width:0.5;" x1="1039.99" x2="1158.0164" y1="265.59" y2="265.59"/></g><!--class CarneDeHamburguer--><g class="entity" data-entity="CarneDeHamburguer" data-source-line="40" data-uid="ent0028" id="entity_CarneDeHamburguer"><rect fill="#F1F1F1" height="48" rx="2.5" ry="2.5" style="stroke:#181818;stroke-width:0.5;" width="181.3789" x="822.31" y="225.59"/><ellipse cx="837.31" cy="241.59" fill="#ADD1B2" rx="11" ry="11" style="stroke:#181818;stroke-width:1;"/><path d="M840.2788,247.2306 Q839.7006,247.5275 839.06,247.6681 Q838.4194,247.8244 837.7163,247.8244 Q835.2163,247.8244 833.8881,246.1837 Q832.5756,244.5275 832.5756,241.4025 Q832.5756,238.2775 833.8881,236.6212 Q835.2163,234.965 837.7163,234.965 Q838.4194,234.965 839.06,235.1212 Q839.7163,235.2775 840.2788,235.5744 L840.2788,238.2931 Q839.6538,237.715 839.06,237.4494 Q838.4663,237.1681 837.8413,237.1681 Q836.4975,237.1681 835.81,238.2462 Q835.1225,239.3087 835.1225,241.4025 Q835.1225,243.4962 835.81,244.5744 Q836.4975,245.6369 837.8413,245.6369 Q838.4663,245.6369 839.06,245.3712 Q839.6538,245.09 840.2788,244.5119 L840.2788,247.2306 Z " fill="#000000"/><text fill="#000000" font-family="sans-serif" font-size="14" lengthAdjust="spacing" textLength="149.3789" x="851.31" y="246.4367">CarneDeHamburguer</text><line style="stroke:#181818;stroke-width:0.5;" x1="823.31" x2="1002.6889" y1="257.59" y2="257.59"/><line style="stroke:#181818;stroke-width:0.5;" x1="823.31" x2="1002.6889" y1="265.59" y2="265.59"/></g><!--class Batata--><g class="entity" data-entity="Batata" data-source-line="41" data-uid="ent0029" id="entity_Batata"><rect fill="#F1F1F1" height="48" rx="2.5" ry="2.5" style="stroke:#181818;stroke-width:0.5;" width="78.3203" x="508.84" y="225.59"/><ellipse cx="523.84" cy="241.59" fill="#ADD1B2" rx="11" ry="11" style="stroke:#181818;stroke-width:1;"/><path d="M526.8088,247.2306 Q526.2306,247.5275 525.59,247.6681 Q524.9494,247.8244 524.2463,247.8244 Q521.7463,247.8244 520.4181,246.1837 Q519.1056,244.5275 519.1056,241.4025 Q519.1056,238.2775 520.4181,236.6212 Q521.7463,234.965 524.2463,234.965 Q524.9494,234.965 525.59,235.1212 Q526.2463,235.2775 526.8088,235.5744 L526.8088,238.2931 Q526.1838,237.715 525.59,237.4494 Q524.9963,237.1681 524.3713,237.1681 Q523.0275,237.1681 522.34,238.2462 Q521.6525,239.3087 521.6525,241.4025 Q521.6525,243.4962 522.34,244.5744 Q523.0275,245.6369 524.3713,245.6369 Q524.9963,245.6369 525.59,245.3712 Q526.1838,245.09 526.8088,244.5119 L526.8088,247.2306 Z " fill="#000000"/><text fill="#000000" font-family="sans-serif" font-size="14" lengthAdjust="spacing" textLength="46.3203" x="537.84" y="246.4367">Batata</text><line style="stroke:#181818;stroke-width:0.5;" x1="509.84" x2="586.1603" y1="257.59" y2="257.59"/><line style="stroke:#181818;stroke-width:0.5;" x1="509.84" x2="586.1603" y1="265.59" y2="265.59"/></g><!--class MeioLitroDeAguaGaseificada--><g class="entity" data-entity="MeioLitroDeAguaGaseificada" data-source-line="42" data-uid="ent0030" id="entity_MeioLitroDeAguaGaseificada"><rect fill="#F1F1F1" height="48" rx="2.5" ry="2.5" style="stroke:#181818;stroke-width:0.5;" width="233.7422" x="46.13" y="225.59"/><ellipse cx="61.13" cy="241.59" fill="#ADD1B2" rx="11" ry="11" style="stroke:#181818;stroke-width:1;"/><path d="M64.0988,247.2306 Q63.5206,247.5275 62.88,247.6681 Q62.2394,247.8244 61.5363,247.8244 Q59.0363,247.8244 57.7081,246.1837 Q56.3956,244.5275 56.3956,241.4025 Q56.3956,238.2775 57.7081,236.6212 Q59.0363,234.965 61.5363,234.965 Q62.2394,234.965 62.88,235.1212 Q63.5363,235.2775 64.0988,235.5744 L64.0988,238.2931 Q63.4738,237.715 62.88,237.4494 Q62.2863,237.1681 61.6613,237.1681 Q60.3175,237.1681 59.63,238.2462 Q58.9425,239.3087 58.9425,241.4025 Q58.9425,243.4962 59.63,244.5744 Q60.3175,245.6369 61.6613,245.6369 Q62.2863,245.6369 62.88,245.3712 Q63.4738,245.09 64.0988,244.5119 L64.0988,247.2306 Z " fill="#000000"/><text fill="#000000" font-family="sans-serif" font-size="14" lengthAdjust="spacing" textLength="201.7422" x="75.13" y="246.4367">MeioLitroDeAguaGaseificada</text><line style="stroke:#181818;stroke-width:0.5;" x1="47.13" x2="278.8722" y1="257.59" y2="257.59"/><line style="stroke:#181818;stroke-width:0.5;" x1="47.13" x2="278.8722" y1="265.59" y2="265.59"/></g><!--class RefrigeranteEmPo--><g class="entity" data-entity="RefrigeranteEmPo" data-source-line="43" data-uid="ent0031" id="entity_RefrigeranteEmPo"><rect fill="#F1F1F1" height="48" rx="2.5" ry="2.5" style="stroke:#181818;stroke-width:0.5;" width="159.2168" x="314.39" y="225.59"/><ellipse cx="329.39" cy="241.59" fill="#ADD1B2" rx="11" ry="11" style="stroke:#181818;stroke-width:1;"/><path d="M332.3588,247.2306 Q331.7806,247.5275 331.14,247.6681 Q330.4994,247.8244 329.7963,247.8244 Q327.2963,247.8244 325.9681,246.1837 Q324.6556,244.5275 324.6556,241.4025 Q324.6556,238.2775 325.9681,236.6212 Q327.2963,234.965 329.7963,234.965 Q330.4994,234.965 331.14,235.1212 Q331.7963,235.2775 332.3588,235.5744 L332.3588,238.2931 Q331.7338,237.715 331.14,237.4494 Q330.5463,237.1681 329.9213,237.1681 Q328.5775,237.1681 327.89,238.2462 Q327.2025,239.3087 327.2025,241.4025 Q327.2025,243.4962 327.89,244.5744 Q328.5775,245.6369 329.9213,245.6369 Q330.5463,245.6369 331.14,245.3712 Q331.7338,245.09 332.3588,244.5119 L332.3588,247.2306 Z " fill="#000000"/><text fill="#000000" font-family="sans-serif" font-size="14" lengthAdjust="spacing" textLength="127.2168" x="343.39" y="246.4367">RefrigeranteEmPo</text><line style="stroke:#181818;stroke-width:0.5;" x1="315.39" x2="472.6068" y1="257.59" y2="257.59"/><line style="stroke:#181818;stroke-width:0.5;" x1="315.39" x2="472.6068" y1="265.59" y2="265.59"/></g><!--class Alface--><g class="entity" data-entity="Alface" data-source-line="44" data-uid="ent0032" id="entity_Alface"><rect fill="#F1F1F1" height="48" rx="2.5" ry="2.5" style="stroke:#181818;stroke-width:0.5;" width="75.2852" x="1498.36" y="225.59"/><ellipse cx="1513.36" cy="241.59" fill="#ADD1B2" rx="11" ry="11" style="stroke:#181818;stroke-width:1;"/><path d="M1516.3288,247.2306 Q1515.7506,247.5275 1515.11,247.6681 Q1514.4694,247.8244 1513.7663,247.8244 Q1511.2663,247.8244 1509.9381,246.1837 Q1508.6256,244.5275 1508.6256,241.4025 Q1508.6256,238.2775 1509.9381,236.6212 Q1511.2663,234.965 1513.7663,234.965 Q1514.4694,234.965 1515.11,235.1212 Q1515.7663,235.2775 1516.3288,235.5744 L1516.3288,238.2931 Q1515.7038,237.715 1515.11,237.4494 Q1514.5163,237.1681 1513.8913,237.1681 Q1512.5475,237.1681 1511.86,238.2462 Q1511.1725,239.3087 1511.1725,241.4025 Q1511.1725,243.4962 1511.86,244.5744 Q1512.5475,245.6369 1513.8913,245.6369 Q1514.5163,245.6369 1515.11,245.3712 Q1515.7038,245.09 1516.3288,244.5119 L1516.3288,247.2306 Z " fill="#000000"/><text fill="#000000" font-family="sans-serif" font-size="14" lengthAdjust="spacing" textLength="43.2852" x="1527.36" y="246.4367">Alface</text><line style="stroke:#181818;stroke-width:0.5;" x1="1499.36" x2="1572.6452" y1="257.59" y2="257.59"/><line style="stroke:#181818;stroke-width:0.5;" x1="1499.36" x2="1572.6452" y1="265.59" y2="265.59"/></g><!--class Bacon--><g class="entity" data-entity="Bacon" data-source-line="45" data-uid="ent0033" id="entity_Bacon"><rect fill="#F1F1F1" height="48" rx="2.5" ry="2.5" style="stroke:#181818;stroke-width:0.5;" width="75.3193" x="1608.34" y="225.59"/><ellipse cx="1623.34" cy="241.59" fill="#ADD1B2" rx="11" ry="11" style="stroke:#181818;stroke-width:1;"/><path d="M1626.3088,247.2306 Q1625.7306,247.5275 1625.09,247.6681 Q1624.4494,247.8244 1623.7463,247.8244 Q1621.2463,247.8244 1619.9181,246.1837 Q1618.6056,244.5275 1618.6056,241.4025 Q1618.6056,238.2775 1619.9181,236.6212 Q1621.2463,234.965 1623.7463,234.965 Q1624.4494,234.965 1625.09,235.1212 Q1625.7463,235.2775 1626.3088,235.5744 L1626.3088,238.2931 Q1625.6838,237.715 1625.09,237.4494 Q1624.4963,237.1681 1623.8713,237.1681 Q1622.5275,237.1681 1621.84,238.2462 Q1621.1525,239.3087 1621.1525,241.4025 Q1621.1525,243.4962 1621.84,244.5744 Q1622.5275,245.6369 1623.8713,245.6369 Q1624.4963,245.6369 1625.09,245.3712 Q1625.6838,245.09 1626.3088,244.5119 L1626.3088,247.2306 Z " fill="#000000"/><text fill="#000000" font-family="sans-serif" font-size="14" lengthAdjust="spacing" textLength="43.3193" x="1637.34" y="246.4367">Bacon</text><line style="stroke:#181818;stroke-width:0.5;" x1="1609.34" x2="1682.6593" y1="257.59" y2="257.59"/><line style="stroke:#181818;stroke-width:0.5;" x1="1609.34" x2="1682.6593" y1="265.59" y2="265.59"/></g><!--class CaldasChocolate--><g class="entity" data-entity="CaldasChocolate" data-source-line="46" data-uid="ent0034" id="entity_CaldasChocolate"><rect fill="#F1F1F1" height="48" rx="2.5" ry="2.5" style="stroke:#181818;stroke-width:0.5;" width="149.0518" x="2266.47" y="225.59"/><ellipse cx="2281.47" cy="241.59" fill="#ADD1B2" rx="11" ry="11" style="stroke:#181818;stroke-width:1;"/><path d="M2284.4388,247.2306 Q2283.8606,247.5275 2283.22,247.6681 Q2282.5794,247.8244 2281.8763,247.8244 Q2279.3763,247.8244 2278.0481,246.1837 Q2276.7356,244.5275 2276.7356,241.4025 Q2276.7356,238.2775 2278.0481,236.6212 Q2279.3763,234.965 2281.8763,234.965 Q2282.5794,234.965 2283.22,235.1212 Q2283.8763,235.2775 2284.4388,235.5744 L2284.4388,238.2931 Q2283.8138,237.715 2283.22,237.4494 Q2282.6263,237.1681 2282.0013,237.1681 Q2280.6575,237.1681 2279.97,238.2462 Q2279.2825,239.3087 2279.2825,241.4025 Q2279.2825,243.4962 2279.97,244.5744 Q2280.6575,245.6369 2282.0013,245.6369 Q2282.6263,245.6369 2283.22,245.3712 Q2283.8138,245.09 2284.4388,244.5119 L2284.4388,247.2306 Z " fill="#000000"/><text fill="#000000" font-family="sans-serif" font-size="14" lengthAdjust="spacing" textLength="117.0518" x="2295.47" y="246.4367">CaldasChocolate</text><line style="stroke:#181818;stroke-width:0.5;" x1="2267.47" x2="2414.5218" y1="257.59" y2="257.59"/><line style="stroke:#181818;stroke-width:0.5;" x1="2267.47" x2="2414.5218" y1="265.59" y2="265.59"/></g><!--class CarneDeSoja--><g class="entity" data-entity="CarneDeSoja" data-source-line="47" data-uid="ent0035" id="entity_CarneDeSoja"><rect fill="#F1F1F1" height="48" rx="2.5" ry="2.5" style="stroke:#181818;stroke-width:0.5;" width="122.9111" x="3167.54" y="225.59"/><ellipse cx="3182.54" cy="241.59" fill="#ADD1B2" rx="11" ry="11" style="stroke:#181818;stroke-width:1;"/><path d="M3185.5088,247.2306 Q3184.9306,247.5275 3184.29,247.6681 Q3183.6494,247.8244 3182.9463,247.8244 Q3180.4463,247.8244 3179.1181,246.1837 Q3177.8056,244.5275 3177.8056,241.4025 Q3177.8056,238.2775 3179.1181,236.6212 Q3180.4463,234.965 3182.9463,234.965 Q3183.6494,234.965 3184.29,235.1212 Q3184.9463,235.2775 3185.5088,235.5744 L3185.5088,238.2931 Q3184.8838,237.715 3184.29,237.4494 Q3183.6963,237.1681 3183.0713,237.1681 Q3181.7275,237.1681 3181.04,238.2462 Q3180.3525,239.3087 3180.3525,241.4025 Q3180.3525,243.4962 3181.04,244.5744 Q3181.7275,245.6369 3183.0713,245.6369 Q3183.6963,245.6369 3184.29,245.3712 Q3184.8838,245.09 3185.5088,244.5119 L3185.5088,247.2306 Z " fill="#000000"/><text fill="#000000" font-family="sans-serif" font-size="14" lengthAdjust="spacing" textLength="90.9111" x="3196.54" y="246.4367">CarneDeSoja</text><line style="stroke:#181818;stroke-width:0.5;" x1="3168.54" x2="3289.4511" y1="257.59" y2="257.59"/><line style="stroke:#181818;stroke-width:0.5;" x1="3168.54" x2="3289.4511" y1="265.59" y2="265.59"/></g><!--class CarneFrango--><g class="entity" data-entity="CarneFrango" data-source-line="48" data-uid="ent0036" id="entity_CarneFrango"><rect fill="#F1F1F1" height="48" rx="2.5" ry="2.5" style="stroke:#181818;stroke-width:0.5;" width="122.3096" x="3325.85" y="225.59"/><ellipse cx="3340.85" cy="241.59" fill="#ADD1B2" rx="11" ry="11" style="stroke:#181818;stroke-width:1;"/><path d="M3343.8188,247.2306 Q3343.2406,247.5275 3342.6,247.6681 Q3341.9594,247.8244 3341.2563,247.8244 Q3338.7563,247.8244 3337.4281,246.1837 Q3336.1156,244.5275 3336.1156,241.4025 Q3336.1156,238.2775 3337.4281,236.6212 Q3338.7563,234.965 3341.2563,234.965 Q3341.9594,234.965 3342.6,235.1212 Q3343.2563,235.2775 3343.8188,235.5744 L3343.8188,238.2931 Q3343.1938,237.715 3342.6,237.4494 Q3342.0063,237.1681 3341.3813,237.1681 Q3340.0375,237.1681 3339.35,238.2462 Q3338.6625,239.3087 3338.6625,241.4025 Q3338.6625,243.4962 3339.35,244.5744 Q3340.0375,245.6369 3341.3813,245.6369 Q3342.0063,245.6369 3342.6,245.3712 Q3343.1938,245.09 3343.8188,244.5119 L3343.8188,247.2306 Z " fill="#000000"/><text fill="#000000" font-family="sans-serif" font-size="14" lengthAdjust="spacing" textLength="90.3096" x="3354.85" y="246.4367">CarneFrango</text><line style="stroke:#181818;stroke-width:0.5;" x1="3326.85" x2="3447.1596" y1="257.59" y2="257.59"/><line style="stroke:#181818;stroke-width:0.5;" x1="3326.85" x2="3447.1596" y1="265.59" y2="265.59"/></g><!--class FatiaCebola--><g class="entity" data-entity="FatiaCebola" data-source-line="49" data-uid="ent0037" id="entity_FatiaCebola"><rect fill="#F1F1F1" height="48" rx="2.5" ry="2.5" style="stroke:#181818;stroke-width:0.5;" width="114.8994" x="3483.55" y="225.59"/><ellipse cx="3498.55" cy="241.59" fill="#ADD1B2" rx="11" ry="11" style="stroke:#181818;stroke-width:1;"/><path d="M3501.5188,247.2306 Q3500.9406,247.5275 3500.3,247.6681 Q3499.6594,247.8244 3498.9563,247.8244 Q3496.4563,247.8244 3495.1281,246.1837 Q3493.8156,244.5275 3493.8156,241.4025 Q3493.8156,238.2775 3495.1281,236.6212 Q3496.4563,234.965 3498.9563,234.965 Q3499.6594,234.965 3500.3,235.1212 Q3500.9563,235.2775 3501.5188,235.5744 L3501.5188,238.2931 Q3500.8938,237.715 3500.3,237.4494 Q3499.7063,237.1681 3499.0813,237.1681 Q3497.7375,237.1681 3497.05,238.2462 Q3496.3625,239.3087 3496.3625,241.4025 Q3496.3625,243.4962 3497.05,244.5744 Q3497.7375,245.6369 3499.0813,245.6369 Q3499.7063,245.6369 3500.3,245.3712 Q3500.8938,245.09 3501.5188,244.5119 L3501.5188,247.2306 Z " fill="#000000"/><text fill="#000000" font-family="sans-serif" font-size="14" lengthAdjust="spacing" textLength="82.8994" x="3512.55" y="246.4367">FatiaCebola</text><line style="stroke:#181818;stroke-width:0.5;" x1="3484.55" x2="3597.4494" y1="257.59" y2="257.59"/><line style="stroke:#181818;stroke-width:0.5;" x1="3484.55" x2="3597.4494" y1="265.59" y2="265.59"/></g><!--class FrutaCitrica--><g class="entity" data-entity="FrutaCitrica" data-source-line="50" data-uid="ent0038" id="entity_FrutaCitrica"><rect fill="#F1F1F1" height="48" rx="2.5" ry="2.5" style="stroke:#181818;stroke-width:0.5;" width="113.8262" x="2799.09" y="225.59"/><ellipse cx="2814.09" cy="241.59" fill="#ADD1B2" rx="11" ry="11" style="stroke:#181818;stroke-width:1;"/><path d="M2817.0588,247.2306 Q2816.4806,247.5275 2815.84,247.6681 Q2815.1994,247.8244 2814.4963,247.8244 Q2811.9963,247.8244 2810.6681,246.1837 Q2809.3556,244.5275 2809.3556,241.4025 Q2809.3556,238.2775 2810.6681,236.6212 Q2811.9963,234.965 2814.4963,234.965 Q2815.1994,234.965 2815.84,235.1212 Q2816.4963,235.2775 2817.0588,235.5744 L2817.0588,238.2931 Q2816.4338,237.715 2815.84,237.4494 Q2815.2463,237.1681 2814.6213,237.1681 Q2813.2775,237.1681 2812.59,238.2462 Q2811.9025,239.3087 2811.9025,241.4025 Q2811.9025,243.4962 2812.59,244.5744 Q2813.2775,245.6369 2814.6213,245.6369 Q2815.2463,245.6369 2815.84,245.3712 Q2816.4338,245.09 2817.0588,244.5119 L2817.0588,247.2306 Z " fill="#000000"/><text fill="#000000" font-family="sans-serif" font-size="14" lengthAdjust="spacing" textLength="81.8262" x="2828.09" y="246.4367">FrutaCitrica</text><line style="stroke:#181818;stroke-width:0.5;" x1="2800.09" x2="2911.9162" y1="257.59" y2="257.59"/><line style="stroke:#181818;stroke-width:0.5;" x1="2800.09" x2="2911.9162" y1="265.59" y2="265.59"/></g><!--class Maionese--><g class="entity" data-entity="Maionese" data-source-line="51" data-uid="ent0039" id="entity_Maionese"><rect fill="#F1F1F1" height="48" rx="2.5" ry="2.5" style="stroke:#181818;stroke-width:0.5;" width="98.5068" x="1193.75" y="225.59"/><ellipse cx="1208.75" cy="241.59" fill="#ADD1B2" rx="11" ry="11" style="stroke:#181818;stroke-width:1;"/><path d="M1211.7188,247.2306 Q1211.1406,247.5275 1210.5,247.6681 Q1209.8594,247.8244 1209.1563,247.8244 Q1206.6563,247.8244 1205.3281,246.1837 Q1204.0156,244.5275 1204.0156,241.4025 Q1204.0156,238.2775 1205.3281,236.6212 Q1206.6563,234.965 1209.1563,234.965 Q1209.8594,234.965 1210.5,235.1212 Q1211.1563,235.2775 1211.7188,235.5744 L1211.7188,238.2931 Q1211.0938,237.715 1210.5,237.4494 Q1209.9063,237.1681 1209.2813,237.1681 Q1207.9375,237.1681 1207.25,238.2462 Q1206.5625,239.3087 1206.5625,241.4025 Q1206.5625,243.4962 1207.25,244.5744 Q1207.9375,245.6369 1209.2813,245.6369 Q1209.9063,245.6369 1210.5,245.3712 Q1211.0938,245.09 1211.7188,244.5119 L1211.7188,247.2306 Z " fill="#000000"/><text fill="#000000" font-family="sans-serif" font-size="14" lengthAdjust="spacing" textLength="66.5068" x="1222.75" y="246.4367">Maionese</text><line style="stroke:#181818;stroke-width:0.5;" x1="1194.75" x2="1291.2568" y1="257.59" y2="257.59"/><line style="stroke:#181818;stroke-width:0.5;" x1="1194.75" x2="1291.2568" y1="265.59" y2="265.59"/></g><!--class MeioLitroAguaMineral--><g class="entity" data-entity="MeioLitroAguaMineral" data-source-line="52" data-uid="ent0040" id="entity_MeioLitroAguaMineral"><rect fill="#F1F1F1" height="48" rx="2.5" ry="2.5" style="stroke:#181818;stroke-width:0.5;" width="184.2432" x="2947.88" y="225.59"/><ellipse cx="2962.88" cy="241.59" fill="#ADD1B2" rx="11" ry="11" style="stroke:#181818;stroke-width:1;"/><path d="M2965.8488,247.2306 Q2965.2706,247.5275 2964.63,247.6681 Q2963.9894,247.8244 2963.2863,247.8244 Q2960.7863,247.8244 2959.4581,246.1837 Q2958.1456,244.5275 2958.1456,241.4025 Q2958.1456,238.2775 2959.4581,236.6212 Q2960.7863,234.965 2963.2863,234.965 Q2963.9894,234.965 2964.63,235.1212 Q2965.2863,235.2775 2965.8488,235.5744 L2965.8488,238.2931 Q2965.2238,237.715 2964.63,237.4494 Q2964.0363,237.1681 2963.4113,237.1681 Q2962.0675,237.1681 2961.38,238.2462 Q2960.6925,239.3087 2960.6925,241.4025 Q2960.6925,243.4962 2961.38,244.5744 Q2962.0675,245.6369 2963.4113,245.6369 Q2964.0363,245.6369 2964.63,245.3712 Q2965.2238,245.09 2965.8488,244.5119 L2965.8488,247.2306 Z " fill="#000000"/><text fill="#000000" font-family="sans-serif" font-size="14" lengthAdjust="spacing" textLength="152.2432" x="2976.88" y="246.4367">MeioLitroAguaMineral</text><line style="stroke:#181818;stroke-width:0.5;" x1="2948.88" x2="3131.1232" y1="257.59" y2="257.59"/><line style="stroke:#181818;stroke-width:0.5;" x1="2948.88" x2="3131.1232" y1="265.59" y2="265.59"/></g><!--class MeioLitroLeite--><g class="entity" data-entity="MeioLitroLeite" data-source-line="53" data-uid="ent0041" id="entity_MeioLitroLeite"><rect fill="#F1F1F1" height="48" rx="2.5" ry="2.5" style="stroke:#181818;stroke-width:0.5;" width="131.0527" x="2450.47" y="225.59"/><ellipse cx="2465.47" cy="241.59" fill="#ADD1B2" rx="11" ry="11" style="stroke:#181818;stroke-width:1;"/><path d="M2468.4388,247.2306 Q2467.8606,247.5275 2467.22,247.6681 Q2466.5794,247.8244 2465.8763,247.8244 Q2463.3763,247.8244 2462.0481,246.1837 Q2460.7356,244.5275 2460.7356,241.4025 Q2460.7356,238.2775 2462.0481,236.6212 Q2463.3763,234.965 2465.8763,234.965 Q2466.5794,234.965 2467.22,235.1212 Q2467.8763,235.2775 2468.4388,235.5744 L2468.4388,238.2931 Q2467.8138,237.715 2467.22,237.4494 Q2466.6263,237.1681 2466.0013,237.1681 Q2464.6575,237.1681 2463.97,238.2462 Q2463.2825,239.3087 2463.2825,241.4025 Q2463.2825,243.4962 2463.97,244.5744 Q2464.6575,245.6369 2466.0013,245.6369 Q2466.6263,245.6369 2467.22,245.3712 Q2467.8138,245.09 2468.4388,244.5119 L2468.4388,247.2306 Z " fill="#000000"/><text fill="#000000" font-family="sans-serif" font-size="14" lengthAdjust="spacing" textLength="99.0527" x="2479.47" y="246.4367">MeioLitroLeite</text><line style="stroke:#181818;stroke-width:0.5;" x1="2451.47" x2="2580.5227" y1="257.59" y2="257.59"/><line style="stroke:#181818;stroke-width:0.5;" x1="2451.47" x2="2580.5227" y1="265.59" y2="265.59"/></g><!--class MolhoBarbecue--><g class="entity" data-entity="MolhoBarbecue" data-source-line="54" data-uid="ent0042" id="entity_MolhoBarbecue"><rect fill="#F1F1F1" height="48" rx="2.5" ry="2.5" style="stroke:#181818;stroke-width:0.5;" width="140.5957" x="1718.7" y="225.59"/><ellipse cx="1733.7" cy="241.59" fill="#ADD1B2" rx="11" ry="11" style="stroke:#181818;stroke-width:1;"/><path d="M1736.6688,247.2306 Q1736.0906,247.5275 1735.45,247.6681 Q1734.8094,247.8244 1734.1063,247.8244 Q1731.6063,247.8244 1730.2781,246.1837 Q1728.9656,244.5275 1728.9656,241.4025 Q1728.9656,238.2775 1730.2781,236.6212 Q1731.6063,234.965 1734.1063,234.965 Q1734.8094,234.965 1735.45,235.1212 Q1736.1063,235.2775 1736.6688,235.5744 L1736.6688,238.2931 Q1736.0438,237.715 1735.45,237.4494 Q1734.8563,237.1681 1734.2313,237.1681 Q1732.8875,237.1681 1732.2,238.2462 Q1731.5125,239.3087 1731.5125,241.4025 Q1731.5125,243.4962 1732.2,244.5744 Q1732.8875,245.6369 1734.2313,245.6369 Q1734.8563,245.6369 1735.45,245.3712 Q1736.0438,245.09 1736.6688,244.5119 L1736.6688,247.2306 Z " fill="#000000"/><text fill="#000000" font-family="sans-serif" font-size="14" lengthAdjust="spacing" textLength="108.5957" x="1747.7" y="246.4367">MolhoBarbecue</text><line style="stroke:#181818;stroke-width:0.5;" x1="1719.7" x2="1858.2957" y1="257.59" y2="257.59"/><line style="stroke:#181818;stroke-width:0.5;" x1="1719.7" x2="1858.2957" y1="265.59" y2="265.59"/></g><!--class MolhoKetchup--><g class="entity" data-entity="MolhoKetchup" data-source-line="55" data-uid="ent0043" id="entity_MolhoKetchup"><rect fill="#F1F1F1" height="48" rx="2.5" ry="2.5" style="stroke:#181818;stroke-width:0.5;" width="131.5859" x="3633.21" y="225.59"/><ellipse cx="3648.21" cy="241.59" fill="#ADD1B2" rx="11" ry="11" style="stroke:#181818;stroke-width:1;"/><path d="M3651.1788,247.2306 Q3650.6006,247.5275 3649.96,247.6681 Q3649.3194,247.8244 3648.6163,247.8244 Q3646.1163,247.8244 3644.7881,246.1837 Q3643.4756,244.5275 3643.4756,241.4025 Q3643.4756,238.2775 3644.7881,236.6212 Q3646.1163,234.965 3648.6163,234.965 Q3649.3194,234.965 3649.96,235.1212 Q3650.6163,235.2775 3651.1788,235.5744 L3651.1788,238.2931 Q3650.5538,237.715 3649.96,237.4494 Q3649.3663,237.1681 3648.7413,237.1681 Q3647.3975,237.1681 3646.71,238.2462 Q3646.0225,239.3087 3646.0225,241.4025 Q3646.0225,243.4962 3646.71,244.5744 Q3647.3975,245.6369 3648.7413,245.6369 Q3649.3663,245.6369 3649.96,245.3712 Q3650.5538,245.09 3651.1788,244.5119 L3651.1788,247.2306 Z " fill="#000000"/><text fill="#000000" font-family="sans-serif" font-size="14" lengthAdjust="spacing" textLength="99.5859" x="3662.21" y="246.4367">MolhoKetchup</text><line style="stroke:#181818;stroke-width:0.5;" x1="3634.21" x2="3763.7959" y1="257.59" y2="257.59"/><line style="stroke:#181818;stroke-width:0.5;" x1="3634.21" x2="3763.7959" y1="265.59" y2="265.59"/></g><!--class MolhoMostarda--><g class="entity" data-entity="MolhoMostarda" data-source-line="56" data-uid="ent0044" id="entity_MolhoMostarda"><rect fill="#F1F1F1" height="48" rx="2.5" ry="2.5" style="stroke:#181818;stroke-width:0.5;" width="139.2012" x="3799.4" y="225.59"/><ellipse cx="3814.4" cy="241.59" fill="#ADD1B2" rx="11" ry="11" style="stroke:#181818;stroke-width:1;"/><path d="M3817.3688,247.2306 Q3816.7906,247.5275 3816.15,247.6681 Q3815.5094,247.8244 3814.8063,247.8244 Q3812.3063,247.8244 3810.9781,246.1837 Q3809.6656,244.5275 3809.6656,241.4025 Q3809.6656,238.2775 3810.9781,236.6212 Q3812.3063,234.965 3814.8063,234.965 Q3815.5094,234.965 3816.15,235.1212 Q3816.8063,235.2775 3817.3688,235.5744 L3817.3688,238.2931 Q3816.7438,237.715 3816.15,237.4494 Q3815.5563,237.1681 3814.9313,237.1681 Q3813.5875,237.1681 3812.9,238.2462 Q3812.2125,239.3087 3812.2125,241.4025 Q3812.2125,243.4962 3812.9,244.5744 Q3813.5875,245.6369 3814.9313,245.6369 Q3815.5563,245.6369 3816.15,245.3712 Q3816.7438,245.09 3817.3688,244.5119 L3817.3688,247.2306 Z " fill="#000000"/><text fill="#000000" font-family="sans-serif" font-size="14" lengthAdjust="spacing" textLength="107.2012" x="3828.4" y="246.4367">MolhoMostarda</text><line style="stroke:#181818;stroke-width:0.5;" x1="3800.4" x2="3937.6012" y1="257.59" y2="257.59"/><line style="stroke:#181818;stroke-width:0.5;" x1="3800.4" x2="3937.6012" y1="265.59" y2="265.59"/></g><!--class Picles--><g class="entity" data-entity="Picles" data-source-line="57" data-uid="ent0045" id="entity_Picles"><rect fill="#F1F1F1" height="48" rx="2.5" ry="2.5" style="stroke:#181818;stroke-width:0.5;" width="71.8262" x="3974.09" y="225.59"/><ellipse cx="3989.09" cy="241.59" fill="#ADD1B2" rx="11" ry="11" style="stroke:#181818;stroke-width:1;"/><path d="M3992.0588,247.2306 Q3991.4806,247.5275 3990.84,247.6681 Q3990.1994,247.8244 3989.4963,247.8244 Q3986.9963,247.8244 3985.6681,246.1837 Q3984.3556,244.5275 3984.3556,241.4025 Q3984.3556,238.2775 3985.6681,236.6212 Q3986.9963,234.965 3989.4963,234.965 Q3990.1994,234.965 3990.84,235.1212 Q3991.4963,235.2775 3992.0588,235.5744 L3992.0588,238.2931 Q3991.4338,237.715 3990.84,237.4494 Q3990.2463,237.1681 3989.6213,237.1681 Q3988.2775,237.1681 3987.59,238.2462 Q3986.9025,239.3087 3986.9025,241.4025 Q3986.9025,243.4962 3987.59,244.5744 Q3988.2775,245.6369 3989.6213,245.6369 Q3990.2463,245.6369 3990.84,245.3712 Q3991.4338,245.09 3992.0588,244.5119 L3992.0588,247.2306 Z " fill="#000000"/><text fill="#000000" font-family="sans-serif" font-size="14" lengthAdjust="spacing" textLength="39.8262" x="4003.09" y="246.4367">Picles</text><line style="stroke:#181818;stroke-width:0.5;" x1="3975.09" x2="4044.9162" y1="257.59" y2="257.59"/><line style="stroke:#181818;stroke-width:0.5;" x1="3975.09" x2="4044.9162" y1="265.59" y2="265.59"/></g><!--class QueijoCheddar--><g class="entity" data-entity="QueijoCheddar" data-source-line="58" data-uid="ent0046" id="entity_QueijoCheddar"><rect fill="#F1F1F1" height="48" rx="2.5" ry="2.5" style="stroke:#181818;stroke-width:0.5;" width="136.2207" x="1326.89" y="225.59"/><ellipse cx="1341.89" cy="241.59" fill="#ADD1B2" rx="11" ry="11" style="stroke:#181818;stroke-width:1;"/><path d="M1344.8588,247.2306 Q1344.2806,247.5275 1343.64,247.6681 Q1342.9994,247.8244 1342.2963,247.8244 Q1339.7963,247.8244 1338.4681,246.1837 Q1337.1556,244.5275 1337.1556,241.4025 Q1337.1556,238.2775 1338.4681,236.6212 Q1339.7963,234.965 1342.2963,234.965 Q1342.9994,234.965 1343.64,235.1212 Q1344.2963,235.2775 1344.8588,235.5744 L1344.8588,238.2931 Q1344.2338,237.715 1343.64,237.4494 Q1343.0463,237.1681 1342.4213,237.1681 Q1341.0775,237.1681 1340.39,238.2462 Q1339.7025,239.3087 1339.7025,241.4025 Q1339.7025,243.4962 1340.39,244.5744 Q1341.0775,245.6369 1342.4213,245.6369 Q1343.0463,245.6369 1343.64,245.3712 Q1344.2338,245.09 1344.8588,244.5119 L1344.8588,247.2306 Z " fill="#000000"/><text fill="#000000" font-family="sans-serif" font-size="14" lengthAdjust="spacing" textLength="104.2207" x="1355.89" y="246.4367">QueijoCheddar</text><line style="stroke:#181818;stroke-width:0.5;" x1="1327.89" x2="1462.1107" y1="257.59" y2="257.59"/><line style="stroke:#181818;stroke-width:0.5;" x1="1327.89" x2="1462.1107" y1="265.59" y2="265.59"/></g><!--class QueijoMussarela--><g class="entity" data-entity="QueijoMussarela" data-source-line="59" data-uid="ent0047" id="entity_QueijoMussarela"><rect fill="#F1F1F1" height="48" rx="2.5" ry="2.5" style="stroke:#181818;stroke-width:0.5;" width="147.8076" x="4081.1" y="225.59"/><ellipse cx="4096.1" cy="241.59" fill="#ADD1B2" rx="11" ry="11" style="stroke:#181818;stroke-width:1;"/><path d="M4099.0688,247.2306 Q4098.4906,247.5275 4097.85,247.6681 Q4097.2094,247.8244 4096.5063,247.8244 Q4094.0063,247.8244 4092.6781,246.1837 Q4091.3656,244.5275 4091.3656,241.4025 Q4091.3656,238.2775 4092.6781,236.6212 Q4094.0063,234.965 4096.5063,234.965 Q4097.2094,234.965 4097.85,235.1212 Q4098.5063,235.2775 4099.0688,235.5744 L4099.0688,238.2931 Q4098.4438,237.715 4097.85,237.4494 Q4097.2563,237.1681 4096.6313,237.1681 Q4095.2875,237.1681 4094.6,238.2462 Q4093.9125,239.3087 4093.9125,241.4025 Q4093.9125,243.4962 4094.6,244.5744 Q4095.2875,245.6369 4096.6313,245.6369 Q4097.2563,245.6369 4097.85,245.3712 Q4098.4438,245.09 4099.0688,244.5119 L4099.0688,247.2306 Z " fill="#000000"/><text fill="#000000" font-family="sans-serif" font-size="14" lengthAdjust="spacing" textLength="115.8076" x="4110.1" y="246.4367">QueijoMussarela</text><line style="stroke:#181818;stroke-width:0.5;" x1="4082.1" x2="4227.9076" y1="257.59" y2="257.59"/><line style="stroke:#181818;stroke-width:0.5;" x1="4082.1" x2="4227.9076" y1="265.59" y2="265.59"/></g><!--class SorveteBaunilha--><g class="entity" data-entity="SorveteBaunilha" data-source-line="60" data-uid="ent0048" id="entity_SorveteBaunilha"><rect fill="#F1F1F1" height="48" rx="2.5" ry="2.5" style="stroke:#181818;stroke-width:0.5;" width="147.3701" x="2616.31" y="225.59"/><ellipse cx="2631.31" cy="241.59" fill="#ADD1B2" rx="11" ry="11" style="stroke:#181818;stroke-width:1;"/><path d="M2634.2788,247.2306 Q2633.7006,247.5275 2633.06,247.6681 Q2632.4194,247.8244 2631.7163,247.8244 Q2629.2163,247.8244 2627.8881,246.1837 Q2626.5756,244.5275 2626.5756,241.4025 Q2626.5756,238.2775 2627.8881,236.6212 Q2629.2163,234.965 2631.7163,234.965 Q2632.4194,234.965 2633.06,235.1212 Q2633.7163,235.2775 2634.2788,235.5744 L2634.2788,238.2931 Q2633.6538,237.715 2633.06,237.4494 Q2632.4663,237.1681 2631.8413,237.1681 Q2630.4975,237.1681 2629.81,238.2462 Q2629.1225,239.3087 2629.1225,241.4025 Q2629.1225,243.4962 2629.81,244.5744 Q2630.4975,245.6369 2631.8413,245.6369 Q2632.4663,245.6369 2633.06,245.3712 Q2633.6538,245.09 2634.2788,244.5119 L2634.2788,247.2306 Z " fill="#000000"/><text fill="#000000" font-family="sans-serif" font-size="14" lengthAdjust="spacing" textLength="115.3701" x="2645.31" y="246.4367">SorveteBaunilha</text><line style="stroke:#181818;stroke-width:0.5;" x1="2617.31" x2="2762.6801" y1="257.59" y2="257.59"/><line style="stroke:#181818;stroke-width:0.5;" x1="2617.31" x2="2762.6801" y1="265.59" y2="265.59"/></g><!--link Hamburguer to Alimento--><g class="link" data-entity-1="Hamburguer" data-entity-2="Alimento" data-source-line="22" data-uid="lnk15" id="link_Hamburguer_Alimento"><path codeLine="22" d="M1060.59,119.08 C1089.17,123.55 1123.77,128.57 1155,132 C1315.05,149.58 1719.07,161.61 1877,193 C1882.54,194.1 1870.5964,191.3062 1876.2364,192.5862" fill="none" id="Hamburguer-to-Alimento" style="stroke:#181818;stroke-width:1;"/><polygon fill="none" points="1893.79,196.57,1877.5643,186.735,1874.9085,198.4374,1893.79,196.57" style="stroke:#181818;stroke-width:1;"/></g><!--link BatatasFritas to Alimento--><g class="link" data-entity-1="BatatasFritas" data-entity-2="Alimento" data-source-line="23" data-uid="lnk16" id="link_BatatasFritas_Alimento"><path codeLine="23" d="M802.63,118.08 C837.67,122.86 882.19,128.46 922,132 C1133.82,150.83 1668.04,153.55 1877,193 C1882.55,194.05 1870.5884,191.3314 1876.2384,192.5714" fill="none" id="BatatasFritas-to-Alimento" style="stroke:#181818;stroke-width:1;"/><polygon fill="none" points="1893.82,196.43,1877.5246,186.7109,1874.9522,198.4319,1893.82,196.43" style="stroke:#181818;stroke-width:1;"/></g><!--link Refrigerante to Alimento--><g class="link" data-entity-1="Refrigerante" data-entity-2="Alimento" data-source-line="24" data-uid="lnk17" id="link_Refrigerante_Alimento"><path codeLine="24" d="M454.17,114.83 C508.05,119.9 589.24,127.17 660,132 C930.16,150.44 1610.13,147.12 1877,193 C1882.48,193.94 1870.4005,191.3567 1875.9805,192.5067" fill="none" id="Refrigerante-to-Alimento" style="stroke:#181818;stroke-width:1;"/><polygon fill="none" points="1893.61,196.14,1877.1916,186.6302,1874.7694,198.3832,1893.61,196.14" style="stroke:#181818;stroke-width:1;"/></g><!--link CheeseBurguer to Alimento--><g class="link" data-entity-1="CheeseBurguer" data-entity-2="Alimento" data-source-line="25" data-uid="lnk18" id="link_CheeseBurguer_Alimento"><path codeLine="25" d="M1313.52,122.31 C1332.47,125.69 1352.99,129.16 1372,132 C1595.59,165.41 1655.67,146.91 1877,193 C1882.53,194.15 1870.5967,191.3176 1876.2367,192.6276" fill="none" id="CheeseBurguer-to-Alimento" style="stroke:#181818;stroke-width:1;"/><polygon fill="none" points="1893.77,196.7,1877.5942,186.7831,1874.8793,198.472,1893.77,196.7" style="stroke:#181818;stroke-width:1;"/></g><!--link BaconBurguer to Alimento--><g class="link" data-entity-1="BaconBurguer" data-entity-2="Alimento" data-source-line="26" data-uid="lnk19" id="link_BaconBurguer_Alimento"><path codeLine="26" d="M1521.21,120.19 C1604.67,134.75 1752.3,162.03 1877,193 C1882.48,194.36 1870.6298,191.2098 1876.2298,192.6798" fill="none" id="BaconBurguer-to-Alimento" style="stroke:#181818;stroke-width:1;"/><polygon fill="none" points="1893.64,197.25,1877.7532,186.8764,1874.7065,198.4832,1893.64,197.25" style="stroke:#181818;stroke-width:1;"/></g><!--link BigBurguer to Alimento--><g class="link" data-entity-1="BigBurguer" data-entity-2="Alimento" data-source-line="27" data-uid="lnk20" id="link_BigBurguer_Alimento"><path codeLine="27" d="M2063,132.36 C2063,148.82 2063,153.57 2063,174.59" fill="none" id="BigBurguer-to-Alimento" style="stroke:#181818;stroke-width:1;"/><polygon fill="none" points="2063,192.59,2069,174.59,2057,174.59,2063,192.59" style="stroke:#181818;stroke-width:1;"/></g><!--link ChickenBurguer to Alimento--><g class="link" data-entity-1="ChickenBurguer" data-entity-2="Alimento" data-source-line="28" data-uid="lnk21" id="link_ChickenBurguer_Alimento"><path codeLine="28" d="M2197.88,132.36 C2178.79,148.82 2166.015,159.819 2141.625,180.839" fill="none" id="ChickenBurguer-to-Alimento" style="stroke:#181818;stroke-width:1;"/><polygon fill="none" points="2127.99,192.59,2145.542,185.384,2137.708,176.294,2127.99,192.59" style="stroke:#181818;stroke-width:1;"/></g><!--link MilkShake to Alimento--><g class="link" data-entity-1="MilkShake" data-entity-2="Alimento" data-source-line="29" data-uid="lnk22" id="link_MilkShake_Alimento"><path codeLine="29" d="M2383.27,128.41 C2338.96,145.04 2289.7119,163.5143 2229.0519,186.2843" fill="none" id="MilkShake-to-Alimento" style="stroke:#181818;stroke-width:1;"/><polygon fill="none" points="2212.2,192.61,2231.1604,191.9016,2226.9433,180.667,2212.2,192.61" style="stroke:#181818;stroke-width:1;"/></g><!--link Suco to Alimento--><g class="link" data-entity-1="Suco" data-entity-2="Alimento" data-source-line="30" data-uid="lnk23" id="link_Suco_Alimento"><path codeLine="30" d="M2822.79,111.79 C2730.8,119.92 2465.24,146.01 2249,193 C2243.48,194.2 2255.4008,191.3122 2249.7708,192.6522" fill="none" id="Suco-to-Alimento" style="stroke:#181818;stroke-width:1;"/><polygon fill="none" points="2232.26,196.82,2251.1601,198.4892,2248.3816,186.8153,2232.26,196.82" style="stroke:#181818;stroke-width:1;"/></g><!--link VeggieBurguer to Alimento--><g class="link" data-entity-1="VeggieBurguer" data-entity-2="Alimento" data-source-line="31" data-uid="lnk24" id="link_VeggieBurguer_Alimento"><path codeLine="31" d="M1930.61,132.36 C1949.35,148.82 1961.7439,159.6937 1985.6839,180.7137" fill="none" id="VeggieBurguer-to-Alimento" style="stroke:#181818;stroke-width:1;"/><polygon fill="none" points="1999.21,192.59,1989.6427,176.205,1981.7252,185.2224,1999.21,192.59" style="stroke:#181818;stroke-width:1;"/></g><!--link PaoDeHamburguer to Ingrediente--><g class="link" data-entity-1="PaoDeHamburguer" data-entity-2="Ingrediente" data-source-line="62" data-uid="lnk49" id="link_PaoDeHamburguer_Ingrediente"><path codeLine="62" d="M739.65,273.95 C758.26,285.42 782.05,298.41 805,306.19 C940.72,352.2 981.48,338.13 1124,353.19 C1493.51,392.22 1918.7638,411.6365 2100.2938,418.7365" fill="none" id="PaoDeHamburguer-to-Ingrediente" style="stroke:#181818;stroke-width:1;"/><polygon fill="none" points="2118.28,419.44,2100.5282,412.7411,2100.0593,424.7319,2118.28,419.44" style="stroke:#181818;stroke-width:1;"/></g><!--link FatiaTomate to Ingrediente--><g class="link" data-entity-1="FatiaTomate" data-entity-2="Ingrediente" data-source-line="63" data-uid="lnk50" id="link_FatiaTomate_Ingrediente"><path codeLine="63" d="M1125.47,273.85 C1139.6,285.15 1157.8,298.02 1176,306.19 C1264.05,345.69 1292.6,338.62 1388,353.19 C1652.99,393.65 1952.3995,411.3017 2100.3895,418.2017" fill="none" id="FatiaTomate-to-Ingrediente" style="stroke:#181818;stroke-width:1;"/><polygon fill="none" points="2118.37,419.04,2100.669,412.2082,2100.1101,424.1952,2118.37,419.04" style="stroke:#181818;stroke-width:1;"/></g><!--link CarneDeHamburguer to Ingrediente--><g class="link" data-entity-1="CarneDeHamburguer" data-entity-2="Ingrediente" data-source-line="64" data-uid="lnk51" id="link_CarneDeHamburguer_Ingrediente"><path codeLine="64" d="M952.08,274.06 C972.1,285.2 997.21,297.87 1021,306.19 C1121.54,341.34 1150.46,338.82 1256,353.19 C1572.76,396.29 1935.1018,413.2194 2100.4518,419.1994" fill="none" id="CarneDeHamburguer-to-Ingrediente" style="stroke:#181818;stroke-width:1;"/><polygon fill="none" points="2118.44,419.85,2100.6686,413.2034,2100.2349,425.1955,2118.44,419.85" style="stroke:#181818;stroke-width:1;"/></g><!--link Batata to Ingrediente--><g class="link" data-entity-1="Batata" data-entity-2="Ingrediente" data-source-line="65" data-uid="lnk52" id="link_Batata_Ingrediente"><path codeLine="65" d="M565.84,273.88 C576.02,285.48 589.78,298.61 605,306.19 C729.76,368.26 776.37,338.98 915,353.19 C1367.7,399.58 1895.3849,415.5808 2100.5949,420.3608" fill="none" id="Batata-to-Ingrediente" style="stroke:#181818;stroke-width:1;"/><polygon fill="none" points="2118.59,420.78,2100.7346,414.3625,2100.4552,426.3592,2118.59,420.78" style="stroke:#181818;stroke-width:1;"/></g><!--link MeioLitroDeAguaGaseificada to Ingrediente--><g class="link" data-entity-1="MeioLitroDeAguaGaseificada" data-entity-2="Ingrediente" data-source-line="66" data-uid="lnk53" id="link_MeioLitroDeAguaGaseificada_Ingrediente"><path codeLine="66" d="M212,274.04 C236.96,285.17 268.08,297.84 297,306.19 C416.55,340.69 449.26,340.07 573,353.19 C1162.73,415.69 1860.2,422.2745 2100.66,422.6145" fill="none" id="MeioLitroDeAguaGaseificada-to-Ingrediente" style="stroke:#181818;stroke-width:1;"/><polygon fill="none" points="2118.66,422.64,2100.6685,416.6146,2100.6515,428.6145,2118.66,422.64" style="stroke:#181818;stroke-width:1;"/></g><!--link RefrigeranteEmPo to Ingrediente--><g class="link" data-entity-1="RefrigeranteEmPo" data-entity-2="Ingrediente" data-source-line="67" data-uid="lnk54" id="link_RefrigeranteEmPo_Ingrediente"><path codeLine="67" d="M429.22,273.86 C447.13,284.88 469.6,297.51 491,306.19 C569.22,337.9 591.52,340.76 675,353.19 C957.01,395.15 1823.4035,415.1358 2100.2735,420.5858" fill="none" id="RefrigeranteEmPo-to-Ingrediente" style="stroke:#181818;stroke-width:1;"/><polygon fill="none" points="2118.27,420.94,2100.3916,414.5869,2100.1554,426.5846,2118.27,420.94" style="stroke:#181818;stroke-width:1;"/></g><!--link Alface to Ingrediente--><g class="link" data-entity-1="Alface" data-entity-2="Ingrediente" data-source-line="68" data-uid="lnk55" id="link_Alface_Ingrediente"><path codeLine="68" d="M1554.21,273.96 C1564.02,285.15 1576.98,297.88 1591,306.19 C1656.23,344.84 1680.95,336.9 1755,353.19 C1880.59,380.8 2010.5493,399.2049 2100.7693,410.4949" fill="none" id="Alface-to-Ingrediente" style="stroke:#181818;stroke-width:1;"/><polygon fill="none" points="2118.63,412.73,2101.5143,404.5414,2100.0243,416.4485,2118.63,412.73" style="stroke:#181818;stroke-width:1;"/></g><!--link Bacon to Ingrediente--><g class="link" data-entity-1="Bacon" data-entity-2="Ingrediente" data-source-line="69" data-uid="lnk56" id="link_Bacon_Ingrediente"><path codeLine="69" d="M1663.79,273.98 C1673.59,285.32 1686.66,298.17 1701,306.19 C1834.89,380.98 1996.7054,406.1143 2100.5054,415.6443" fill="none" id="Bacon-to-Ingrediente" style="stroke:#181818;stroke-width:1;"/><polygon fill="none" points="2118.43,417.29,2101.0539,409.6694,2099.9568,421.6192,2118.43,417.29" style="stroke:#181818;stroke-width:1;"/></g><!--link CaldasChocolate to Ingrediente--><g class="link" data-entity-1="CaldasChocolate" data-entity-2="Ingrediente" data-source-line="70" data-uid="lnk57" id="link_CaldasChocolate_Ingrediente"><path codeLine="70" d="M2322.25,273.77 C2299.65,301.72 2272.6187,335.154 2245.3087,368.924" fill="none" id="CaldasChocolate-to-Ingrediente" style="stroke:#181818;stroke-width:1;"/><polygon fill="none" points="2233.99,382.92,2249.974,372.6969,2240.6433,365.1511,2233.99,382.92" style="stroke:#181818;stroke-width:1;"/></g><!--link CarneDeSoja to Ingrediente--><g class="link" data-entity-1="CarneDeSoja" data-entity-2="Ingrediente" data-source-line="71" data-uid="lnk58" id="link_CarneDeSoja_Ingrediente"><path codeLine="71" d="M3202.74,273.92 C3188.19,285.52 3169.2,298.65 3150,306.19 C2992.94,367.81 2504.5045,403.8209 2303.4045,416.4609" fill="none" id="CarneDeSoja-to-Ingrediente" style="stroke:#181818;stroke-width:1;"/><polygon fill="none" points="2285.44,417.59,2303.7809,422.449,2303.0282,410.4727,2285.44,417.59" style="stroke:#181818;stroke-width:1;"/></g><!--link CarneFrango to Ingrediente--><g class="link" data-entity-1="CarneFrango" data-entity-2="Ingrediente" data-source-line="72" data-uid="lnk59" id="link_CarneFrango_Ingrediente"><path codeLine="72" d="M3360.32,274.05 C3345.81,285.55 3326.98,298.53 3308,306.19 C3181.2,357.32 3139.74,336.85 3004,353.19 C2742.62,384.65 2449.6197,406.1261 2303.5697,415.9161" fill="none" id="CarneFrango-to-Ingrediente" style="stroke:#181818;stroke-width:1;"/><polygon fill="none" points="2285.61,417.12,2303.971,421.9027,2303.1684,409.9296,2285.61,417.12" style="stroke:#181818;stroke-width:1;"/></g><!--link FatiaCebola to Ingrediente--><g class="link" data-entity-1="FatiaCebola" data-entity-2="Ingrediente" data-source-line="73" data-uid="lnk60" id="link_FatiaCebola_Ingrediente"><path codeLine="73" d="M3516.26,273.95 C3502.51,285.57 3484.47,298.69 3466,306.19 C3319.74,365.51 3270.98,336.76 3114,353.19 C2809.4,385.07 2464.0586,407.1774 2303.4186,416.6774" fill="none" id="FatiaCebola-to-Ingrediente" style="stroke:#181818;stroke-width:1;"/><polygon fill="none" points="2285.45,417.74,2303.7728,422.6669,2303.0644,410.6878,2285.45,417.74" style="stroke:#181818;stroke-width:1;"/></g><!--link FrutaCitrica to Ingrediente--><g class="link" data-entity-1="FrutaCitrica" data-entity-2="Ingrediente" data-source-line="74" data-uid="lnk61" id="link_FrutaCitrica_Ingrediente"><path codeLine="74" d="M2830.38,274.02 C2816.66,285.37 2798.92,298.22 2781,306.19 C2614.92,379.97 2419.1852,405.8036 2303.4452,415.6536" fill="none" id="FrutaCitrica-to-Ingrediente" style="stroke:#181818;stroke-width:1;"/><polygon fill="none" points="2285.51,417.18,2303.954,421.632,2302.9364,409.6752,2285.51,417.18" style="stroke:#181818;stroke-width:1;"/></g><!--link Maionese to Ingrediente--><g class="link" data-entity-1="Maionese" data-entity-2="Ingrediente" data-source-line="75" data-uid="lnk62" id="link_Maionese_Ingrediente"><path codeLine="75" d="M1264.74,273.91 C1276.72,285.37 1292.48,298.36 1309,306.19 C1411.97,354.94 1448.28,336.61 1561,353.19 C1760.2,382.49 1977.9982,403.2547 2100.5782,413.9547" fill="none" id="Maionese-to-Ingrediente" style="stroke:#181818;stroke-width:1;"/><polygon fill="none" points="2118.51,415.52,2101.0999,407.9775,2100.0564,419.932,2118.51,415.52" style="stroke:#181818;stroke-width:1;"/></g><!--link MeioLitroAguaMineral to Ingrediente--><g class="link" data-entity-1="MeioLitroAguaMineral" data-entity-2="Ingrediente" data-source-line="76" data-uid="lnk63" id="link_MeioLitroAguaMineral_Ingrediente"><path codeLine="76" d="M3000.43,273.98 C2979.99,285.17 2954.31,297.91 2930,306.19 C2704.96,382.86 2441.1829,408.3354 2303.5029,417.1854" fill="none" id="MeioLitroAguaMineral-to-Ingrediente" style="stroke:#181818;stroke-width:1;"/><polygon fill="none" points="2285.54,418.34,2303.8878,423.173,2303.118,411.1977,2285.54,418.34" style="stroke:#181818;stroke-width:1;"/></g><!--link MeioLitroLeite to Ingrediente--><g class="link" data-entity-1="MeioLitroLeite" data-entity-2="Ingrediente" data-source-line="77" data-uid="lnk64" id="link_MeioLitroLeite_Ingrediente"><path codeLine="77" d="M2483.08,274.01 C2468.08,284.32 2449.93,296.31 2433,306.19 C2385.3,334.02 2346.314,354.1222 2301.844,375.6322" fill="none" id="MeioLitroLeite-to-Ingrediente" style="stroke:#181818;stroke-width:1;"/><polygon fill="none" points="2285.64,383.47,2304.4566,381.0335,2299.2314,370.2309,2285.64,383.47" style="stroke:#181818;stroke-width:1;"/></g><!--link MolhoBarbecue to Ingrediente--><g class="link" data-entity-1="MolhoBarbecue" data-entity-2="Ingrediente" data-source-line="78" data-uid="lnk65" id="link_MolhoBarbecue_Ingrediente"><path codeLine="78" d="M1822.26,274.05 C1838.32,284.73 1858.16,297 1877,306.19 C1956.19,344.78 2034.4004,372.0599 2101.2904,392.8399" fill="none" id="MolhoBarbecue-to-Ingrediente" style="stroke:#181818;stroke-width:1;"/><polygon fill="none" points="2118.48,398.18,2103.0704,387.11,2099.5103,398.5698,2118.48,398.18" style="stroke:#181818;stroke-width:1;"/></g><!--link MolhoKetchup to Ingrediente--><g class="link" data-entity-1="MolhoKetchup" data-entity-2="Ingrediente" data-source-line="79" data-uid="lnk66" id="link_MolhoKetchup_Ingrediente"><path codeLine="79" d="M3671.24,273.95 C3655.91,285.57 3635.97,298.69 3616,306.19 C3462.45,363.8 3413.23,337.32 3250,353.19 C2892.02,387.97 2481.4899,409.4386 2303.6699,417.8586" fill="none" id="MolhoKetchup-to-Ingrediente" style="stroke:#181818;stroke-width:1;"/><polygon fill="none" points="2285.69,418.71,2303.9536,423.8519,2303.3861,411.8653,2285.69,418.71" style="stroke:#181818;stroke-width:1;"/></g><!--link MolhoMostarda to Ingrediente--><g class="link" data-entity-1="MolhoMostarda" data-entity-2="Ingrediente" data-source-line="80" data-uid="lnk67" id="link_MolhoMostarda_Ingrediente"><path codeLine="80" d="M3839.76,274 C3823.65,285.63 3802.76,298.75 3782,306.19 C3616.81,365.36 3564.78,337.63 3390,353.19 C2976.37,390.01 2497.8861,411.0234 2303.6561,418.6534" fill="none" id="MolhoMostarda-to-Ingrediente" style="stroke:#181818;stroke-width:1;"/><polygon fill="none" points="2285.67,419.36,2303.8916,424.6488,2303.4206,412.6581,2285.67,419.36" style="stroke:#181818;stroke-width:1;"/></g><!--link Picles to Ingrediente--><g class="link" data-entity-1="Picles" data-entity-2="Ingrediente" data-source-line="81" data-uid="lnk68" id="link_Picles_Ingrediente"><path codeLine="81" d="M3993.68,273.83 C3984.12,285.56 3970.98,298.84 3956,306.19 C3788.56,388.33 3724.88,337.91 3539,353.19 C3065.57,392.1 2513.9104,412.4637 2303.4204,419.3237" fill="none" id="Picles-to-Ingrediente" style="stroke:#181818;stroke-width:1;"/><polygon fill="none" points="2285.43,419.91,2303.6159,425.3205,2303.225,413.3269,2285.43,419.91" style="stroke:#181818;stroke-width:1;"/></g><!--link QueijoCheddar to Ingrediente--><g class="link" data-entity-1="QueijoCheddar" data-entity-2="Ingrediente" data-source-line="82" data-uid="lnk69" id="link_QueijoCheddar_Ingrediente"><path codeLine="82" d="M1425.92,273.94 C1441.72,284.98 1461.67,297.6 1481,306.19 C1554.6,338.89 1576.98,337.64 1656,353.19 C1818.43,385.15 1993.1553,403.9453 2100.7253,413.8153" fill="none" id="QueijoCheddar-to-Ingrediente" style="stroke:#181818;stroke-width:1;"/><polygon fill="none" points="2118.65,415.46,2101.2735,407.8404,2100.1771,419.7902,2118.65,415.46" style="stroke:#181818;stroke-width:1;"/></g><!--link QueijoMussarela to Ingrediente--><g class="link" data-entity-1="QueijoMussarela" data-entity-2="Ingrediente" data-source-line="83" data-uid="lnk70" id="link_QueijoMussarela_Ingrediente"><path codeLine="83" d="M4123.83,273.82 C4106.73,285.41 4084.64,298.54 4063,306.19 C3917.51,357.6 3872.67,339.21 3719,353.19 C3173.86,402.78 2533.1275,417.212 2303.6375,421.012" fill="none" id="QueijoMussarela-to-Ingrediente" style="stroke:#181818;stroke-width:1;"/><polygon fill="none" points="2285.64,421.31,2303.7369,427.0112,2303.5382,415.0128,2285.64,421.31" style="stroke:#181818;stroke-width:1;"/></g><!--link SorveteBaunilha to Ingrediente--><g class="link" data-entity-1="SorveteBaunilha" data-entity-2="Ingrediente" data-source-line="84" data-uid="lnk71" id="link_SorveteBaunilha_Ingrediente"><path codeLine="84" d="M2656.59,273.93 C2639.87,284.84 2618.98,297.34 2599,306.19 C2494.91,352.26 2385.0689,381.8119 2303.1389,400.7219" fill="none" id="SorveteBaunilha-to-Ingrediente" style="stroke:#181818;stroke-width:1;"/><polygon fill="none" points="2285.6,404.77,2304.4883,406.5682,2301.7895,394.8756,2285.6,404.77" style="stroke:#181818;stroke-width:1;"/></g><!--link Alimento to Ingrediente--><g class="link" data-entity-1="Alimento" data-entity-2="Ingrediente" data-source-line="87" data-uid="lnk72" id="link_Alimento_Ingrediente"><path codeLine="87" d="M2108.13,306.4 C2128.26,331.3 2147.7475,355.3943 2166.0775,378.0643" fill="none" id="Alimento-to-Ingrediente" style="stroke:#181818;stroke-width:1;"/><polygon fill="#181818" points="2169.85,382.73,2167.3018,373.2165,2166.7063,378.8419,2161.0809,378.2465,2169.85,382.73" style="stroke:#181818;stroke-width:1;"/><text fill="#000000" font-family="sans-serif" font-size="13" lengthAdjust="spacing" textLength="38.9619" x="2145" y="349.2569">utiliza</text><text fill="#000000" font-family="sans-serif" font-size="13" lengthAdjust="spacing" textLength="23.0356" x="2139.8968" y="372.1165">0..*</text></g><!--link Hamburguer to PaoDeHamburguer--><g class="link" data-entity-1="Hamburguer" data-entity-2="PaoDeHamburguer" data-source-line="88" data-uid="lnk73" id="link_Hamburguer_PaoDeHamburguer"><path codeLine="88" d="M941.28,132.48 C902.21,148.55 849.99,170.87 805,193 C784.86,202.9 768.2262,211.935 750.1062,222.235" fill="none" id="Hamburguer-to-PaoDeHamburguer" style="stroke:#181818;stroke-width:1;"/><polygon fill="#181818" points="744.89,225.2,754.691,224.2299,749.2368,222.7291,750.7376,217.275,744.89,225.2" style="stroke:#181818;stroke-width:1;"/></g><!--link Hamburguer to FatiaTomate--><g class="link" data-entity-1="Hamburguer" data-entity-2="FatiaTomate" data-source-line="89" data-uid="lnk74" id="link_Hamburguer_FatiaTomate"><path codeLine="89" d="M1016.57,132.36 C1034.85,158.13 1060.6087,194.4561 1078.9087,220.2561" fill="none" id="Hamburguer-to-FatiaTomate" style="stroke:#181818;stroke-width:1;"/><polygon fill="#181818" points="1082.38,225.15,1080.4357,215.495,1079.4873,221.0717,1073.9105,220.1233,1082.38,225.15" style="stroke:#181818;stroke-width:1;"/></g><!--link Hamburguer to CarneDeHamburguer--><g class="link" data-entity-1="Hamburguer" data-entity-2="CarneDeHamburguer" data-source-line="90" data-uid="lnk75" id="link_Hamburguer_CarneDeHamburguer"><path codeLine="90" d="M985.44,132.36 C969.38,158.13 946.8636,194.258 930.7836,220.058" fill="none" id="Hamburguer-to-CarneDeHamburguer" style="stroke:#181818;stroke-width:1;"/><polygon fill="#181818" points="927.61,225.15,935.7651,219.6278,930.2547,220.9067,928.9758,215.3963,927.61,225.15" style="stroke:#181818;stroke-width:1;"/></g><!--link BatatasFritas to Batata--><g class="link" data-entity-1="BatatasFritas" data-entity-2="Batata" data-source-line="91" data-uid="lnk76" id="link_BatatasFritas_Batata"><path codeLine="91" d="M697.38,132.33 C670,148.07 634.22,170.1 605,193 C592.6,202.72 584.1434,210.5285 573.9134,220.9485" fill="none" id="BatatasFritas-to-Batata" style="stroke:#181818;stroke-width:1;"/><polygon fill="#181818" points="569.71,225.23,578.8695,221.61,573.2129,221.6621,573.1608,216.0055,569.71,225.23" style="stroke:#181818;stroke-width:1;"/></g><!--link Refrigerante to MeioLitroDeAguaGaseificada--><g class="link" data-entity-1="Refrigerante" data-entity-2="MeioLitroDeAguaGaseificada" data-source-line="92" data-uid="lnk77" id="link_Refrigerante_MeioLitroDeAguaGaseificada"><path codeLine="92" d="M355.34,132.36 C312.69,158.13 249.6151,196.2466 206.9251,222.0466" fill="none" id="Refrigerante-to-MeioLitroDeAguaGaseificada" style="stroke:#181818;stroke-width:1;"/><polygon fill="#181818" points="201.79,225.15,211.5615,223.9183,206.0692,222.5638,207.4237,217.0715,201.79,225.15" style="stroke:#181818;stroke-width:1;"/></g><!--link Refrigerante to RefrigeranteEmPo--><g class="link" data-entity-1="Refrigerante" data-entity-2="RefrigeranteEmPo" data-source-line="93" data-uid="lnk78" id="link_Refrigerante_RefrigeranteEmPo"><path codeLine="93" d="M394,132.36 C394,158.13 394,193.35 394,219.15" fill="none" id="Refrigerante-to-RefrigeranteEmPo" style="stroke:#181818;stroke-width:1;"/><polygon fill="#181818" points="394,225.15,398,216.15,394,220.15,390,216.15,394,225.15" style="stroke:#181818;stroke-width:1;"/></g><!--link CheeseBurguer to PaoDeHamburguer--><g class="link" data-entity-1="CheeseBurguer" data-entity-2="PaoDeHamburguer" data-source-line="94" data-uid="lnk79" id="link_CheeseBurguer_PaoDeHamburguer"><path codeLine="94" d="M1172.71,119.69 C1066.8,136.28 871.59,168.81 805,193 C782.41,201.2 763.9576,210.9543 745.3776,222.2443" fill="none" id="CheeseBurguer-to-PaoDeHamburguer" style="stroke:#181818;stroke-width:1;"/><polygon fill="#181818" points="740.25,225.36,750.0185,224.1048,744.523,222.7635,745.8642,217.268,740.25,225.36" style="stroke:#181818;stroke-width:1;"/></g><!--link CheeseBurguer to CarneDeHamburguer--><g class="link" data-entity-1="CheeseBurguer" data-entity-2="CarneDeHamburguer" data-source-line="95" data-uid="lnk80" id="link_CheeseBurguer_CarneDeHamburguer"><path codeLine="95" d="M1175.16,132.4 C1130.79,148.26 1071.83,170.39 1021,193 C999.13,202.73 980.7229,211.953 961.1129,222.333" fill="none" id="CheeseBurguer-to-CarneDeHamburguer" style="stroke:#181818;stroke-width:1;"/><polygon fill="#181818" points="955.81,225.14,965.6357,224.4649,960.2291,222.8009,961.8931,217.3943,955.81,225.14" style="stroke:#181818;stroke-width:1;"/></g><!--link CheeseBurguer to QueijoCheddar--><g class="link" data-entity-1="CheeseBurguer" data-entity-2="QueijoCheddar" data-source-line="96" data-uid="lnk81" id="link_CheeseBurguer_QueijoCheddar"><path codeLine="96" d="M1268.44,132.36 C1296.5,158.13 1336.9603,195.2921 1365.0603,221.0921" fill="none" id="CheeseBurguer-to-QueijoCheddar" style="stroke:#181818;stroke-width:1;"/><polygon fill="#181818" points="1369.48,225.15,1365.5558,216.1167,1365.797,221.7684,1360.1452,222.0096,1369.48,225.15" style="stroke:#181818;stroke-width:1;"/></g><!--link CheeseBurguer to Alface--><g class="link" data-entity-1="CheeseBurguer" data-entity-2="Alface" data-source-line="97" data-uid="lnk82" id="link_CheeseBurguer_Alface"><path codeLine="97" d="M1313.4,124.88 C1362.87,138.11 1429.19,160.15 1481,193 C1494.65,201.65 1503.4958,209.7927 1513.3358,220.8227" fill="none" id="CheeseBurguer-to-Alface" style="stroke:#181818;stroke-width:1;"/><polygon fill="#181818" points="1517.33,225.3,1514.3235,215.9213,1514.0015,221.5689,1508.3538,221.2469,1517.33,225.3" style="stroke:#181818;stroke-width:1;"/></g><!--link CheeseBurguer to FatiaTomate--><g class="link" data-entity-1="CheeseBurguer" data-entity-2="FatiaTomate" data-source-line="98" data-uid="lnk83" id="link_CheeseBurguer_FatiaTomate"><path codeLine="98" d="M1218.9,132.36 C1192.32,158.13 1154.0977,195.1734 1127.4877,220.9734" fill="none" id="CheeseBurguer-to-FatiaTomate" style="stroke:#181818;stroke-width:1;"/><polygon fill="#181818" points="1123.18,225.15,1132.4259,221.7569,1126.7697,221.6695,1126.8572,216.0133,1123.18,225.15" style="stroke:#181818;stroke-width:1;"/></g><!--link CheeseBurguer to Maionese--><g class="link" data-entity-1="CheeseBurguer" data-entity-2="Maionese" data-source-line="99" data-uid="lnk84" id="link_CheeseBurguer_Maionese"><path codeLine="99" d="M1243,132.36 C1243,158.13 1243,193.35 1243,219.15" fill="none" id="CheeseBurguer-to-Maionese" style="stroke:#181818;stroke-width:1;"/><polygon fill="#181818" points="1243,225.15,1247,216.15,1243,220.15,1239,216.15,1243,225.15" style="stroke:#181818;stroke-width:1;"/></g><!--link BaconBurguer to PaoDeHamburguer--><g class="link" data-entity-1="BaconBurguer" data-entity-2="PaoDeHamburguer" data-source-line="100" data-uid="lnk85" id="link_BaconBurguer_PaoDeHamburguer"><path codeLine="100" d="M1388.86,122.13 C1370.19,125.6 1349.84,129.16 1331,132 C1214.64,149.52 917.01,156.94 805,193 C781.74,200.49 762.8424,210.4371 744.1924,222.0571" fill="none" id="BaconBurguer-to-PaoDeHamburguer" style="stroke:#181818;stroke-width:1;"/><polygon fill="#181818" points="739.1,225.23,748.8539,223.8656,743.3437,222.5859,744.6234,217.0757,739.1,225.23" style="stroke:#181818;stroke-width:1;"/></g><!--link BaconBurguer to CarneDeHamburguer--><g class="link" data-entity-1="BaconBurguer" data-entity-2="CarneDeHamburguer" data-source-line="101" data-uid="lnk86" id="link_BaconBurguer_CarneDeHamburguer"><path codeLine="101" d="M1389.08,121.25 C1271.99,143.08 1038.34,187 1021,193 C997.09,201.28 977.0993,211.0859 957.0493,222.2759" fill="none" id="BaconBurguer-to-CarneDeHamburguer" style="stroke:#181818;stroke-width:1;"/><polygon fill="#181818" points="951.81,225.2,961.6183,224.3068,956.1761,222.7633,957.7195,217.3211,951.81,225.2" style="stroke:#181818;stroke-width:1;"/></g><!--link BaconBurguer to Bacon--><g class="link" data-entity-1="BaconBurguer" data-entity-2="Bacon" data-source-line="102" data-uid="lnk87" id="link_BaconBurguer_Bacon"><path codeLine="102" d="M1498.7,132.45 C1526.27,148.08 1562.01,169.93 1591,193 C1603.11,202.63 1611.2225,210.3458 1621.0725,220.7858" fill="none" id="BaconBurguer-to-Bacon" style="stroke:#181818;stroke-width:1;"/><polygon fill="#181818" points="1625.19,225.15,1621.9231,215.8587,1621.7587,221.5132,1616.1043,221.3488,1625.19,225.15" style="stroke:#181818;stroke-width:1;"/></g><!--link BaconBurguer to QueijoCheddar--><g class="link" data-entity-1="BaconBurguer" data-entity-2="QueijoCheddar" data-source-line="103" data-uid="lnk88" id="link_BaconBurguer_QueijoCheddar"><path codeLine="103" d="M1444.96,132.36 C1433.88,158.13 1418.5276,193.8369 1407.4476,219.6369" fill="none" id="BaconBurguer-to-QueijoCheddar" style="stroke:#181818;stroke-width:1;"/><polygon fill="#181818" points="1405.08,225.15,1412.3069,218.4588,1407.053,220.5557,1404.9561,215.3019,1405.08,225.15" style="stroke:#181818;stroke-width:1;"/></g><!--link BaconBurguer to Alface--><g class="link" data-entity-1="BaconBurguer" data-entity-2="Alface" data-source-line="104" data-uid="lnk89" id="link_BaconBurguer_Alface"><path codeLine="104" d="M1468.56,132.36 C1483.51,158.13 1504.4188,194.1603 1519.3888,219.9603" fill="none" id="BaconBurguer-to-Alface" style="stroke:#181818;stroke-width:1;"/><polygon fill="#181818" points="1522.4,225.15,1521.343,215.358,1519.8907,220.8253,1514.4234,219.373,1522.4,225.15" style="stroke:#181818;stroke-width:1;"/></g><!--link BaconBurguer to FatiaTomate--><g class="link" data-entity-1="BaconBurguer" data-entity-2="FatiaTomate" data-source-line="105" data-uid="lnk90" id="link_BaconBurguer_FatiaTomate"><path codeLine="105" d="M1388.69,122.4 C1330.65,135.64 1245.05,158.88 1176,193 C1158.41,201.69 1145.2545,210.6115 1131.1645,221.6415" fill="none" id="BaconBurguer-to-FatiaTomate" style="stroke:#181818;stroke-width:1;"/><polygon fill="#181818" points="1126.44,225.34,1135.9925,222.942,1130.3771,222.2579,1131.0611,216.6426,1126.44,225.34" style="stroke:#181818;stroke-width:1;"/></g><!--link BaconBurguer to MolhoBarbecue--><g class="link" data-entity-1="BaconBurguer" data-entity-2="MolhoBarbecue" data-source-line="106" data-uid="lnk91" id="link_BaconBurguer_MolhoBarbecue"><path codeLine="106" d="M1521.13,126.98 C1571.62,141.8 1642.28,164.9 1701,193 C1720.07,202.12 1735.101,211.1868 1751.221,221.9568" fill="none" id="BaconBurguer-to-MolhoBarbecue" style="stroke:#181818;stroke-width:1;"/><polygon fill="#181818" points="1756.21,225.29,1750.9487,216.9642,1752.0525,222.5123,1746.5044,223.6162,1756.21,225.29" style="stroke:#181818;stroke-width:1;"/></g><!--link Suco to FrutaCitrica--><g class="link" data-entity-1="Suco" data-entity-2="FrutaCitrica" data-source-line="107" data-uid="lnk92" id="link_Suco_FrutaCitrica"><path codeLine="107" d="M2856,132.36 C2856,158.13 2856,193.35 2856,219.15" fill="none" id="Suco-to-FrutaCitrica" style="stroke:#181818;stroke-width:1;"/><polygon fill="#181818" points="2856,225.15,2860,216.15,2856,220.15,2852,216.15,2856,225.15" style="stroke:#181818;stroke-width:1;"/></g><!--link Suco to MeioLitroAguaMineral--><g class="link" data-entity-1="Suco" data-entity-2="MeioLitroAguaMineral" data-source-line="108" data-uid="lnk93" id="link_Suco_MeioLitroAguaMineral"><path codeLine="108" d="M2886.8,132.36 C2920.76,158.13 2970.3203,195.7231 3004.3203,221.5231" fill="none" id="Suco-to-MeioLitroAguaMineral" style="stroke:#181818;stroke-width:1;"/><polygon fill="#181818" points="3009.1,225.15,3004.3484,216.5231,3005.1169,222.1276,2999.5125,222.8961,3009.1,225.15" style="stroke:#181818;stroke-width:1;"/></g><!--link MilkShake to SorveteBaunilha--><g class="link" data-entity-1="MilkShake" data-entity-2="SorveteBaunilha" data-source-line="109" data-uid="lnk94" id="link_MilkShake_SorveteBaunilha"><path codeLine="109" d="M2482.86,132.33 C2515.84,148.69 2560.49,171.41 2599,193 C2617.09,203.14 2631.6714,211.8871 2648.0814,222.0671" fill="none" id="MilkShake-to-SorveteBaunilha" style="stroke:#181818;stroke-width:1;"/><polygon fill="#181818" points="2653.18,225.23,2647.6407,217.0865,2648.9312,222.5942,2643.4235,223.8847,2653.18,225.23" style="stroke:#181818;stroke-width:1;"/></g><!--link MilkShake to MeioLitroLeite--><g class="link" data-entity-1="MilkShake" data-entity-2="MeioLitroLeite" data-source-line="110" data-uid="lnk95" id="link_MilkShake_MeioLitroLeite"><path codeLine="110" d="M2448.56,132.36 C2463.51,158.13 2484.4188,194.1603 2499.3888,219.9603" fill="none" id="MilkShake-to-MeioLitroLeite" style="stroke:#181818;stroke-width:1;"/><polygon fill="#181818" points="2502.4,225.15,2501.343,215.358,2499.8907,220.8253,2494.4234,219.373,2502.4,225.15" style="stroke:#181818;stroke-width:1;"/></g><!--link MilkShake to CaldasChocolate--><g class="link" data-entity-1="MilkShake" data-entity-2="CaldasChocolate" data-source-line="111" data-uid="lnk96" id="link_MilkShake_CaldasChocolate"><path codeLine="111" d="M2419.27,132.36 C2401.91,158.13 2377.5122,194.3738 2360.1322,220.1738" fill="none" id="MilkShake-to-CaldasChocolate" style="stroke:#181818;stroke-width:1;"/><polygon fill="#181818" points="2356.78,225.15,2365.1258,219.9205,2359.5735,221.0031,2358.4908,215.4509,2356.78,225.15" style="stroke:#181818;stroke-width:1;"/></g><!--SRC=[fPPDRjim48NtFWNXJTCMDheE2W6schH1xSAjY-v7z5XYJ8ikVm8aQSxJ4_G4kLWeov7u9s-A14OoxudYepxFIErOVG09Uv9pK6gcjMI5qNX3HRtMzno9qYXHwFi3ZaO7e3ieaOmbAWr6Ggrn2fpjiTPYJ1v7X42Xj0Ig2MtM8xEJUDG8UKyUNmrFH1HswMzYZnTlBydQthWk1qmtTIbnm-n2g1hpJ4guNp2bFpfAThhuU4Lkb1QVS2N5nb0GpKLRBa2VF8Uc_i3ka5_O9EAtmKjorVvXdOKG7A6stgUH_MYJV85zOMHfK7QbEMZxewubivzTzGTk9IlnU3XTCQyG5SwZ1UmnHqLMXgMyOdI7aNF9-6vTmQw_pTfGqVtp2ykITVUqvJu2cKp-PDt3iP8N9LBTI97eHKiit4UCnIvgObKtSYHtqIEbEOAew1r5eCRGEb3z7xShYTHZp-5f1PRF15JNe1dy57jmwG5POzBTFhUU26HYmRIqIyzA0vz18Tio2Xj8udcrN_MupFWMAFfiEZlW6r1v9QZWYPsjnItujMjxWrBugN8ixDLzJHeDkTsjtM2V09YeBKznf2RGajLsvpmM5yYSNIq5hyGSP87K1DMlg6bb3dvnAMmxayuXhHZbs7-blnjajyA2ljc03AfBenH8T7AjXRn3ZNCmDUCLD8yyUDWjWGvcrk8yzvGS8P0ojJIab64mKkwGaPIdnIMz2qjEEeC7qPcO3K-3SelMu1csb2Lb1xZa8PtOEtk03ePdVKSYamuNpa73YTD1_HNPbA6bDwLu80yREgPJbW3lbCN-lh4GSNZ- -_pl-3tgtWCcauoCFqodxyPUcxqaHZFE7Y0SKrcYKGO6lsC6OgfrXiCkwzjeCEcoynqrSYUQQpWUKu5YJshRiIliIx6ZQ-gnv1zRh3kTE1ZYgGYH9NtmWUbro4H2c2moTC4YnSyLoU5iEBqlPE4uwke30yXz0ycYdX_gqQ3ovN2yFhq0]--></g></svg>