<svg xmlns="http://www.w3.org/2000/svg" xmlns:xlink="http://www.w3.org/1999/xlink" contentStyleType="text/css" data-diagram-type="CLASS" height="543px" preserveAspectRatio="none" style="width:4895px;height:543px;background:#FFFFFF;" version="1.1" viewBox="0 0 4895 543" width="4895px" zoomAndPan="magnify"><defs/><g><!--cluster restaurante--><g class="cluster" data-entity="restaurante" data-source-line="4" data-uid="ent0004" id="cluster_restaurante"><path d="M8.5,6 L102.8447,6 A3.75,3.75 0 0 1 105.3447,8.5 L112.3447,28.2969 L4885.5,28.2969 A2.5,2.5 0 0 1 4888,30.7969 L4888,533.88 A2.5,2.5 0 0 1 4885.5,536.38 L8.5,536.38 A2.5,2.5 0 0 1 6,533.88 L6,8.5 A2.5,2.5 0 0 1 8.5,6" fill="none" style="stroke:#000000;stroke-width:1.5;"/><line style="stroke:#000000;stroke-width:1.5;" x1="6" x2="112.3447" y1="28.2969" y2="28.2969"/><text fill="#000000" font-family="sans-serif" font-size="14" font-weight="bold" lengthAdjust="spacing" textLength="93.3447" x="10" y="20.9951">restaurante</text></g><!--cluster acao--><g class="cluster" data-entity="acao" data-source-line="3" data-uid="ent0002" id="cluster_acao"><path d="M32.5,49 L70.3115,49 A3.75,3.75 0 0 1 72.8115,51.5 L79.8115,71.2969 L4861.5,71.2969 A2.5,2.5 0 0 1 4864,73.7969 L4864,509.88 A2.5,2.5 0 0 1 4861.5,512.38 L32.5,512.38 A2.5,2.5 0 0 1 30,509.88 L30,51.5 A2.5,2.5 0 0 1 32.5,49" fill="none" style="stroke:#000000;stroke-width:1.5;"/><line style="stroke:#000000;stroke-width:1.5;" x1="30" x2="79.8115" y1="71.2969" y2="71.2969"/><text fill="#000000" font-family="sans-serif" font-size="14" font-weight="bold" lengthAdjust="spacing" textLength="36.8115" x="34" y="63.9951">acao</text></g><!--class Acao--><g class="entity" data-entity="Acao" data-source-line="4" data-uid="ent0003" id="entity_Acao"><rect fill="#F1F1F1" height="113.1875" rx="2.5" ry="2.5" style="stroke:#181818;stroke-width:0.5;" width="363.8184" x="2113.09" y="258.19"/><ellipse cx="2273.5397" cy="274.19" fill="#A9DCDF" rx="11" ry="11" style="stroke:#181818;stroke-width:1;"/><path d="M2273.6491,269.5338 L2272.4928,274.6119 L2274.821,274.6119 L2273.6491,269.5338 Z M2272.1647,267.2994 L2275.1491,267.2994 L2278.5085,279.69 L2276.0553,279.69 L2275.2897,276.6275 L2272.0085,276.6275 L2271.2585,279.69 L2268.821,279.69 L2272.1647,267.2994 Z " fill="#000000"/><text fill="#000000" font-family="sans-serif" font-size="14" font-style="italic" lengthAdjust="spacing" textLength="34.4189" x="2294.0397" y="279.0367">Acao</text><line style="stroke:#181818;stroke-width:0.5;" x1="2114.09" x2="2475.9084" y1="290.19" y2="290.19"/><line style="stroke:#181818;stroke-width:0.5;" x1="2114.09" x2="2475.9084" y1="298.19" y2="298.19"/><ellipse cx="2124.09" cy="311.8384" fill="#84BE84" rx="3" ry="3" style="stroke:#038048;stroke-width:1;"/><text fill="#000000" font-family="sans-serif" font-size="14" font-style="italic" lengthAdjust="spacing" textLength="111.624" x="2133.09" y="315.1851">executar(): void</text><ellipse cx="2124.09" cy="328.1353" fill="#84BE84" rx="3" ry="3" style="stroke:#038048;stroke-width:1;"/><text fill="#000000" font-family="sans-serif" font-size="14" font-style="italic" lengthAdjust="spacing" textLength="140.4717" x="2133.09" y="331.482">obterNome(): String</text><ellipse cx="2124.09" cy="344.4322" fill="#84BE84" rx="3" ry="3" style="stroke:#038048;stroke-width:1;"/><text fill="#000000" font-family="sans-serif" font-size="14" font-style="italic" lengthAdjust="spacing" textLength="168.0547" x="2133.09" y="347.7789">obterDescricao(): String</text><ellipse cx="2124.09" cy="360.7291" fill="#84BE84" rx="3" ry="3" style="stroke:#038048;stroke-width:1;"/><text fill="#000000" font-family="sans-serif" font-size="14" lengthAdjust="spacing" textLength="337.8184" x="2133.09" y="364.0757">verificarSePodeExecutar(cargo: Cargo): boolean</text></g><!--class AplicarDesconto--><g class="entity" data-entity="AplicarDesconto" data-source-line="11" data-uid="ent0005" id="entity_AplicarDesconto"><rect fill="#F1F1F1" height="113.1875" rx="2.5" ry="2.5" style="stroke:#181818;stroke-width:0.5;" width="619.1543" x="46.42" y="84"/><ellipse cx="294.6705" cy="100" fill="#ADD1B2" rx="11" ry="11" style="stroke:#181818;stroke-width:1;"/><path d="M297.6392,105.6406 Q297.0611,105.9375 296.4205,106.0781 Q295.7799,106.2344 295.0767,106.2344 Q292.5767,106.2344 291.2486,104.5938 Q289.9361,102.9375 289.9361,99.8125 Q289.9361,96.6875 291.2486,95.0313 Q292.5767,93.375 295.0767,93.375 Q295.7799,93.375 296.4205,93.5313 Q297.0767,93.6875 297.6392,93.9844 L297.6392,96.7031 Q297.0142,96.125 296.4205,95.8594 Q295.8267,95.5781 295.2017,95.5781 Q293.858,95.5781 293.1705,96.6563 Q292.483,97.7188 292.483,99.8125 Q292.483,101.9063 293.1705,102.9844 Q293.858,104.0469 295.2017,104.0469 Q295.8267,104.0469 296.4205,103.7813 Q297.0142,103.5 297.6392,102.9219 L297.6392,105.6406 Z " fill="#000000"/><text fill="#000000" font-family="sans-serif" font-size="14" lengthAdjust="spacing" textLength="114.1533" x="315.1705" y="104.8467">AplicarDesconto</text><line style="stroke:#181818;stroke-width:0.5;" x1="47.42" x2="664.5743" y1="116" y2="116"/><rect fill="none" height="6" style="stroke:#C82930;stroke-width:1;" width="6" x="54.42" y="126.6484"/><text fill="#000000" font-family="sans-serif" font-size="14" lengthAdjust="spacing" textLength="132.9248" x="66.42" y="132.9951">cardapio: Cardapio</text><rect fill="none" height="6" style="stroke:#C82930;stroke-width:1;" width="6" x="54.42" y="142.9453"/><text fill="#000000" font-family="sans-serif" font-size="14" lengthAdjust="spacing" textLength="135.584" x="66.42" y="149.292">item: ItemCardapio</text><rect fill="none" height="6" style="stroke:#C82930;stroke-width:1;" width="6" x="54.42" y="159.2422"/><text fill="#000000" font-family="sans-serif" font-size="14" lengthAdjust="spacing" textLength="181.7676" x="66.42" y="165.5889">percentualDesconto: float</text><line style="stroke:#181818;stroke-width:0.5;" x1="47.42" x2="664.5743" y1="172.8906" y2="172.8906"/><ellipse cx="57.42" cy="186.5391" fill="#84BE84" rx="3" ry="3" style="stroke:#038048;stroke-width:1;"/><text fill="#000000" font-family="sans-serif" font-size="14" lengthAdjust="spacing" textLength="593.1543" x="66.42" y="189.8857">AplicarDesconto(cardapio: Cardapio, item: ItemCardapio, percentualDesconto: float)</text></g><!--class AumentarPreco--><g class="entity" data-entity="AumentarPreco" data-source-line="18" data-uid="ent0006" id="entity_AumentarPreco"><rect fill="#F1F1F1" height="113.1875" rx="2.5" ry="2.5" style="stroke:#181818;stroke-width:0.5;" width="611.2246" x="700.39" y="84"/><ellipse cx="947.516" cy="100" fill="#ADD1B2" rx="11" ry="11" style="stroke:#181818;stroke-width:1;"/><path d="M950.4847,105.6406 Q949.9066,105.9375 949.266,106.0781 Q948.6254,106.2344 947.9222,106.2344 Q945.4222,106.2344 944.0941,104.5938 Q942.7816,102.9375 942.7816,99.8125 Q942.7816,96.6875 944.0941,95.0313 Q945.4222,93.375 947.9222,93.375 Q948.6254,93.375 949.266,93.5313 Q949.9222,93.6875 950.4847,93.9844 L950.4847,96.7031 Q949.8597,96.125 949.266,95.8594 Q948.6722,95.5781 948.0472,95.5781 Q946.7035,95.5781 946.016,96.6563 Q945.3285,97.7188 945.3285,99.8125 Q945.3285,101.9063 946.016,102.9844 Q946.7035,104.0469 948.0472,104.0469 Q948.6722,104.0469 949.266,103.7813 Q949.8597,103.5 950.4847,102.9219 L950.4847,105.6406 Z " fill="#000000"/><text fill="#000000" font-family="sans-serif" font-size="14" lengthAdjust="spacing" textLength="108.4727" x="968.016" y="104.8467">AumentarPreco</text><line style="stroke:#181818;stroke-width:0.5;" x1="701.39" x2="1310.6146" y1="116" y2="116"/><rect fill="none" height="6" style="stroke:#C82930;stroke-width:1;" width="6" x="708.39" y="126.6484"/><text fill="#000000" font-family="sans-serif" font-size="14" lengthAdjust="spacing" textLength="132.9248" x="720.39" y="132.9951">cardapio: Cardapio</text><rect fill="none" height="6" style="stroke:#C82930;stroke-width:1;" width="6" x="708.39" y="142.9453"/><text fill="#000000" font-family="sans-serif" font-size="14" lengthAdjust="spacing" textLength="135.584" x="720.39" y="149.292">item: ItemCardapio</text><rect fill="none" height="6" style="stroke:#C82930;stroke-width:1;" width="6" x="708.39" y="159.2422"/><text fill="#000000" font-family="sans-serif" font-size="14" lengthAdjust="spacing" textLength="179.5186" x="720.39" y="165.5889">percentualAumento: float</text><line style="stroke:#181818;stroke-width:0.5;" x1="701.39" x2="1310.6146" y1="172.8906" y2="172.8906"/><ellipse cx="711.39" cy="186.5391" fill="#84BE84" rx="3" ry="3" style="stroke:#038048;stroke-width:1;"/><text fill="#000000" font-family="sans-serif" font-size="14" lengthAdjust="spacing" textLength="585.2246" x="720.39" y="189.8857">AumentarPreco(cardapio: Cardapio, item: ItemCardapio, percentualAumento: float)</text></g><!--class BaixarPreco--><g class="entity" data-entity="BaixarPreco" data-source-line="25" data-uid="ent0007" id="entity_BaixarPreco"><rect fill="#F1F1F1" height="113.1875" rx="2.5" ry="2.5" style="stroke:#181818;stroke-width:0.5;" width="583.833" x="1347.08" y="84"/><ellipse cx="1592.8627" cy="100" fill="#ADD1B2" rx="11" ry="11" style="stroke:#181818;stroke-width:1;"/><path d="M1595.8315,105.6406 Q1595.2533,105.9375 1594.6127,106.0781 Q1593.9721,106.2344 1593.269,106.2344 Q1590.769,106.2344 1589.4408,104.5938 Q1588.1283,102.9375 1588.1283,99.8125 Q1588.1283,96.6875 1589.4408,95.0313 Q1590.769,93.375 1593.269,93.375 Q1593.9721,93.375 1594.6127,93.5313 Q1595.269,93.6875 1595.8315,93.9844 L1595.8315,96.7031 Q1595.2065,96.125 1594.6127,95.8594 Q1594.019,95.5781 1593.394,95.5781 Q1592.0502,95.5781 1591.3627,96.6563 Q1590.6752,97.7188 1590.6752,99.8125 Q1590.6752,101.9063 1591.3627,102.9844 Q1592.0502,104.0469 1593.394,104.0469 Q1594.019,104.0469 1594.6127,103.7813 Q1595.2065,103.5 1595.8315,102.9219 L1595.8315,105.6406 Z " fill="#000000"/><text fill="#000000" font-family="sans-serif" font-size="14" lengthAdjust="spacing" textLength="83.7676" x="1613.3627" y="104.8467">BaixarPreco</text><line style="stroke:#181818;stroke-width:0.5;" x1="1348.08" x2="1929.913" y1="116" y2="116"/><rect fill="none" height="6" style="stroke:#C82930;stroke-width:1;" width="6" x="1355.08" y="126.6484"/><text fill="#000000" font-family="sans-serif" font-size="14" lengthAdjust="spacing" textLength="132.9248" x="1367.08" y="132.9951">cardapio: Cardapio</text><rect fill="none" height="6" style="stroke:#C82930;stroke-width:1;" width="6" x="1355.08" y="142.9453"/><text fill="#000000" font-family="sans-serif" font-size="14" lengthAdjust="spacing" textLength="135.584" x="1367.08" y="149.292">item: ItemCardapio</text><rect fill="none" height="6" style="stroke:#C82930;stroke-width:1;" width="6" x="1355.08" y="159.2422"/><text fill="#000000" font-family="sans-serif" font-size="14" lengthAdjust="spacing" textLength="176.832" x="1367.08" y="165.5889">percentualReducao: float</text><line style="stroke:#181818;stroke-width:0.5;" x1="1348.08" x2="1929.913" y1="172.8906" y2="172.8906"/><ellipse cx="1358.08" cy="186.5391" fill="#84BE84" rx="3" ry="3" style="stroke:#038048;stroke-width:1;"/><text fill="#000000" font-family="sans-serif" font-size="14" lengthAdjust="spacing" textLength="557.833" x="1367.08" y="189.8857">BaixarPreco(cardapio: Cardapio, item: ItemCardapio, percentualReducao: float)</text></g><!--class DeclararFalencia--><g class="entity" data-entity="DeclararFalencia" data-source-line="32" data-uid="ent0008" id="entity_DeclararFalencia"><rect fill="#F1F1F1" height="80.5938" rx="2.5" ry="2.5" style="stroke:#181818;stroke-width:0.5;" width="331.7168" x="1966.14" y="100.3"/><ellipse cx="2068.8363" cy="116.3" fill="#ADD1B2" rx="11" ry="11" style="stroke:#181818;stroke-width:1;"/><path d="M2071.805,121.9406 Q2071.2269,122.2375 2070.5863,122.3781 Q2069.9457,122.5344 2069.2425,122.5344 Q2066.7425,122.5344 2065.4144,120.8938 Q2064.1019,119.2375 2064.1019,116.1125 Q2064.1019,112.9875 2065.4144,111.3313 Q2066.7425,109.675 2069.2425,109.675 Q2069.9457,109.675 2070.5863,109.8313 Q2071.2425,109.9875 2071.805,110.2844 L2071.805,113.0031 Q2071.18,112.425 2070.5863,112.1594 Q2069.9925,111.8781 2069.3675,111.8781 Q2068.0238,111.8781 2067.3363,112.9563 Q2066.6488,114.0188 2066.6488,116.1125 Q2066.6488,118.2063 2067.3363,119.2844 Q2068.0238,120.3469 2069.3675,120.3469 Q2069.9925,120.3469 2070.5863,120.0813 Q2071.18,119.8 2071.805,119.2219 L2071.805,121.9406 Z " fill="#000000"/><text fill="#000000" font-family="sans-serif" font-size="14" lengthAdjust="spacing" textLength="117.8242" x="2089.3363" y="121.1467">DeclararFalencia</text><line style="stroke:#181818;stroke-width:0.5;" x1="1967.14" x2="2296.8568" y1="132.3" y2="132.3"/><rect fill="none" height="6" style="stroke:#C82930;stroke-width:1;" width="6" x="1974.14" y="142.9484"/><text fill="#000000" font-family="sans-serif" font-size="14" lengthAdjust="spacing" textLength="176.9688" x="1986.14" y="149.2951">restaurante: Restaurante</text><line style="stroke:#181818;stroke-width:0.5;" x1="1967.14" x2="2296.8568" y1="156.5969" y2="156.5969"/><ellipse cx="1977.14" cy="170.2453" fill="#84BE84" rx="3" ry="3" style="stroke:#038048;stroke-width:1;"/><text fill="#000000" font-family="sans-serif" font-size="14" lengthAdjust="spacing" textLength="305.7168" x="1986.14" y="173.592">DeclararFalencia(restaurante: Restaurante)</text></g><!--class DemitirFuncionario--><g class="entity" data-entity="DemitirFuncionario" data-source-line="37" data-uid="ent0009" id="entity_DemitirFuncionario"><rect fill="#F1F1F1" height="96.8906" rx="2.5" ry="2.5" style="stroke:#181818;stroke-width:0.5;" width="525.7344" x="2333.13" y="92.15"/><ellipse cx="2524.9122" cy="108.15" fill="#ADD1B2" rx="11" ry="11" style="stroke:#181818;stroke-width:1;"/><path d="M2527.881,113.7906 Q2527.3029,114.0875 2526.6622,114.2281 Q2526.0216,114.3844 2525.3185,114.3844 Q2522.8185,114.3844 2521.4904,112.7437 Q2520.1779,111.0875 2520.1779,107.9625 Q2520.1779,104.8375 2521.4904,103.1812 Q2522.8185,101.525 2525.3185,101.525 Q2526.0216,101.525 2526.6622,101.6812 Q2527.3185,101.8375 2527.881,102.1344 L2527.881,104.8531 Q2527.256,104.275 2526.6622,104.0094 Q2526.0685,103.7281 2525.4435,103.7281 Q2524.0997,103.7281 2523.4122,104.8062 Q2522.7247,105.8687 2522.7247,107.9625 Q2522.7247,110.0562 2523.4122,111.1344 Q2524.0997,112.1969 2525.4435,112.1969 Q2526.0685,112.1969 2526.6622,111.9312 Q2527.256,111.65 2527.881,111.0719 L2527.881,113.7906 Z " fill="#000000"/><text fill="#000000" font-family="sans-serif" font-size="14" lengthAdjust="spacing" textLength="133.6699" x="2545.4122" y="112.9967">DemitirFuncionario</text><line style="stroke:#181818;stroke-width:0.5;" x1="2334.13" x2="2857.8644" y1="124.15" y2="124.15"/><rect fill="none" height="6" style="stroke:#C82930;stroke-width:1;" width="6" x="2341.13" y="134.7984"/><text fill="#000000" font-family="sans-serif" font-size="14" lengthAdjust="spacing" textLength="176.9688" x="2353.13" y="141.1451">restaurante: Restaurante</text><rect fill="none" height="6" style="stroke:#C82930;stroke-width:1;" width="6" x="2341.13" y="151.0953"/><text fill="#000000" font-family="sans-serif" font-size="14" lengthAdjust="spacing" textLength="169.2715" x="2353.13" y="157.442">funcionario: Funcionario</text><line style="stroke:#181818;stroke-width:0.5;" x1="2334.13" x2="2857.8644" y1="164.7437" y2="164.7437"/><ellipse cx="2344.13" cy="178.3922" fill="#84BE84" rx="3" ry="3" style="stroke:#038048;stroke-width:1;"/><text fill="#000000" font-family="sans-serif" font-size="14" lengthAdjust="spacing" textLength="499.7344" x="2353.13" y="181.7389">DemitirFuncionario(restaurante: Restaurante, funcionario: Funcionario)</text></g><!--class PromoverFuncionario--><g class="entity" data-entity="PromoverFuncionario" data-source-line="43" data-uid="ent0010" id="entity_PromoverFuncionario"><rect fill="#F1F1F1" height="113.1875" rx="2.5" ry="2.5" style="stroke:#181818;stroke-width:0.5;" width="676.7813" x="2893.61" y="84"/><ellipse cx="3153.1329" cy="100" fill="#ADD1B2" rx="11" ry="11" style="stroke:#181818;stroke-width:1;"/><path d="M3156.1017,105.6406 Q3155.5236,105.9375 3154.8829,106.0781 Q3154.2423,106.2344 3153.5392,106.2344 Q3151.0392,106.2344 3149.7111,104.5938 Q3148.3986,102.9375 3148.3986,99.8125 Q3148.3986,96.6875 3149.7111,95.0313 Q3151.0392,93.375 3153.5392,93.375 Q3154.2423,93.375 3154.8829,93.5313 Q3155.5392,93.6875 3156.1017,93.9844 L3156.1017,96.7031 Q3155.4767,96.125 3154.8829,95.8594 Q3154.2892,95.5781 3153.6642,95.5781 Q3152.3204,95.5781 3151.6329,96.6563 Q3150.9454,97.7188 3150.9454,99.8125 Q3150.9454,101.9063 3151.6329,102.9844 Q3152.3204,104.0469 3153.6642,104.0469 Q3154.2892,104.0469 3154.8829,103.7813 Q3155.4767,103.5 3156.1017,102.9219 L3156.1017,105.6406 Z " fill="#000000"/><text fill="#000000" font-family="sans-serif" font-size="14" lengthAdjust="spacing" textLength="149.2354" x="3173.6329" y="104.8467">PromoverFuncionario</text><line style="stroke:#181818;stroke-width:0.5;" x1="2894.61" x2="3569.3913" y1="116" y2="116"/><rect fill="none" height="6" style="stroke:#C82930;stroke-width:1;" width="6" x="2901.61" y="126.6484"/><text fill="#000000" font-family="sans-serif" font-size="14" lengthAdjust="spacing" textLength="176.9688" x="2913.61" y="132.9951">restaurante: Restaurante</text><rect fill="none" height="6" style="stroke:#C82930;stroke-width:1;" width="6" x="2901.61" y="142.9453"/><text fill="#000000" font-family="sans-serif" font-size="14" lengthAdjust="spacing" textLength="169.2715" x="2913.61" y="149.292">funcionario: Funcionario</text><rect fill="none" height="6" style="stroke:#C82930;stroke-width:1;" width="6" x="2901.61" y="159.2422"/><text fill="#000000" font-family="sans-serif" font-size="14" lengthAdjust="spacing" textLength="126.5811" x="2913.61" y="165.5889">novoCargo: Cargo</text><line style="stroke:#181818;stroke-width:0.5;" x1="2894.61" x2="3569.3913" y1="172.8906" y2="172.8906"/><ellipse cx="2904.61" cy="186.5391" fill="#84BE84" rx="3" ry="3" style="stroke:#038048;stroke-width:1;"/><text fill="#000000" font-family="sans-serif" font-size="14" lengthAdjust="spacing" textLength="650.7813" x="2913.61" y="189.8857">PromoverFuncionario(restaurante: Restaurante, funcionario: Funcionario, novoCargo: Cargo)</text></g><!--class RebaixarFuncionario--><g class="entity" data-entity="RebaixarFuncionario" data-source-line="50" data-uid="ent0011" id="entity_RebaixarFuncionario"><rect fill="#F1F1F1" height="113.1875" rx="2.5" ry="2.5" style="stroke:#181818;stroke-width:0.5;" width="671.4766" x="3605.26" y="84"/><ellipse cx="3864.7829" cy="100" fill="#ADD1B2" rx="11" ry="11" style="stroke:#181818;stroke-width:1;"/><path d="M3867.7517,105.6406 Q3867.1736,105.9375 3866.5329,106.0781 Q3865.8923,106.2344 3865.1892,106.2344 Q3862.6892,106.2344 3861.3611,104.5938 Q3860.0486,102.9375 3860.0486,99.8125 Q3860.0486,96.6875 3861.3611,95.0313 Q3862.6892,93.375 3865.1892,93.375 Q3865.8923,93.375 3866.5329,93.5313 Q3867.1892,93.6875 3867.7517,93.9844 L3867.7517,96.7031 Q3867.1267,96.125 3866.5329,95.8594 Q3865.9392,95.5781 3865.3142,95.5781 Q3863.9704,95.5781 3863.2829,96.6563 Q3862.5954,97.7188 3862.5954,99.8125 Q3862.5954,101.9063 3863.2829,102.9844 Q3863.9704,104.0469 3865.3142,104.0469 Q3865.9392,104.0469 3866.5329,103.7813 Q3867.1267,103.5 3867.7517,102.9219 L3867.7517,105.6406 Z " fill="#000000"/><text fill="#000000" font-family="sans-serif" font-size="14" lengthAdjust="spacing" textLength="143.9307" x="3885.2829" y="104.8467">RebaixarFuncionario</text><line style="stroke:#181818;stroke-width:0.5;" x1="3606.26" x2="4275.7366" y1="116" y2="116"/><rect fill="none" height="6" style="stroke:#C82930;stroke-width:1;" width="6" x="3613.26" y="126.6484"/><text fill="#000000" font-family="sans-serif" font-size="14" lengthAdjust="spacing" textLength="176.9688" x="3625.26" y="132.9951">restaurante: Restaurante</text><rect fill="none" height="6" style="stroke:#C82930;stroke-width:1;" width="6" x="3613.26" y="142.9453"/><text fill="#000000" font-family="sans-serif" font-size="14" lengthAdjust="spacing" textLength="169.2715" x="3625.26" y="149.292">funcionario: Funcionario</text><rect fill="none" height="6" style="stroke:#C82930;stroke-width:1;" width="6" x="3613.26" y="159.2422"/><text fill="#000000" font-family="sans-serif" font-size="14" lengthAdjust="spacing" textLength="126.5811" x="3625.26" y="165.5889">novoCargo: Cargo</text><line style="stroke:#181818;stroke-width:0.5;" x1="3606.26" x2="4275.7366" y1="172.8906" y2="172.8906"/><ellipse cx="3616.26" cy="186.5391" fill="#84BE84" rx="3" ry="3" style="stroke:#038048;stroke-width:1;"/><text fill="#000000" font-family="sans-serif" font-size="14" lengthAdjust="spacing" textLength="645.4766" x="3625.26" y="189.8857">RebaixarFuncionario(restaurante: Restaurante, funcionario: Funcionario, novoCargo: Cargo)</text></g><!--class ReporIngredienteNoEstoque--><g class="entity" data-entity="ReporIngredienteNoEstoque" data-source-line="57" data-uid="ent0012" id="entity_ReporIngredienteNoEstoque"><rect fill="#F1F1F1" height="113.1875" rx="2.5" ry="2.5" style="stroke:#181818;stroke-width:0.5;" width="535.8447" x="4312.08" y="84"/><ellipse cx="4476.8637" cy="100" fill="#ADD1B2" rx="11" ry="11" style="stroke:#181818;stroke-width:1;"/><path d="M4479.8324,105.6406 Q4479.2543,105.9375 4478.6137,106.0781 Q4477.9731,106.2344 4477.2699,106.2344 Q4474.7699,106.2344 4473.4418,104.5938 Q4472.1293,102.9375 4472.1293,99.8125 Q4472.1293,96.6875 4473.4418,95.0313 Q4474.7699,93.375 4477.2699,93.375 Q4477.9731,93.375 4478.6137,93.5313 Q4479.2699,93.6875 4479.8324,93.9844 L4479.8324,96.7031 Q4479.2074,96.125 4478.6137,95.8594 Q4478.0199,95.5781 4477.3949,95.5781 Q4476.0512,95.5781 4475.3637,96.6563 Q4474.6762,97.7188 4474.6762,99.8125 Q4474.6762,101.9063 4475.3637,102.9844 Q4476.0512,104.0469 4477.3949,104.0469 Q4478.0199,104.0469 4478.6137,103.7813 Q4479.2074,103.5 4479.8324,102.9219 L4479.8324,105.6406 Z " fill="#000000"/><text fill="#000000" font-family="sans-serif" font-size="14" lengthAdjust="spacing" textLength="197.7773" x="4497.3637" y="104.8467">ReporIngredienteNoEstoque</text><line style="stroke:#181818;stroke-width:0.5;" x1="4313.08" x2="4846.9247" y1="116" y2="116"/><rect fill="none" height="6" style="stroke:#C82930;stroke-width:1;" width="6" x="4320.08" y="126.6484"/><text fill="#000000" font-family="sans-serif" font-size="14" lengthAdjust="spacing" textLength="122.0693" x="4332.08" y="132.9951">estoque: Estoque</text><rect fill="none" height="6" style="stroke:#C82930;stroke-width:1;" width="6" x="4320.08" y="142.9453"/><text fill="#000000" font-family="sans-serif" font-size="14" lengthAdjust="spacing" textLength="176.9688" x="4332.08" y="149.292">restaurante: Restaurante</text><rect fill="none" height="6" style="stroke:#C82930;stroke-width:1;" width="6" x="4320.08" y="159.2422"/><text fill="#000000" font-family="sans-serif" font-size="14" lengthAdjust="spacing" textLength="170.1738" x="4332.08" y="165.5889">ingrediente: Ingrediente</text><line style="stroke:#181818;stroke-width:0.5;" x1="4313.08" x2="4846.9247" y1="172.8906" y2="172.8906"/><ellipse cx="4323.08" cy="186.5391" fill="#84BE84" rx="3" ry="3" style="stroke:#038048;stroke-width:1;"/><text fill="#000000" font-family="sans-serif" font-size="14" lengthAdjust="spacing" textLength="509.8447" x="4332.08" y="189.8857">ReporIngredienteNoEstoque(estoque: Estoque, ingrediente: Ingrediente)</text></g><!--class Cargo--><g class="entity" data-entity="Cargo" data-source-line="73" data-uid="ent0021" id="entity_Cargo"><rect fill="#F1F1F1" height="48" rx="2.5" ry="2.5" style="stroke:#181818;stroke-width:0.5;" width="73.5625" x="2258.22" y="448.38"/><ellipse cx="2273.22" cy="464.38" fill="#ADD1B2" rx="11" ry="11" style="stroke:#181818;stroke-width:1;"/><path d="M2276.1888,470.0206 Q2275.6106,470.3175 2274.97,470.4581 Q2274.3294,470.6144 2273.6263,470.6144 Q2271.1263,470.6144 2269.7981,468.9738 Q2268.4856,467.3175 2268.4856,464.1925 Q2268.4856,461.0675 2269.7981,459.4113 Q2271.1263,457.755 2273.6263,457.755 Q2274.3294,457.755 2274.97,457.9113 Q2275.6263,458.0675 2276.1888,458.3644 L2276.1888,461.0831 Q2275.5638,460.505 2274.97,460.2394 Q2274.3763,459.9581 2273.7513,459.9581 Q2272.4075,459.9581 2271.72,461.0363 Q2271.0325,462.0988 2271.0325,464.1925 Q2271.0325,466.2863 2271.72,467.3644 Q2272.4075,468.4269 2273.7513,468.4269 Q2274.3763,468.4269 2274.97,468.1613 Q2275.5638,467.88 2276.1888,467.3019 L2276.1888,470.0206 Z " fill="#000000"/><text fill="#000000" font-family="sans-serif" font-size="14" lengthAdjust="spacing" textLength="41.5625" x="2287.22" y="469.2267">Cargo</text><line style="stroke:#181818;stroke-width:0.5;" x1="2259.22" x2="2330.7825" y1="480.38" y2="480.38"/><line style="stroke:#181818;stroke-width:0.5;" x1="2259.22" x2="2330.7825" y1="488.38" y2="488.38"/></g><!--class Cardapio--><g class="entity" data-entity="Cardapio" data-source-line="74" data-uid="ent0023" id="entity_Cardapio"><rect fill="#F1F1F1" height="48" rx="2.5" ry="2.5" style="stroke:#181818;stroke-width:0.5;" width="94.918" x="958.54" y="290.79"/><ellipse cx="973.54" cy="306.79" fill="#ADD1B2" rx="11" ry="11" style="stroke:#181818;stroke-width:1;"/><path d="M976.5088,312.4306 Q975.9306,312.7275 975.29,312.8681 Q974.6494,313.0244 973.9463,313.0244 Q971.4463,313.0244 970.1181,311.3838 Q968.8056,309.7275 968.8056,306.6025 Q968.8056,303.4775 970.1181,301.8213 Q971.4463,300.165 973.9463,300.165 Q974.6494,300.165 975.29,300.3213 Q975.9463,300.4775 976.5088,300.7744 L976.5088,303.4931 Q975.8838,302.915 975.29,302.6494 Q974.6963,302.3681 974.0713,302.3681 Q972.7275,302.3681 972.04,303.4463 Q971.3525,304.5088 971.3525,306.6025 Q971.3525,308.6963 972.04,309.7744 Q972.7275,310.8369 974.0713,310.8369 Q974.6963,310.8369 975.29,310.5713 Q975.8838,310.29 976.5088,309.7119 L976.5088,312.4306 Z " fill="#000000"/><text fill="#000000" font-family="sans-serif" font-size="14" lengthAdjust="spacing" textLength="62.918" x="987.54" y="311.6367">Cardapio</text><line style="stroke:#181818;stroke-width:0.5;" x1="959.54" x2="1052.458" y1="322.79" y2="322.79"/><line style="stroke:#181818;stroke-width:0.5;" x1="959.54" x2="1052.458" y1="330.79" y2="330.79"/></g><!--class Restaurante--><g class="entity" data-entity="Restaurante" data-source-line="77" data-uid="ent0027" id="entity_Restaurante"><rect fill="#F1F1F1" height="48" rx="2.5" ry="2.5" style="stroke:#181818;stroke-width:0.5;" width="117.8867" x="2778.06" y="290.79"/><ellipse cx="2793.06" cy="306.79" fill="#ADD1B2" rx="11" ry="11" style="stroke:#181818;stroke-width:1;"/><path d="M2796.0288,312.4306 Q2795.4506,312.7275 2794.81,312.8681 Q2794.1694,313.0244 2793.4663,313.0244 Q2790.9663,313.0244 2789.6381,311.3838 Q2788.3256,309.7275 2788.3256,306.6025 Q2788.3256,303.4775 2789.6381,301.8213 Q2790.9663,300.165 2793.4663,300.165 Q2794.1694,300.165 2794.81,300.3213 Q2795.4663,300.4775 2796.0288,300.7744 L2796.0288,303.4931 Q2795.4038,302.915 2794.81,302.6494 Q2794.2163,302.3681 2793.5913,302.3681 Q2792.2475,302.3681 2791.56,303.4463 Q2790.8725,304.5088 2790.8725,306.6025 Q2790.8725,308.6963 2791.56,309.7744 Q2792.2475,310.8369 2793.5913,310.8369 Q2794.2163,310.8369 2794.81,310.5713 Q2795.4038,310.29 2796.0288,309.7119 L2796.0288,312.4306 Z " fill="#000000"/><text fill="#000000" font-family="sans-serif" font-size="14" lengthAdjust="spacing" textLength="85.8867" x="2807.06" y="311.6367">Restaurante</text><line style="stroke:#181818;stroke-width:0.5;" x1="2779.06" x2="2894.9467" y1="322.79" y2="322.79"/><line style="stroke:#181818;stroke-width:0.5;" x1="2779.06" x2="2894.9467" y1="330.79" y2="330.79"/></g><!--class Estoque--><g class="entity" data-entity="Estoque" data-source-line="81" data-uid="ent0032" id="entity_Estoque"><rect fill="#F1F1F1" height="48" rx="2.5" ry="2.5" style="stroke:#181818;stroke-width:0.5;" width="88.5674" x="4619.72" y="290.79"/><ellipse cx="4634.72" cy="306.79" fill="#ADD1B2" rx="11" ry="11" style="stroke:#181818;stroke-width:1;"/><path d="M4637.6888,312.4306 Q4637.1106,312.7275 4636.47,312.8681 Q4635.8294,313.0244 4635.1263,313.0244 Q4632.6263,313.0244 4631.2981,311.3838 Q4629.9856,309.7275 4629.9856,306.6025 Q4629.9856,303.4775 4631.2981,301.8213 Q4632.6263,300.165 4635.1263,300.165 Q4635.8294,300.165 4636.47,300.3213 Q4637.1263,300.4775 4637.6888,300.7744 L4637.6888,303.4931 Q4637.0638,302.915 4636.47,302.6494 Q4635.8763,302.3681 4635.2513,302.3681 Q4633.9075,302.3681 4633.22,303.4463 Q4632.5325,304.5088 4632.5325,306.6025 Q4632.5325,308.6963 4633.22,309.7744 Q4633.9075,310.8369 4635.2513,310.8369 Q4635.8763,310.8369 4636.47,310.5713 Q4637.0638,310.29 4637.6888,309.7119 L4637.6888,312.4306 Z " fill="#000000"/><text fill="#000000" font-family="sans-serif" font-size="14" lengthAdjust="spacing" textLength="56.5674" x="4648.72" y="311.6367">Estoque</text><line style="stroke:#181818;stroke-width:0.5;" x1="4620.72" x2="4707.2874" y1="322.79" y2="322.79"/><line style="stroke:#181818;stroke-width:0.5;" x1="4620.72" x2="4707.2874" y1="330.79" y2="330.79"/></g><!--class Ingrediente--><g class="entity" data-entity="Ingrediente" data-source-line="82" data-uid="ent0034" id="entity_Ingrediente"><rect fill="#F1F1F1" height="48" rx="2.5" ry="2.5" style="stroke:#181818;stroke-width:0.5;" width="112.623" x="4471.69" y="290.79"/><ellipse cx="4486.69" cy="306.79" fill="#ADD1B2" rx="11" ry="11" style="stroke:#181818;stroke-width:1;"/><path d="M4489.6588,312.4306 Q4489.0806,312.7275 4488.44,312.8681 Q4487.7994,313.0244 4487.0963,313.0244 Q4484.5963,313.0244 4483.2681,311.3838 Q4481.9556,309.7275 4481.9556,306.6025 Q4481.9556,303.4775 4483.2681,301.8213 Q4484.5963,300.165 4487.0963,300.165 Q4487.7994,300.165 4488.44,300.3213 Q4489.0963,300.4775 4489.6588,300.7744 L4489.6588,303.4931 Q4489.0338,302.915 4488.44,302.6494 Q4487.8463,302.3681 4487.2213,302.3681 Q4485.8775,302.3681 4485.19,303.4463 Q4484.5025,304.5088 4484.5025,306.6025 Q4484.5025,308.6963 4485.19,309.7744 Q4485.8775,310.8369 4487.2213,310.8369 Q4487.8463,310.8369 4488.44,310.5713 Q4489.0338,310.29 4489.6588,309.7119 L4489.6588,312.4306 Z " fill="#000000"/><text fill="#000000" font-family="sans-serif" font-size="14" lengthAdjust="spacing" textLength="80.623" x="4500.69" y="311.6367">Ingrediente</text><line style="stroke:#181818;stroke-width:0.5;" x1="4472.69" x2="4583.313" y1="322.79" y2="322.79"/><line style="stroke:#181818;stroke-width:0.5;" x1="4472.69" x2="4583.313" y1="330.79" y2="330.79"/></g><!--link AplicarDesconto to Acao--><g class="link" data-entity-1="AplicarDesconto" data-entity-2="Acao" data-source-line="65" data-uid="lnk13" id="link_AplicarDesconto_Acao"><path codeLine="65" d="M665.71,195.03 C671.51,195.78 677.28,196.5 683,197.19 C1199.56,259.64 1795.6084,291.9764 2094.8584,305.5164" fill="none" id="AplicarDesconto-to-Acao" style="stroke:#181818;stroke-width:1;"/><polygon fill="none" points="2112.84,306.33,2095.1296,299.5225,2094.5872,311.5103,2112.84,306.33" style="stroke:#181818;stroke-width:1;"/></g><!--link AumentarPreco to Acao--><g class="link" data-entity-1="AumentarPreco" data-entity-2="Acao" data-source-line="66" data-uid="lnk14" id="link_AumentarPreco_Acao"><path codeLine="66" d="M1312.05,194.53 C1318.08,195.44 1324.07,196.33 1330,197.19 C1601.97,236.93 1900.5962,271.3475 2094.8862,292.5475" fill="none" id="AumentarPreco-to-Acao" style="stroke:#181818;stroke-width:1;"/><polygon fill="none" points="2112.78,294.5,2095.537,286.5829,2094.2354,298.5121,2112.78,294.5" style="stroke:#181818;stroke-width:1;"/></g><!--link BaixarPreco to Acao--><g class="link" data-entity-1="BaixarPreco" data-entity-2="Acao" data-source-line="67" data-uid="lnk15" id="link_BaixarPreco_Acao"><path codeLine="67" d="M1852.44,197.62 C1936.5,219.69 2014.62,240.1892 2095.37,261.3892" fill="none" id="BaixarPreco-to-Acao" style="stroke:#181818;stroke-width:1;"/><polygon fill="none" points="2112.78,265.96,2096.8936,255.5859,2093.8464,267.1925,2112.78,265.96" style="stroke:#181818;stroke-width:1;"/></g><!--link DeclararFalencia to Acao--><g class="link" data-entity-1="DeclararFalencia" data-entity-2="Acao" data-source-line="68" data-uid="lnk16" id="link_DeclararFalencia_Acao"><path codeLine="68" d="M2169.4,181.1 C2190.92,203.84 2205.9465,219.7072 2229.6565,244.7572" fill="none" id="DeclararFalencia-to-Acao" style="stroke:#181818;stroke-width:1;"/><polygon fill="none" points="2242.03,257.83,2234.0141,240.6327,2225.2989,248.8817,2242.03,257.83" style="stroke:#181818;stroke-width:1;"/></g><!--link DemitirFuncionario to Acao--><g class="link" data-entity-1="DemitirFuncionario" data-entity-2="Acao" data-source-line="69" data-uid="lnk17" id="link_DemitirFuncionario_Acao"><path codeLine="69" d="M2512.55,189.33 C2475.5,210.53 2447.2436,226.6912 2408.6336,248.7812" fill="none" id="DemitirFuncionario-to-Acao" style="stroke:#181818;stroke-width:1;"/><polygon fill="none" points="2393.01,257.72,2411.6132,253.9891,2405.654,243.5733,2393.01,257.72" style="stroke:#181818;stroke-width:1;"/></g><!--link PromoverFuncionario to Acao--><g class="link" data-entity-1="PromoverFuncionario" data-entity-2="Acao" data-source-line="70" data-uid="lnk18" id="link_PromoverFuncionario_Acao"><path codeLine="70" d="M2893.36,194.94 C2887.53,195.71 2881.74,196.46 2876,197.19 C2741.32,214.34 2705.04,200.13 2572,227.19 C2533.49,235.03 2509.943,240.8657 2471.883,252.5057" fill="none" id="PromoverFuncionario-to-Acao" style="stroke:#181818;stroke-width:1;"/><polygon fill="none" points="2454.67,257.77,2473.6378,258.2434,2470.1282,246.768,2454.67,257.77" style="stroke:#181818;stroke-width:1;"/></g><!--link RebaixarFuncionario to Acao--><g class="link" data-entity-1="RebaixarFuncionario" data-entity-2="Acao" data-source-line="71" data-uid="lnk19" id="link_RebaixarFuncionario_Acao"><path codeLine="71" d="M3604.77,195.2 C3599.14,195.89 3593.55,196.55 3588,197.19 C3221.88,239.45 3127.85,222.8 2761,258.19 C2667.33,267.23 2581.1929,277.2125 2495.2429,287.8825" fill="none" id="RebaixarFuncionario-to-Acao" style="stroke:#181818;stroke-width:1;"/><polygon fill="none" points="2477.38,290.1,2495.9821,293.8368,2494.5037,281.9282,2477.38,290.1" style="stroke:#181818;stroke-width:1;"/></g><!--link ReporIngredienteNoEstoque to Acao--><g class="link" data-entity-1="ReporIngredienteNoEstoque" data-entity-2="Acao" data-source-line="72" data-uid="lnk20" id="link_ReporIngredienteNoEstoque_Acao"><path codeLine="72" d="M4311.87,194.98 C4305.87,195.76 4299.9,196.51 4294,197.19 C3616.7,276.03 3440.73,204.21 2761,258.19 C2667.19,265.64 2581.0251,275.4103 2495.1051,286.3803" fill="none" id="ReporIngredienteNoEstoque-to-Acao" style="stroke:#181818;stroke-width:1;"/><polygon fill="none" points="2477.25,288.66,2495.8649,292.332,2494.3452,280.4286,2477.25,288.66" style="stroke:#181818;stroke-width:1;"/></g><!--link Acao to Cargo--><g class="link" data-entity-1="Acao" data-entity-2="Cargo" data-source-line="73" data-uid="lnk22" id="link_Acao_Cargo"><path codeLine="73" d="M2295,371.52 C2295,397.85 2295,421.86 2295,442.05" fill="none" id="Acao-to-Cargo" style="stroke:#181818;stroke-width:1;"/><polygon fill="#181818" points="2295,448.05,2299,439.05,2295,443.05,2291,439.05,2295,448.05" style="stroke:#181818;stroke-width:1;"/><text fill="#000000" font-family="sans-serif" font-size="13" lengthAdjust="spacing" textLength="47.9502" x="2296" y="414.4469">verifica</text></g><!--link AplicarDesconto to Cardapio--><g class="link" data-entity-1="AplicarDesconto" data-entity-2="Cardapio" data-source-line="74" data-uid="lnk24" id="link_AplicarDesconto_Cardapio"><path codeLine="74" d="M567.49,197.62 C706.27,234.39 870.8401,277.9835 952.3401,299.5735" fill="none" id="AplicarDesconto-to-Cardapio" style="stroke:#181818;stroke-width:1;"/><polygon fill="#181818" points="958.14,301.11,950.4644,294.9387,953.3067,299.8296,948.4158,302.672,958.14,301.11" style="stroke:#181818;stroke-width:1;"/></g><!--link AumentarPreco to Cardapio--><g class="link" data-entity-1="AumentarPreco" data-entity-2="Cardapio" data-source-line="75" data-uid="lnk25" id="link_AumentarPreco_Cardapio"><path codeLine="75" d="M1006,197.5 C1006,229.12 1006,260.96 1006,284.69" fill="none" id="AumentarPreco-to-Cardapio" style="stroke:#181818;stroke-width:1;"/><polygon fill="#181818" points="1006,290.69,1010,281.69,1006,285.69,1002,281.69,1006,290.69" style="stroke:#181818;stroke-width:1;"/></g><!--link BaixarPreco to Cardapio--><g class="link" data-entity-1="BaixarPreco" data-entity-2="Cardapio" data-source-line="76" data-uid="lnk26" id="link_BaixarPreco_Cardapio"><path codeLine="76" d="M1433.05,197.62 C1298.61,234.19 1139.5397,277.4653 1059.6797,299.1853" fill="none" id="BaixarPreco-to-Cardapio" style="stroke:#181818;stroke-width:1;"/><polygon fill="#181818" points="1053.89,300.76,1063.6243,302.2578,1058.7147,299.4478,1061.5248,294.5382,1053.89,300.76" style="stroke:#181818;stroke-width:1;"/></g><!--link DeclararFalencia to Restaurante--><g class="link" data-entity-1="DeclararFalencia" data-entity-2="Restaurante" data-source-line="77" data-uid="lnk28" id="link_DeclararFalencia_Restaurante"><path codeLine="77" d="M2259.35,181.39 C2278.28,186.93 2297.6,192.36 2316,197.19 C2482.08,240.8 2674.7292,281.16 2771.7892,300.8" fill="none" id="DeclararFalencia-to-Restaurante" style="stroke:#181818;stroke-width:1;"/><polygon fill="#181818" points="2777.67,301.99,2769.6421,296.2845,2772.7693,300.9984,2768.0555,304.1256,2777.67,301.99" style="stroke:#181818;stroke-width:1;"/></g><!--link DemitirFuncionario to Restaurante--><g class="link" data-entity-1="DemitirFuncionario" data-entity-2="Restaurante" data-source-line="78" data-uid="lnk29" id="link_DemitirFuncionario_Restaurante"><path codeLine="78" d="M2662.81,189.33 C2708.92,222.28 2763.3277,261.1524 2799.4877,286.9824" fill="none" id="DemitirFuncionario-to-Restaurante" style="stroke:#181818;stroke-width:1;"/><polygon fill="#181818" points="2804.37,290.47,2799.3716,281.9838,2800.3014,287.5637,2794.7215,288.4935,2804.37,290.47" style="stroke:#181818;stroke-width:1;"/></g><!--link PromoverFuncionario to Restaurante--><g class="link" data-entity-1="PromoverFuncionario" data-entity-2="Restaurante" data-source-line="79" data-uid="lnk30" id="link_PromoverFuncionario_Restaurante"><path codeLine="79" d="M3103.48,197.62 C3031.3,229.09 2950.5701,264.2822 2896.1601,288.0022" fill="none" id="PromoverFuncionario-to-Restaurante" style="stroke:#181818;stroke-width:1;"/><polygon fill="#181818" points="2890.66,290.4,2900.5086,290.4701,2895.2434,288.4019,2897.3116,283.1367,2890.66,290.4" style="stroke:#181818;stroke-width:1;"/></g><!--link RebaixarFuncionario to Restaurante--><g class="link" data-entity-1="RebaixarFuncionario" data-entity-2="Restaurante" data-source-line="80" data-uid="lnk31" id="link_RebaixarFuncionario_Restaurante"><path codeLine="80" d="M3605.15,194.51 C3599.39,195.41 3593.67,196.31 3588,197.19 C3330.54,237.45 3029.2796,284.0737 2902.3196,303.6937" fill="none" id="RebaixarFuncionario-to-Restaurante" style="stroke:#181818;stroke-width:1;"/><polygon fill="#181818" points="2896.39,304.61,2905.8953,307.1886,2901.3313,303.8464,2904.6735,299.2824,2896.39,304.61" style="stroke:#181818;stroke-width:1;"/></g><!--link ReporIngredienteNoEstoque to Estoque--><g class="link" data-entity-1="ReporIngredienteNoEstoque" data-entity-2="Estoque" data-source-line="81" data-uid="lnk33" id="link_ReporIngredienteNoEstoque_Estoque"><path codeLine="81" d="M4607.27,197.5 C4622.7,229.12 4638.5305,261.5669 4650.1005,285.2969" fill="none" id="ReporIngredienteNoEstoque-to-Estoque" style="stroke:#181818;stroke-width:1;"/><polygon fill="#181818" points="4652.73,290.69,4652.3811,280.8473,4650.5387,286.1957,4645.1903,284.3533,4652.73,290.69" style="stroke:#181818;stroke-width:1;"/></g><!--link ReporIngredienteNoEstoque to Ingrediente--><g class="link" data-entity-1="ReporIngredienteNoEstoque" data-entity-2="Ingrediente" data-source-line="82" data-uid="lnk35" id="link_ReporIngredienteNoEstoque_Ingrediente"><path codeLine="82" d="M4563.12,197.5 C4553.57,229.12 4543.8754,261.2165 4536.7054,284.9465" fill="none" id="ReporIngredienteNoEstoque-to-Ingrediente" style="stroke:#181818;stroke-width:1;"/><polygon fill="#181818" points="4534.97,290.69,4541.4021,283.2316,4536.4162,285.9037,4533.7441,280.9177,4534.97,290.69" style="stroke:#181818;stroke-width:1;"/></g><!--SRC=[lLLHRjim3FtFAOZ-DCNi7i0V1hgq1V9J1Ca969a9XDgY9yj1YoxdsGbsWbviSk8uiYmFHP3jnxRqo4S-cfIgLwbAr5Z0BCUgUZ16otLjQ2vOhSnxJb0PqiJclQJ9f4JnYbk26qsLmLgZCdIF0la6FYO0kAwCHc50D5pmO873Fi0t-3Y1Uw0t4hL1FRrBOCSo6rhmsWPzuO8QavLDIMr7Z1wf4bhQG0FB7McviOXUqO8pUZe5jJjRJc3MlApFcZadLDPfFx6FDlCoRpmRSbRc9286kvTXAO_kXwyMa8QA1ERswG4bQK7Ar9YVo1BOv8ocpTABD1r6Y0BaqJZldQUaBgmPweKcSHqTHqPVXXlc0X5zKa_3TvHlrrImfAos7TDNu0Iv8Fy-fPV_8zctHlsCEIaXiHFXJ542o_EYJSdtcuxP3-8LqaZzN5idLgWbVorY39kpImAEVvUGJpoQKZJAvIMxq5omdTLhPnk3uXtFd65lHGG2Ng0Y6j1xkfQqFdJKVzCL2FXlT9MivsghAPEsz-c5doh3FshgrD5ndK0BV4sqF5FQCJilEdKZOQT-k6YKgbDoQ-bo_Fpr-Pigk_HF-pZ-cHukhmRhdPykufvAxlvWsllWO3HTE3GCBXvggZu-zdDwcffxEOxJu_-5fBigWxL8tHFMBqSFx5Ua1mMAadfD42oDRnGka6yLBjFGQhnOgTEyVxTpMtN_1m00]--></g></svg>