<svg xmlns="http://www.w3.org/2000/svg" xmlns:xlink="http://www.w3.org/1999/xlink" contentStyleType="text/css" data-diagram-type="CLASS" height="828px" preserveAspectRatio="none" style="width:2091px;height:828px;background:#FFFFFF;" version="1.1" viewBox="0 0 2091 828" width="2091px" zoomAndPan="magnify"><defs/><g><!--cluster restaurante--><g class="cluster" data-entity="restaurante" data-source-line="4" data-uid="ent0004" id="cluster_restaurante"><path d="M8.5,6 L102.8447,6 A3.75,3.75 0 0 1 105.3447,8.5 L112.3447,28.2969 L2081.5,28.2969 A2.5,2.5 0 0 1 2084,30.7969 L2084,819.44 A2.5,2.5 0 0 1 2081.5,821.94 L8.5,821.94 A2.5,2.5 0 0 1 6,819.44 L6,8.5 A2.5,2.5 0 0 1 8.5,6" fill="none" style="stroke:#000000;stroke-width:1.5;"/><line style="stroke:#000000;stroke-width:1.5;" x1="6" x2="112.3447" y1="28.2969" y2="28.2969"/><text fill="#000000" font-family="sans-serif" font-size="14" font-weight="bold" lengthAdjust="spacing" textLength="93.3447" x="10" y="20.9951">restaurante</text></g><!--cluster ui--><g class="cluster" data-entity="ui" data-source-line="3" data-uid="ent0002" id="cluster_ui"><path d="M32.5,49 L48.2656,49 A3.75,3.75 0 0 1 50.7656,51.5 L57.7656,71.2969 L2057.5,71.2969 A2.5,2.5 0 0 1 2060,73.7969 L2060,795.44 A2.5,2.5 0 0 1 2057.5,797.94 L32.5,797.94 A2.5,2.5 0 0 1 30,795.44 L30,51.5 A2.5,2.5 0 0 1 32.5,49" fill="none" style="stroke:#000000;stroke-width:1.5;"/><line style="stroke:#000000;stroke-width:1.5;" x1="30" x2="57.7656" y1="71.2969" y2="71.2969"/><text fill="#000000" font-family="sans-serif" font-size="14" font-weight="bold" lengthAdjust="spacing" textLength="14.7656" x="34" y="63.9951">ui</text></g><!--class Main--><g class="entity" data-entity="Main" data-source-line="4" data-uid="ent0003" id="entity_Main"><rect fill="#F1F1F1" height="129.4844" rx="2.5" ry="2.5" style="stroke:#181818;stroke-width:0.5;" width="203.085" x="131.46" y="84"/><ellipse cx="212.042" cy="100" fill="#ADD1B2" rx="11" ry="11" style="stroke:#181818;stroke-width:1;"/><path d="M215.0108,105.6406 Q214.4327,105.9375 213.792,106.0781 Q213.1514,106.2344 212.4483,106.2344 Q209.9483,106.2344 208.6202,104.5938 Q207.3077,102.9375 207.3077,99.8125 Q207.3077,96.6875 208.6202,95.0313 Q209.9483,93.375 212.4483,93.375 Q213.1514,93.375 213.792,93.5313 Q214.4483,93.6875 215.0108,93.9844 L215.0108,96.7031 Q214.3858,96.125 213.792,95.8594 Q213.1983,95.5781 212.5733,95.5781 Q211.2295,95.5781 210.542,96.6563 Q209.8545,97.7188 209.8545,99.8125 Q209.8545,101.9063 210.542,102.9844 Q211.2295,104.0469 212.5733,104.0469 Q213.1983,104.0469 213.792,103.7813 Q214.3858,103.5 215.0108,102.9219 L215.0108,105.6406 Z " fill="#000000"/><text fill="#000000" font-family="sans-serif" font-size="14" lengthAdjust="spacing" textLength="33.4209" x="232.542" y="104.8467">Main</text><line style="stroke:#181818;stroke-width:0.5;" x1="132.46" x2="333.545" y1="116" y2="116"/><rect fill="none" height="6" style="stroke:#C82930;stroke-width:1;" width="6" x="139.46" y="126.6484"/><text fill="#000000" font-family="sans-serif" font-size="14" lengthAdjust="spacing" text-decoration="underline" textLength="36.3057" x="151.46" y="132.9951">ui: UI</text><rect fill="none" height="6" style="stroke:#C82930;stroke-width:1;" width="6" x="139.46" y="142.9453"/><text fill="#000000" font-family="sans-serif" font-size="14" lengthAdjust="spacing" text-decoration="underline" textLength="176.9688" x="151.46" y="149.292">restaurante: Restaurante</text><rect fill="none" height="6" style="stroke:#C82930;stroke-width:1;" width="6" x="139.46" y="159.2422"/><text fill="#000000" font-family="sans-serif" font-size="14" lengthAdjust="spacing" text-decoration="underline" textLength="120.3535" x="151.46" y="165.5889">sistema: Sistema</text><text fill="#000000" font-family="sans-serif" font-size="14" lengthAdjust="spacing" textLength="13.3506" x="151.46" y="181.8857">...</text><line style="stroke:#181818;stroke-width:0.5;" x1="132.46" x2="333.545" y1="189.1875" y2="189.1875"/><ellipse cx="142.46" cy="202.8359" fill="#84BE84" rx="3" ry="3" style="stroke:#038048;stroke-width:1;"/><text fill="#000000" font-family="sans-serif" font-size="14" lengthAdjust="spacing" text-decoration="underline" textLength="177.085" x="151.46" y="206.1826">main(args: String[]): void</text></g><!--class UI--><g class="entity" data-entity="UI" data-source-line="12" data-uid="ent0005" id="entity_UI"><rect fill="#F1F1F1" height="162.0781" rx="2.5" ry="2.5" style="stroke:#181818;stroke-width:0.5;" width="373.874" x="46.06" y="273.49"/><ellipse cx="221.559" cy="289.49" fill="#ADD1B2" rx="11" ry="11" style="stroke:#181818;stroke-width:1;"/><path d="M224.5278,295.1306 Q223.9496,295.4275 223.309,295.5681 Q222.6684,295.7244 221.9653,295.7244 Q219.4653,295.7244 218.1371,294.0838 Q216.8246,292.4275 216.8246,289.3025 Q216.8246,286.1775 218.1371,284.5213 Q219.4653,282.865 221.9653,282.865 Q222.6684,282.865 223.309,283.0213 Q223.9653,283.1775 224.5278,283.4744 L224.5278,286.1931 Q223.9028,285.615 223.309,285.3494 Q222.7153,285.0681 222.0903,285.0681 Q220.7465,285.0681 220.059,286.1463 Q219.3715,287.2088 219.3715,289.3025 Q219.3715,291.3963 220.059,292.4744 Q220.7465,293.5369 222.0903,293.5369 Q222.7153,293.5369 223.309,293.2713 Q223.9028,292.99 224.5278,292.4119 L224.5278,295.1306 Z " fill="#000000"/><text fill="#000000" font-family="sans-serif" font-size="14" lengthAdjust="spacing" textLength="14.376" x="242.059" y="294.3367">UI</text><line style="stroke:#181818;stroke-width:0.5;" x1="47.06" x2="418.934" y1="305.49" y2="305.49"/><rect fill="none" height="6" style="stroke:#C82930;stroke-width:1;" width="6" x="54.06" y="316.1384"/><text fill="#000000" font-family="sans-serif" font-size="14" lengthAdjust="spacing" textLength="141.7979" x="66.06" y="322.4851">widgetAtivo: Widget</text><rect fill="none" height="6" style="stroke:#C82930;stroke-width:1;" width="6" x="54.06" y="332.4353"/><text fill="#000000" font-family="sans-serif" font-size="14" lengthAdjust="spacing" textLength="160.4326" x="66.06" y="338.782">needsRedraw: boolean</text><line style="stroke:#181818;stroke-width:0.5;" x1="47.06" x2="418.934" y1="346.0838" y2="346.0838"/><ellipse cx="57.06" cy="359.7322" fill="#84BE84" rx="3" ry="3" style="stroke:#038048;stroke-width:1;"/><text fill="#000000" font-family="sans-serif" font-size="14" lengthAdjust="spacing" textLength="25.2998" x="66.06" y="363.0789">UI()</text><ellipse cx="57.06" cy="376.0291" fill="#84BE84" rx="3" ry="3" style="stroke:#038048;stroke-width:1;"/><text fill="#000000" font-family="sans-serif" font-size="14" lengthAdjust="spacing" textLength="251.6514" x="66.06" y="379.3757">addWidget(widget: Widget): Widget</text><ellipse cx="57.06" cy="392.3259" fill="#84BE84" rx="3" ry="3" style="stroke:#038048;stroke-width:1;"/><text fill="#000000" font-family="sans-serif" font-size="14" lengthAdjust="spacing" textLength="138.291" x="66.06" y="395.6726">forceRedraw(): void</text><ellipse cx="57.06" cy="408.6228" fill="#84BE84" rx="3" ry="3" style="stroke:#038048;stroke-width:1;"/><text fill="#000000" font-family="sans-serif" font-size="14" lengthAdjust="spacing" textLength="101.1924" x="66.06" y="411.9695">exibir(): String</text><ellipse cx="57.06" cy="424.9197" fill="#84BE84" rx="3" ry="3" style="stroke:#038048;stroke-width:1;"/><text fill="#000000" font-family="sans-serif" font-size="14" lengthAdjust="spacing" textLength="347.874" x="66.06" y="428.2664">processarEvento(evento: EventoTeclado): Widget</text></g><!--class Widget--><g class="entity" data-entity="Widget" data-source-line="22" data-uid="ent0006" id="entity_Widget"><rect fill="#F1F1F1" height="178.375" rx="2.5" ry="2.5" style="stroke:#181818;stroke-width:0.5;" width="373.874" x="515.06" y="495.56"/><ellipse cx="672.9428" cy="511.56" fill="#A9DCDF" rx="11" ry="11" style="stroke:#181818;stroke-width:1;"/><path d="M673.0522,506.9038 L671.8959,511.9819 L674.2241,511.9819 L673.0522,506.9038 Z M671.5678,504.6694 L674.5522,504.6694 L677.9116,517.06 L675.4584,517.06 L674.6928,513.9975 L671.4116,513.9975 L670.6616,517.06 L668.2241,517.06 L671.5678,504.6694 Z " fill="#000000"/><text fill="#000000" font-family="sans-serif" font-size="14" font-style="italic" lengthAdjust="spacing" textLength="49.6084" x="693.4428" y="516.4067">Widget</text><line style="stroke:#181818;stroke-width:0.5;" x1="516.06" x2="887.934" y1="527.56" y2="527.56"/><polygon fill="none" points="526.06,536.2084,530.06,540.2084,526.06,544.2084,522.06,540.2084" style="stroke:#B38D22;stroke-width:1;"/><text fill="#000000" font-family="sans-serif" font-size="14" lengthAdjust="spacing" textLength="184.4131" x="535.06" y="544.5551">children: Vector&lt;Widget&gt;</text><polygon fill="none" points="526.06,552.5053,530.06,556.5053,526.06,560.5053,522.06,556.5053" style="stroke:#B38D22;stroke-width:1;"/><text fill="#000000" font-family="sans-serif" font-size="14" lengthAdjust="spacing" textLength="104.9727" x="535.06" y="560.852">parent: Widget</text><polygon fill="none" points="526.06,568.8022,530.06,572.8022,526.06,576.8022,522.06,572.8022" style="stroke:#B38D22;stroke-width:1;"/><text fill="#000000" font-family="sans-serif" font-size="14" lengthAdjust="spacing" textLength="66.0078" x="535.06" y="577.1489">width: int</text><line style="stroke:#181818;stroke-width:0.5;" x1="516.06" x2="887.934" y1="584.4506" y2="584.4506"/><ellipse cx="526.06" cy="598.0991" fill="#84BE84" rx="3" ry="3" style="stroke:#038048;stroke-width:1;"/><text fill="#000000" font-family="sans-serif" font-size="14" lengthAdjust="spacing" textLength="60.5322" x="535.06" y="601.4457">Widget()</text><ellipse cx="526.06" cy="614.3959" fill="#84BE84" rx="3" ry="3" style="stroke:#038048;stroke-width:1;"/><text fill="#000000" font-family="sans-serif" font-size="14" lengthAdjust="spacing" textLength="251.6514" x="535.06" y="617.7426">addWidget(widget: Widget): Widget</text><ellipse cx="526.06" cy="630.6928" fill="#84BE84" rx="3" ry="3" style="stroke:#038048;stroke-width:1;"/><text fill="#000000" font-family="sans-serif" font-size="14" font-style="italic" lengthAdjust="spacing" textLength="101.1924" x="535.06" y="634.0395">exibir(): String</text><ellipse cx="526.06" cy="646.9897" fill="#84BE84" rx="3" ry="3" style="stroke:#038048;stroke-width:1;"/><text fill="#000000" font-family="sans-serif" font-size="14" lengthAdjust="spacing" textLength="347.874" x="535.06" y="650.3364">processarEvento(evento: EventoTeclado): Widget</text><ellipse cx="526.06" cy="663.2866" fill="#84BE84" rx="3" ry="3" style="stroke:#038048;stroke-width:1;"/><text fill="#000000" font-family="sans-serif" font-size="14" lengthAdjust="spacing" textLength="155.7637" x="535.06" y="666.6332">renderLines(): String[]</text></g><!--class Label--><g class="entity" data-entity="Label" data-source-line="33" data-uid="ent0007" id="entity_Label"><rect fill="#F1F1F1" height="113.1875" rx="2.5" ry="2.5" style="stroke:#181818;stroke-width:0.5;" width="181.7637" x="455.12" y="297.93"/><ellipse cx="522.8676" cy="313.93" fill="#ADD1B2" rx="11" ry="11" style="stroke:#181818;stroke-width:1;"/><path d="M525.8363,319.5706 Q525.2582,319.8675 524.6176,320.0081 Q523.9769,320.1644 523.2738,320.1644 Q520.7738,320.1644 519.4457,318.5238 Q518.1332,316.8675 518.1332,313.7425 Q518.1332,310.6175 519.4457,308.9613 Q520.7738,307.305 523.2738,307.305 Q523.9769,307.305 524.6176,307.4613 Q525.2738,307.6175 525.8363,307.9144 L525.8363,310.6331 Q525.2113,310.055 524.6176,309.7894 Q524.0238,309.5081 523.3988,309.5081 Q522.0551,309.5081 521.3676,310.5863 Q520.6801,311.6488 520.6801,313.7425 Q520.6801,315.8363 521.3676,316.9144 Q522.0551,317.9769 523.3988,317.9769 Q524.0238,317.9769 524.6176,317.7113 Q525.2113,317.43 525.8363,316.8519 L525.8363,319.5706 Z " fill="#000000"/><text fill="#000000" font-family="sans-serif" font-size="14" lengthAdjust="spacing" textLength="37.7686" x="543.3676" y="318.7767">Label</text><line style="stroke:#181818;stroke-width:0.5;" x1="456.12" x2="635.8837" y1="329.93" y2="329.93"/><rect fill="none" height="6" style="stroke:#C82930;stroke-width:1;" width="6" x="463.12" y="340.5784"/><text fill="#000000" font-family="sans-serif" font-size="14" lengthAdjust="spacing" textLength="87.3906" x="475.12" y="346.9251">texto: String</text><line style="stroke:#181818;stroke-width:0.5;" x1="456.12" x2="635.8837" y1="354.2269" y2="354.2269"/><ellipse cx="466.12" cy="367.8753" fill="#84BE84" rx="3" ry="3" style="stroke:#038048;stroke-width:1;"/><text fill="#000000" font-family="sans-serif" font-size="14" lengthAdjust="spacing" textLength="136.083" x="475.12" y="371.222">Label(texto: String)</text><ellipse cx="466.12" cy="384.1722" fill="#84BE84" rx="3" ry="3" style="stroke:#038048;stroke-width:1;"/><text fill="#000000" font-family="sans-serif" font-size="14" lengthAdjust="spacing" textLength="101.1924" x="475.12" y="387.5189">exibir(): String</text><ellipse cx="466.12" cy="400.4691" fill="#84BE84" rx="3" ry="3" style="stroke:#038048;stroke-width:1;"/><text fill="#000000" font-family="sans-serif" font-size="14" lengthAdjust="spacing" textLength="155.7637" x="475.12" y="403.8157">renderLines(): String[]</text></g><!--class Opcao--><g class="entity" data-entity="Opcao" data-source-line="40" data-uid="ent0008" id="entity_Opcao"><rect fill="#F1F1F1" height="145.7813" rx="2.5" ry="2.5" style="stroke:#181818;stroke-width:0.5;" width="374.2432" x="1379.88" y="281.64"/><ellipse cx="1540.3776" cy="297.64" fill="#ADD1B2" rx="11" ry="11" style="stroke:#181818;stroke-width:1;"/><path d="M1543.3463,303.2806 Q1542.7682,303.5775 1542.1276,303.7181 Q1541.4869,303.8744 1540.7838,303.8744 Q1538.2838,303.8744 1536.9557,302.2338 Q1535.6432,300.5775 1535.6432,297.4525 Q1535.6432,294.3275 1536.9557,292.6713 Q1538.2838,291.015 1540.7838,291.015 Q1541.4869,291.015 1542.1276,291.1713 Q1542.7838,291.3275 1543.3463,291.6244 L1543.3463,294.3431 Q1542.7213,293.765 1542.1276,293.4994 Q1541.5338,293.2181 1540.9088,293.2181 Q1539.5651,293.2181 1538.8776,294.2963 Q1538.1901,295.3588 1538.1901,297.4525 Q1538.1901,299.5463 1538.8776,300.6244 Q1539.5651,301.6869 1540.9088,301.6869 Q1541.5338,301.6869 1542.1276,301.4213 Q1542.7213,301.14 1543.3463,300.5619 L1543.3463,303.2806 Z " fill="#000000"/><text fill="#000000" font-family="sans-serif" font-size="14" lengthAdjust="spacing" textLength="44.748" x="1560.8776" y="302.4867">Opcao</text><line style="stroke:#181818;stroke-width:0.5;" x1="1380.88" x2="1753.1232" y1="313.64" y2="313.64"/><rect fill="none" height="6" style="stroke:#C82930;stroke-width:1;" width="6" x="1387.88" y="324.2884"/><text fill="#000000" font-family="sans-serif" font-size="14" lengthAdjust="spacing" textLength="87.3906" x="1399.88" y="330.6351">texto: String</text><rect fill="none" height="6" style="stroke:#C82930;stroke-width:1;" width="6" x="1387.88" y="340.5853"/><text fill="#000000" font-family="sans-serif" font-size="14" lengthAdjust="spacing" textLength="196.2803" x="1399.88" y="346.932">funcao: Consumer&lt;Opcao&gt;</text><rect fill="none" height="6" style="stroke:#C82930;stroke-width:1;" width="6" x="1387.88" y="356.8822"/><text fill="#000000" font-family="sans-serif" font-size="14" lengthAdjust="spacing" textLength="119.998" x="1399.88" y="363.2289">focused: boolean</text><line style="stroke:#181818;stroke-width:0.5;" x1="1380.88" x2="1753.1232" y1="370.5306" y2="370.5306"/><ellipse cx="1390.88" cy="384.1791" fill="#84BE84" rx="3" ry="3" style="stroke:#038048;stroke-width:1;"/><text fill="#000000" font-family="sans-serif" font-size="14" lengthAdjust="spacing" textLength="348.2432" x="1399.88" y="387.5257">Opcao(texto: String, funcao: Consumer&lt;Opcao&gt;)</text><ellipse cx="1390.88" cy="400.4759" fill="#84BE84" rx="3" ry="3" style="stroke:#038048;stroke-width:1;"/><text fill="#000000" font-family="sans-serif" font-size="14" lengthAdjust="spacing" textLength="101.1924" x="1399.88" y="403.8226">exibir(): String</text><ellipse cx="1390.88" cy="416.7728" fill="#84BE84" rx="3" ry="3" style="stroke:#038048;stroke-width:1;"/><text fill="#000000" font-family="sans-serif" font-size="14" lengthAdjust="spacing" textLength="107.6387" x="1399.88" y="420.1195">onFocus(): void</text></g><!--class Menu--><g class="entity" data-entity="Menu" data-source-line="49" data-uid="ent0009" id="entity_Menu"><rect fill="#F1F1F1" height="145.7813" rx="2.5" ry="2.5" style="stroke:#181818;stroke-width:0.5;" width="373.874" x="672.06" y="281.64"/><ellipse cx="835.5278" cy="297.64" fill="#ADD1B2" rx="11" ry="11" style="stroke:#181818;stroke-width:1;"/><path d="M838.4965,303.2806 Q837.9184,303.5775 837.2778,303.7181 Q836.6371,303.8744 835.934,303.8744 Q833.434,303.8744 832.1059,302.2338 Q830.7934,300.5775 830.7934,297.4525 Q830.7934,294.3275 832.1059,292.6713 Q833.434,291.015 835.934,291.015 Q836.6371,291.015 837.2778,291.1713 Q837.934,291.3275 838.4965,291.6244 L838.4965,294.3431 Q837.8715,293.765 837.2778,293.4994 Q836.684,293.2181 836.059,293.2181 Q834.7153,293.2181 834.0278,294.2963 Q833.3403,295.3588 833.3403,297.4525 Q833.3403,299.5463 834.0278,300.6244 Q834.7153,301.6869 836.059,301.6869 Q836.684,301.6869 837.2778,301.4213 Q837.8715,301.14 838.4965,300.5619 L838.4965,303.2806 Z " fill="#000000"/><text fill="#000000" font-family="sans-serif" font-size="14" lengthAdjust="spacing" textLength="38.4385" x="856.0278" y="302.4867">Menu</text><line style="stroke:#181818;stroke-width:0.5;" x1="673.06" x2="1044.934" y1="313.64" y2="313.64"/><rect fill="none" height="6" style="stroke:#C82930;stroke-width:1;" width="6" x="680.06" y="324.2884"/><text fill="#000000" font-family="sans-serif" font-size="14" lengthAdjust="spacing" textLength="125.3027" x="692.06" y="330.6351">selectedIndex: int</text><rect fill="none" height="6" style="stroke:#C82930;stroke-width:1;" width="6" x="680.06" y="340.5853"/><text fill="#000000" font-family="sans-serif" font-size="14" lengthAdjust="spacing" textLength="87.1445" x="692.06" y="346.932">titulo: String</text><line style="stroke:#181818;stroke-width:0.5;" x1="673.06" x2="1044.934" y1="354.2338" y2="354.2338"/><ellipse cx="683.06" cy="367.8822" fill="#84BE84" rx="3" ry="3" style="stroke:#038048;stroke-width:1;"/><text fill="#000000" font-family="sans-serif" font-size="14" lengthAdjust="spacing" textLength="49.3623" x="692.06" y="371.2289">Menu()</text><ellipse cx="683.06" cy="384.1791" fill="#84BE84" rx="3" ry="3" style="stroke:#038048;stroke-width:1;"/><text fill="#000000" font-family="sans-serif" font-size="14" lengthAdjust="spacing" textLength="251.6514" x="692.06" y="387.5257">addWidget(widget: Widget): Widget</text><ellipse cx="683.06" cy="400.4759" fill="#84BE84" rx="3" ry="3" style="stroke:#038048;stroke-width:1;"/><text fill="#000000" font-family="sans-serif" font-size="14" lengthAdjust="spacing" textLength="101.1924" x="692.06" y="403.8226">exibir(): String</text><ellipse cx="683.06" cy="416.7728" fill="#84BE84" rx="3" ry="3" style="stroke:#038048;stroke-width:1;"/><text fill="#000000" font-family="sans-serif" font-size="14" lengthAdjust="spacing" textLength="347.874" x="692.06" y="420.1195">processarEvento(evento: EventoTeclado): Widget</text></g><!--class InfoBox--><g class="entity" data-entity="InfoBox" data-source-line="58" data-uid="ent0010" id="entity_InfoBox"><rect fill="#F1F1F1" height="129.4844" rx="2.5" ry="2.5" style="stroke:#181818;stroke-width:0.5;" width="263.501" x="1081.25" y="289.78"/><ellipse cx="1182.2749" cy="305.78" fill="#ADD1B2" rx="11" ry="11" style="stroke:#181818;stroke-width:1;"/><path d="M1185.2437,311.4206 Q1184.6655,311.7175 1184.0249,311.8581 Q1183.3843,312.0144 1182.6812,312.0144 Q1180.1812,312.0144 1178.853,310.3738 Q1177.5405,308.7175 1177.5405,305.5925 Q1177.5405,302.4675 1178.853,300.8113 Q1180.1812,299.155 1182.6812,299.155 Q1183.3843,299.155 1184.0249,299.3113 Q1184.6812,299.4675 1185.2437,299.7644 L1185.2437,302.4831 Q1184.6187,301.905 1184.0249,301.6394 Q1183.4312,301.3581 1182.8062,301.3581 Q1181.4624,301.3581 1180.7749,302.4363 Q1180.0874,303.4988 1180.0874,305.5925 Q1180.0874,307.6863 1180.7749,308.7644 Q1181.4624,309.8269 1182.8062,309.8269 Q1183.4312,309.8269 1184.0249,309.5613 Q1184.6187,309.28 1185.2437,308.7019 L1185.2437,311.4206 Z " fill="#000000"/><text fill="#000000" font-family="sans-serif" font-size="14" lengthAdjust="spacing" textLength="52.9512" x="1202.7749" y="310.6267">InfoBox</text><line style="stroke:#181818;stroke-width:0.5;" x1="1082.25" x2="1343.751" y1="321.78" y2="321.78"/><rect fill="none" height="6" style="stroke:#C82930;stroke-width:1;" width="6" x="1089.25" y="332.4284"/><text fill="#000000" font-family="sans-serif" font-size="14" lengthAdjust="spacing" textLength="87.1445" x="1101.25" y="338.7751">titulo: String</text><rect fill="none" height="6" style="stroke:#C82930;stroke-width:1;" width="6" x="1089.25" y="348.7253"/><text fill="#000000" font-family="sans-serif" font-size="14" lengthAdjust="spacing" textLength="161.5059" x="1101.25" y="355.072">linhas: Vector&lt;String&gt;</text><line style="stroke:#181818;stroke-width:0.5;" x1="1082.25" x2="1343.751" y1="362.3738" y2="362.3738"/><ellipse cx="1092.25" cy="376.0222" fill="#84BE84" rx="3" ry="3" style="stroke:#038048;stroke-width:1;"/><text fill="#000000" font-family="sans-serif" font-size="14" lengthAdjust="spacing" textLength="151.0195" x="1101.25" y="379.3689">InfoBox(titulo: String)</text><ellipse cx="1092.25" cy="392.3191" fill="#84BE84" rx="3" ry="3" style="stroke:#038048;stroke-width:1;"/><text fill="#000000" font-family="sans-serif" font-size="14" lengthAdjust="spacing" textLength="237.501" x="1101.25" y="395.6657">adicionarLinha(linha: String): void</text><ellipse cx="1092.25" cy="408.6159" fill="#84BE84" rx="3" ry="3" style="stroke:#038048;stroke-width:1;"/><text fill="#000000" font-family="sans-serif" font-size="14" lengthAdjust="spacing" textLength="101.1924" x="1101.25" y="411.9626">exibir(): String</text></g><!--class TecladoHandler--><g class="entity" data-entity="TecladoHandler" data-source-line="66" data-uid="ent0011" id="entity_TecladoHandler"><rect fill="#F1F1F1" height="96.8906" rx="2.5" ry="2.5" style="stroke:#181818;stroke-width:0.5;" width="273.6182" x="1625.19" y="100.3"/><ellipse cx="1702.795" cy="116.3" fill="#ADD1B2" rx="11" ry="11" style="stroke:#181818;stroke-width:1;"/><path d="M1705.7637,121.9406 Q1705.1856,122.2375 1704.545,122.3781 Q1703.9044,122.5344 1703.2012,122.5344 Q1700.7012,122.5344 1699.3731,120.8938 Q1698.0606,119.2375 1698.0606,116.1125 Q1698.0606,112.9875 1699.3731,111.3313 Q1700.7012,109.675 1703.2012,109.675 Q1703.9044,109.675 1704.545,109.8313 Q1705.2012,109.9875 1705.7637,110.2844 L1705.7637,113.0031 Q1705.1387,112.425 1704.545,112.1594 Q1703.9512,111.8781 1703.3262,111.8781 Q1701.9825,111.8781 1701.295,112.9563 Q1700.6075,114.0188 1700.6075,116.1125 Q1700.6075,118.2063 1701.295,119.2844 Q1701.9825,120.3469 1703.3262,120.3469 Q1703.9512,120.3469 1704.545,120.0813 Q1705.1387,119.8 1705.7637,119.2219 L1705.7637,121.9406 Z " fill="#000000"/><text fill="#000000" font-family="sans-serif" font-size="14" lengthAdjust="spacing" textLength="109.9082" x="1723.295" y="121.1467">TecladoHandler</text><line style="stroke:#181818;stroke-width:0.5;" x1="1626.19" x2="1897.8082" y1="132.3" y2="132.3"/><rect fill="none" height="6" style="stroke:#C82930;stroke-width:1;" width="6" x="1633.19" y="142.9484"/><text fill="#000000" font-family="sans-serif" font-size="14" lengthAdjust="spacing" textLength="122.1309" x="1645.19" y="149.2951">scanner: Scanner</text><line style="stroke:#181818;stroke-width:0.5;" x1="1626.19" x2="1897.8082" y1="156.5969" y2="156.5969"/><ellipse cx="1636.19" cy="170.2453" fill="#84BE84" rx="3" ry="3" style="stroke:#038048;stroke-width:1;"/><text fill="#000000" font-family="sans-serif" font-size="14" lengthAdjust="spacing" textLength="120.832" x="1645.19" y="173.592">TecladoHandler()</text><ellipse cx="1636.19" cy="186.5422" fill="#84BE84" rx="3" ry="3" style="stroke:#038048;stroke-width:1;"/><text fill="#000000" font-family="sans-serif" font-size="14" lengthAdjust="spacing" textLength="247.6182" x="1645.19" y="189.8889">lerProximoEvento(): EventoTeclado</text></g><!--class TipoEvento--><g class="entity" data-entity="TipoEvento" data-source-line="72" data-uid="ent0012" id="entity_TipoEvento"><rect fill="#F1F1F1" height="113.1875" rx="2.5" ry="2.5" style="stroke:#181818;stroke-width:0.5;" width="110.5654" x="1933.72" y="92.15"/><ellipse cx="1948.72" cy="108.15" fill="#EB937F" rx="11" ry="11" style="stroke:#181818;stroke-width:1;"/><path d="M1952.8294,114.15 L1945.1106,114.15 L1945.1106,101.7594 L1952.8294,101.7594 L1952.8294,103.9156 L1947.5638,103.9156 L1947.5638,106.5875 L1952.3294,106.5875 L1952.3294,108.7438 L1947.5638,108.7438 L1947.5638,111.9938 L1952.8294,111.9938 L1952.8294,114.15 Z " fill="#000000"/><text fill="#000000" font-family="sans-serif" font-size="14" lengthAdjust="spacing" textLength="78.5654" x="1962.72" y="112.9967">TipoEvento</text><line style="stroke:#181818;stroke-width:0.5;" x1="1934.72" x2="2043.2854" y1="124.15" y2="124.15"/><text fill="#000000" font-family="sans-serif" font-size="14" lengthAdjust="spacing" textLength="52.2676" x="1939.72" y="141.1451">KEY_UP</text><text fill="#000000" font-family="sans-serif" font-size="14" lengthAdjust="spacing" textLength="79.6934" x="1939.72" y="157.442">KEY_DOWN</text><text fill="#000000" font-family="sans-serif" font-size="14" lengthAdjust="spacing" textLength="46.4434" x="1939.72" y="173.7389">ENTER</text><text fill="#000000" font-family="sans-serif" font-size="14" lengthAdjust="spacing" textLength="27.5078" x="1939.72" y="190.0357">ESC</text><line style="stroke:#181818;stroke-width:0.5;" x1="1934.72" x2="2043.2854" y1="197.3375" y2="197.3375"/></g><!--class EventoTeclado--><g class="entity" data-entity="EventoTeclado" data-source-line="79" data-uid="ent0013" id="entity_EventoTeclado"><rect fill="#F1F1F1" height="80.5938" rx="2.5" ry="2.5" style="stroke:#181818;stroke-width:0.5;" width="254.9424" x="1789.53" y="314.23"/><ellipse cx="1861.0237" cy="330.23" fill="#ADD1B2" rx="11" ry="11" style="stroke:#181818;stroke-width:1;"/><path d="M1863.9924,335.8706 Q1863.4143,336.1675 1862.7737,336.3081 Q1862.133,336.4644 1861.4299,336.4644 Q1858.9299,336.4644 1857.6018,334.8238 Q1856.2893,333.1675 1856.2893,330.0425 Q1856.2893,326.9175 1857.6018,325.2613 Q1858.9299,323.605 1861.4299,323.605 Q1862.133,323.605 1862.7737,323.7613 Q1863.4299,323.9175 1863.9924,324.2144 L1863.9924,326.9331 Q1863.3674,326.355 1862.7737,326.0894 Q1862.1799,325.8081 1861.5549,325.8081 Q1860.2112,325.8081 1859.5237,326.8863 Q1858.8362,327.9488 1858.8362,330.0425 Q1858.8362,332.1363 1859.5237,333.2144 Q1860.2112,334.2769 1861.5549,334.2769 Q1862.1799,334.2769 1862.7737,334.0113 Q1863.3674,333.73 1863.9924,333.1519 L1863.9924,335.8706 Z " fill="#000000"/><text fill="#000000" font-family="sans-serif" font-size="14" lengthAdjust="spacing" textLength="103.4551" x="1881.5237" y="335.0767">EventoTeclado</text><line style="stroke:#181818;stroke-width:0.5;" x1="1790.53" x2="2043.4724" y1="346.23" y2="346.23"/><rect fill="none" height="6" style="stroke:#C82930;stroke-width:1;" width="6" x="1797.53" y="356.8784"/><text fill="#000000" font-family="sans-serif" font-size="14" lengthAdjust="spacing" textLength="114.5635" x="1809.53" y="363.2251">tipo: TipoEvento</text><line style="stroke:#181818;stroke-width:0.5;" x1="1790.53" x2="2043.4724" y1="370.5269" y2="370.5269"/><ellipse cx="1800.53" cy="384.1753" fill="#84BE84" rx="3" ry="3" style="stroke:#038048;stroke-width:1;"/><text fill="#000000" font-family="sans-serif" font-size="14" lengthAdjust="spacing" textLength="228.9424" x="1809.53" y="387.522">EventoTeclado(tipo: TipoEvento)</text></g><!--class Drawable--><g class="entity" data-entity="Drawable" data-source-line="84" data-uid="ent0014" id="entity_Drawable"><rect fill="#F1F1F1" height="48" rx="2.5" ry="2.5" style="stroke:#181818;stroke-width:0.5;" width="98.5342" x="652.73" y="733.94"/><ellipse cx="667.73" cy="749.94" fill="#B4A7E5" rx="11" ry="11" style="stroke:#181818;stroke-width:1;"/><path d="M663.6519,745.7056 L663.6519,743.5494 L671.0425,743.5494 L671.0425,745.7056 L668.5738,745.7056 L668.5738,753.7838 L671.0425,753.7838 L671.0425,755.94 L663.6519,755.94 L663.6519,753.7838 L666.1206,753.7838 L666.1206,745.7056 L663.6519,745.7056 Z " fill="#000000"/><text fill="#000000" font-family="sans-serif" font-size="14" font-style="italic" lengthAdjust="spacing" textLength="66.5342" x="681.73" y="754.7867">Drawable</text><line style="stroke:#181818;stroke-width:0.5;" x1="653.73" x2="750.2642" y1="765.94" y2="765.94"/><line style="stroke:#181818;stroke-width:0.5;" x1="653.73" x2="750.2642" y1="773.94" y2="773.94"/></g><!--class Focusable--><g class="entity" data-entity="Focusable" data-source-line="85" data-uid="ent0015" id="entity_Focusable"><rect fill="#F1F1F1" height="48" rx="2.5" ry="2.5" style="stroke:#181818;stroke-width:0.5;" width="102.4512" x="1515.77" y="560.75"/><ellipse cx="1530.77" cy="576.75" fill="#B4A7E5" rx="11" ry="11" style="stroke:#181818;stroke-width:1;"/><path d="M1526.6919,572.5156 L1526.6919,570.3594 L1534.0825,570.3594 L1534.0825,572.5156 L1531.6138,572.5156 L1531.6138,580.5938 L1534.0825,580.5938 L1534.0825,582.75 L1526.6919,582.75 L1526.6919,580.5938 L1529.1606,580.5938 L1529.1606,572.5156 L1526.6919,572.5156 Z " fill="#000000"/><text fill="#000000" font-family="sans-serif" font-size="14" font-style="italic" lengthAdjust="spacing" textLength="70.4512" x="1544.77" y="581.5967">Focusable</text><line style="stroke:#181818;stroke-width:0.5;" x1="1516.77" x2="1617.2212" y1="592.75" y2="592.75"/><line style="stroke:#181818;stroke-width:0.5;" x1="1516.77" x2="1617.2212" y1="600.75" y2="600.75"/></g><!--reverse link Main to UI--><g class="link" data-entity-1="Main" data-entity-2="UI" data-source-line="88" data-uid="lnk16" id="link_Main_UI"><path codeLine="88" d="M233,225.94 C233,244.73 233,253.5 233,273.15" fill="none" id="Main-backto-UI" style="stroke:#181818;stroke-width:1;"/><polygon fill="#181818" points="233,213.94,229,219.94,233,225.94,237,219.94,233,213.94" style="stroke:#181818;stroke-width:1;"/></g><!--reverse link UI to Widget--><g class="link" data-entity-1="UI" data-entity-2="Widget" data-source-line="89" data-uid="lnk17" id="link_UI_Widget"><path codeLine="89" d="M396.8682,441.3062 C437.9082,461.5862 471.97,478.1 514.63,498.6" fill="none" id="UI-backto-Widget" style="stroke:#181818;stroke-width:1;"/><polygon fill="none" points="386.11,435.99,389.717,442.2341,396.8682,441.3062,393.2611,435.062,386.11,435.99" style="stroke:#181818;stroke-width:1;"/></g><!--link UI to Widget--><g class="link" data-entity-1="UI" data-entity-2="Widget" data-source-line="97" data-uid="lnk25" id="link_UI_Widget"><path codeLine="97" d="M411.32,435.99 C451.24,455.11 477.3,467.6716 516.84,487.1316" fill="none" id="UI-to-Widget" style="stroke:#181818;stroke-width:1;"/><polygon fill="none" points="532.99,495.08,519.4894,481.7483,514.1905,492.5149,532.99,495.08" style="stroke:#181818;stroke-width:1;"/></g><!--link TecladoHandler to EventoTeclado--><g class="link" data-entity-1="TecladoHandler" data-entity-2="EventoTeclado" data-source-line="90" data-uid="lnk18" id="link_TecladoHandler_EventoTeclado"><path codeLine="90" d="M1798.34,197.52 C1825.27,232.93 1857.9175,275.8445 1883.2475,309.1445" fill="none" id="TecladoHandler-to-EventoTeclado" style="stroke:#181818;stroke-width:1;"/><polygon fill="#181818" points="1886.88,313.92,1884.6149,304.3352,1883.8529,309.9405,1878.2476,309.1785,1886.88,313.92" style="stroke:#181818;stroke-width:1;"/></g><!--link Opcao to Focusable--><g class="link" data-entity-1="Opcao" data-entity-2="Focusable" data-source-line="91" data-uid="lnk19" id="link_Opcao_Focusable"><path codeLine="91" d="M1567,427.74 C1567,473.45 1567,511.57 1567,542.51" fill="none" id="Opcao-to-Focusable" style="stroke:#181818;stroke-width:1;stroke-dasharray:7,7;"/><polygon fill="none" points="1567,560.51,1573,542.51,1561,542.51,1567,560.51" style="stroke:#181818;stroke-width:1;"/></g><!--link Widget to Drawable--><g class="link" data-entity-1="Widget" data-entity-2="Drawable" data-source-line="92" data-uid="lnk20" id="link_Widget_Drawable"><path codeLine="92" d="M702,674.35 C702,696.22 702,699.82 702,715.45" fill="none" id="Widget-to-Drawable" style="stroke:#181818;stroke-width:1;stroke-dasharray:7,7;"/><polygon fill="none" points="702,733.45,708,715.45,696,715.45,702,733.45" style="stroke:#181818;stroke-width:1;"/></g><!--link Label to Widget--><g class="link" data-entity-1="Label" data-entity-2="Widget" data-source-line="93" data-uid="lnk21" id="link_Label_Widget"><path codeLine="93" d="M584.16,411.36 C601.39,436.56 612.001,452.0909 631.281,480.2909" fill="none" id="Label-to-Widget" style="stroke:#181818;stroke-width:1;"/><polygon fill="none" points="641.44,495.15,636.234,476.9045,626.3279,483.6772,641.44,495.15" style="stroke:#181818;stroke-width:1;"/></g><!--link Opcao to Widget--><g class="link" data-entity-1="Opcao" data-entity-2="Widget" data-source-line="94" data-uid="lnk22" id="link_Opcao_Widget"><path codeLine="94" d="M1386.15,427.83 C1378.02,430.54 1369.95,433.14 1362,435.56 C1204.91,483.57 1040.1111,519.8737 906.9011,546.0937" fill="none" id="Opcao-to-Widget" style="stroke:#181818;stroke-width:1;"/><polygon fill="none" points="889.24,549.57,908.0599,551.9808,905.7424,540.2067,889.24,549.57" style="stroke:#181818;stroke-width:1;"/></g><!--link Menu to Widget--><g class="link" data-entity-1="Menu" data-entity-2="Widget" data-source-line="95" data-uid="lnk23" id="link_Menu_Widget"><path codeLine="95" d="M809.32,427.74 C794.59,449.16 788.4767,458.0267 773.1267,480.3567" fill="none" id="Menu-to-Widget" style="stroke:#181818;stroke-width:1;"/><polygon fill="none" points="762.93,495.19,778.0711,483.7556,768.1822,476.9578,762.93,495.19" style="stroke:#181818;stroke-width:1;"/></g><!--link InfoBox to Widget--><g class="link" data-entity-1="InfoBox" data-entity-2="Widget" data-source-line="96" data-uid="lnk24" id="link_InfoBox_Widget"><path codeLine="96" d="M1095.66,419.58 C1084.69,425.13 1073.68,430.54 1063,435.56 C1007.22,461.82 962.1472,481.3326 905.7272,504.3426" fill="none" id="InfoBox-to-Widget" style="stroke:#181818;stroke-width:1;"/><polygon fill="none" points="889.06,511.14,907.993,509.8983,903.4614,498.7868,889.06,511.14" style="stroke:#181818;stroke-width:1;"/></g><!--SRC=[hLLjJXin4FtFAKRmevlIpG5MA1A5L8tAbu0KLGXLpkuaiTZOAziBGJJdwGbw0YxMMTlxuKM58l4ZodXc_6RUyzYhRxaec68hECYPrll6A3uh3KvIAIxCGuwW3IgKvg70hQs2fRTiWR2jK1jMAYOC3ak-3OzR06a50CUC2xi4s8L7oZ8ytS2Al15J2vt01LKGY-kRGG9tacSsCsupIvx0TDBtTkebSDuk-dcQKxihHbMSOUF3uP3-D_HhkfnEV8yntFDiWMRVy3kPm9LT-8X0pFGvPehT9p2JCaScFB7f91fuasMPsnKvf1fa4A3jmbog51rQrEM-2xZcCwugfzF6kmibKzIQgV4T2YCZj7y9kEKb4fDCTgjuXcocZMAfyLHTsDFTWNJ9yqoXIE0xfaQgFHSV-J3D0g47hUzK4fbb0bpKN3pXjqhmMBUsUJVErIRgE4Drn0Ng5l3wnYhIdFWHcs7U7Bh1TGKRrBOPKH0Pl7n2_rNuj4YPVA5m3FDIK4e21rBeSeLgpsuPrL6PbXgp_WJQdB3RJ_z2UeM655-g6fsf3ExACOgowLzZJcE3sOIOhzkH86BSb7bVqchhcwVa_Qv3Gs4YvlApNBUdyBpP678kbamtzyB5HhwwHuZ2dIqrdd8fM3KBInPPf2RdjRiUYErvV6KYor6rigTC25IqonaUBSnkb2RxJCarNqclrQ0dKwqE7SyABddXytovR-CVFwTdZNbuUdLY5-EJo_6viouEGe43z8xC1KdLullsWkIedpIeaMcsKCrPYd18RoQRvHWuxSnQBxa_q4SXPq-_d_wWfgNz27sCO_SbeSTUajqCHa_ZE1uzKyTTsk7mrwXJ1-gtrFexJRct9Ox9snHn2A7FtgJGLKzcwAMEkuxDNm00]--></g></svg>